<?xml version="1.0" encoding="utf-8"?>
<!-- Generator: Adobe Illustrator 16.0.3, SVG Export Plug-In . SVG Version: 6.00 Build 0)  -->
<!DOCTYPE svg PUBLIC "-//W3C//DTD SVG 1.1//EN" "http://www.w3.org/Graphics/SVG/1.1/DTD/svg11.dtd">
<svg version="1.1" id="Layer_1" xmlns="http://www.w3.org/2000/svg" xmlns:xlink="http://www.w3.org/1999/xlink" x="0px" y="0px"
	 width="160px" height="195px" viewBox="0 0 160 195" enable-background="new 0 0 160 195" xml:space="preserve">
<g enable-background="new    ">
	<path fill="#FFFFFF" d="M90.905,36.351l-4.977,18.608H55.204c-2.455,0-4.834,0.939-7.141,2.813
		c-2.309,1.876-3.823,4.111-4.543,6.708l-23.801,88.712H1.328l23.801-88.712c2.018-7.79,6.525-14.423,13.523-19.906
		c6.995-5.48,14.747-8.223,23.26-8.223H90.905z"/>
	<path fill="#FFFFFF" d="M157.547,0.649l-4.761,17.959h-16.012c-2.741,0-5.338,0.865-7.789,2.597
		c-2.454,1.73-4.04,3.752-4.761,6.058l-2.38,9.088h26.181l-5.192,19.041h-26.181L86.576,168.121
		c-2.021,7.499-6.42,13.811-13.199,18.933c-6.778,5.118-14.351,7.681-22.719,7.681h-9.737l4.76-17.958h10.386
		c2.597,0,5.051-0.832,7.357-2.488c2.309-1.66,3.752-3.716,4.327-6.167l37.865-140.858c2.018-7.356,6.525-13.631,13.523-18.824
		c6.994-5.192,14.676-7.789,23.043-7.789H157.547z"/>
</g>
</svg>
