<?xml version="1.0" encoding="utf-8"?>
<!-- Generator: Adobe Illustrator 16.0.0, SVG Export Plug-In . SVG Version: 6.00 Build 0)  -->
<!DOCTYPE svg PUBLIC "-//W3C//DTD SVG 1.1//EN" "http://www.w3.org/Graphics/SVG/1.1/DTD/svg11.dtd">
<svg version="1.1" id="Layer_1" xmlns="http://www.w3.org/2000/svg" xmlns:xlink="http://www.w3.org/1999/xlink" x="0px" y="0px"
	 width="73px" height="50px" viewBox="0 0 73 50" enable-background="new 0 0 73 50" xml:space="preserve">
<path fill="#98A5AF" d="M461.418,350.309h-0.422c-0.934,0-1.691,0.681-1.691,1.522v21.489c0,0.842,0.758,1.521,1.691,1.521h0.422
	c0.934,0,1.689-0.68,1.689-1.521v-21.489C463.107,350.989,462.352,350.309,461.418,350.309z"/>
<path fill="#98A5AF" d="M467.102,352.02h-0.951c-0.84,0-1.52,0.681-1.52,1.521v17.117c0,0.84,0.68,1.521,1.52,1.521h0.951
	c0.84,0,1.523-0.682,1.523-1.521v-17.117C468.623,352.701,467.941,352.02,467.102,352.02z"/>
<polygon fill="#98A5AF" points="471.287,360.674 471.287,358.154 469.701,358.154 469.701,358.866 469.701,365.762 471.256,365.762 
	471.256,363.764 475.852,363.764 475.852,360.674 "/>
<path fill="#98A5AF" d="M421.67,350.309h-0.424c-0.934,0-1.689,0.681-1.689,1.522v21.489c0,0.842,0.756,1.521,1.689,1.521h0.424
	c0.932,0,1.691-0.68,1.691-1.521v-21.489C423.359,350.989,422.602,350.309,421.67,350.309z"/>
<path fill="#98A5AF" d="M416.514,352.971h-0.951c-0.84,0-1.521,0.682-1.521,1.521v17.117c0,0.842,0.68,1.521,1.521,1.521h0.951
	c0.838,0,1.521-0.68,1.521-1.521v-17.117C418.033,353.652,417.352,352.971,416.514,352.971z"/>
<polygon fill="#98A5AF" points="411.41,360.674 406.814,360.674 406.814,363.764 411.379,363.764 411.379,365.762 412.961,365.762 
	412.961,358.154 411.41,358.154 "/>
<polygon fill="#0E84E5" points="456.799,360.642 430.207,360.642 429.381,360.642 425.643,360.642 425.643,358.17 424.057,358.17 
	424.057,358.486 424.057,365.84 425.611,365.84 425.611,363.748 429.381,363.748 430.207,363.748 456.768,363.748 456.768,365.762 
	458.354,365.762 458.354,358.154 456.799,358.154 "/>
<path stroke="#000000" stroke-width="2.4236" stroke-miterlimit="10" d="M413.504,306.356"/>
<path fill="none" d="M399.066,270.346v1.328h-4.938v-2.021h-14.576v2.021h-2.02v14.936h2.02v2.078h14.574v-2.078h4.939v1.371
	c1.107-0.374,2.053-0.889,2.807-1.559c1.443-1.283,2.27-3.309,2.475-6.023h-1.916v-4.936h1.541c-0.406-1.518-1.102-2.724-2.094-3.59
	C401.123,271.217,400.176,270.713,399.066,270.346z"/>
<path d="M413.682,297.361c1.209,1.051,2.207,2.309,2.971,3.739c0.77,1.438,1.336,3.051,1.691,4.786
	c0.355,1.754,0.604,3.535,0.734,5.291c0.066,1.125,0.131,2.442,0.199,3.96c0.062,1.522,0.18,3.103,0.348,4.689
	c0.168,1.601,0.438,3.14,0.805,4.575c0.094,0.36,0.201,0.703,0.316,1.039h0.957c-0.15-0.402-0.289-0.818-0.4-1.262
	c-0.359-1.393-0.623-2.888-0.783-4.446c-0.166-1.57-0.283-3.129-0.346-4.636c-0.068-1.521-0.133-2.844-0.201-3.979
	c-0.133-1.801-0.385-3.622-0.75-5.41c-0.371-1.822-0.971-3.514-1.779-5.03c-0.814-1.527-1.881-2.871-3.176-3.995
	c-0.742-0.646-1.615-1.193-2.586-1.652v0.992C412.426,296.408,413.096,296.852,413.682,297.361z"/>
<path d="M408.102,259.061c1.842,0.742,3.498,1.699,4.951,2.848v-0.434h0.875c-1.598-1.321-3.43-2.417-5.488-3.247
	c-1.25-0.503-2.582-0.882-3.988-1.144V258C405.736,258.25,406.959,258.601,408.102,259.061z"/>
<path d="M417.402,287.228c-1.279,2.221-3.197,4.059-5.721,5.488v1.022c2.881-1.541,5.064-3.57,6.498-6.062
	c1.234-2.14,2.037-4.581,2.42-7.277h-0.906C419.318,282.932,418.559,285.222,417.402,287.228z"/>
<rect x="363.986" y="256.659" width="35.527" height="0.897"/>
<rect x="361.068" y="259.576" width="0.896" height="65.865"/>
<path d="M405.795,319.849c-0.197-3.09-0.498-6.103-0.895-8.959c-0.223-1.546-0.557-2.921-0.988-4.14h-0.955
	c0.465,1.23,0.82,2.646,1.055,4.265c0.393,2.832,0.691,5.823,0.887,8.892c0.129,2.014,0.4,3.863,0.809,5.535h0.934
	C406.215,323.765,405.926,321.901,405.795,319.849z"/>
<rect x="376.637" y="302.711" width="0.896" height="22.73"/>
<path d="M400.58,301.812c-1.82-1.338-4.477-2.019-7.926-2.019h-13.102v0.898h13.1c2.926,0,5.219,0.505,6.861,1.493v-0.373H400.58z"
	/>
<rect x="363.986" y="327.461" width="10.631" height="0.898"/>
<rect x="409.389" y="327.461" width="10.645" height="0.898"/>
<path d="M401.879,271.873c0.992,0.865,1.688,2.072,2.096,3.59h0.936c-0.443-1.805-1.258-3.234-2.441-4.266
	c-0.91-0.793-2.051-1.391-3.402-1.799v0.948C400.176,270.713,401.123,271.217,401.879,271.873z"/>
<rect x="379.553" y="288.688" width="14.574" height="0.896"/>
<rect x="379.553" y="268.756" width="14.574" height="0.896"/>
<rect x="376.637" y="271.674" width="0.896" height="14.936"/>
<path d="M401.875,286.422c-0.754,0.67-1.699,1.185-2.809,1.559v0.949c1.354-0.416,2.494-1.027,3.406-1.837
	c1.633-1.454,2.564-3.703,2.779-6.694h-0.904C404.143,283.113,403.316,285.139,401.875,286.422z"/>
<rect x="359.945" y="255.536" width="3.143" height="3.144"/>
<rect x="400.412" y="255.536" width="3.141" height="3.144"/>
<rect x="375.514" y="267.636" width="3.143" height="3.142"/>
<rect x="375.514" y="287.506" width="3.143" height="3.143"/>
<rect x="375.514" y="298.673" width="3.143" height="3.14"/>
<rect x="400.412" y="302.711" width="3.141" height="3.141"/>
<rect x="375.514" y="326.338" width="3.143" height="3.144"/>
<rect x="359.945" y="326.338" width="3.143" height="3.144"/>
<rect x="405.35" y="326.338" width="3.141" height="3.144"/>
<rect x="420.93" y="326.338" width="3.143" height="3.144"/>
<rect x="407.643" y="293.02" width="3.141" height="3.141"/>
<rect x="403.332" y="276.361" width="3.139" height="3.141"/>
<rect x="395.027" y="267.636" width="3.139" height="3.142"/>
<rect x="395.027" y="287.506" width="3.139" height="3.143"/>
<rect x="413.951" y="262.373" width="3.143" height="3.141"/>
<path d="M433.279,400.346v-3.141h-1.201v-18.008c0.652-0.193,1.131-0.791,1.131-1.506c0-0.875-0.709-1.58-1.582-1.58
	s-1.58,0.705-1.58,1.58c0,0.715,0.479,1.312,1.131,1.506v12.09c-0.162-0.527-0.348-1.047-0.555-1.557
	c-0.391-0.953-0.873-1.854-1.406-2.721v0.246h-0.896c0.566,0.893,1.066,1.826,1.471,2.814c0.793,1.943,1.25,4.037,1.371,6.236h0.016
	v0.898h-1.039v3.141h1.039v17.906c-0.652,0.191-1.131,0.791-1.131,1.506c0,0.873,0.709,1.58,1.58,1.58
	c0.875,0,1.582-0.707,1.582-1.58c0-0.715-0.479-1.314-1.131-1.508v-17.904H433.279z"/>
<text transform="matrix(1 0 0 1 354.582 342.4443)" font-family="'HelveticaNeue-Bold'" font-size="3.7037">Created by Andrew J. Young</text>
<text transform="matrix(1 0 0 1 354.582 346.1475)" font-family="'HelveticaNeue-Bold'" font-size="3.7037">from the Noun Project</text>
<g>
	<g>
		<path d="M361.465,194.69c0.83,0,1.775-0.475,1.775-1.187h-3.555C359.686,194.216,360.635,194.69,361.465,194.69z"/>
		<path d="M349.52,164.245c-0.924-1.039-2.062-0.027-1.141,1.014c0.219,0.243,5.758,6.481,5.758,6.481l1.141-1.012
			C355.277,170.729,349.736,164.489,349.52,164.245z"/>
		<path d="M363.834,192.042h-4.74c-0.197,0-0.357,0.159-0.357,0.356v0.236c0,0.195,0.16,0.354,0.357,0.354h4.74
			c0.197,0,0.355-0.16,0.355-0.354v-0.236C364.189,192.201,364.031,192.042,363.834,192.042z"/>
		<path d="M362.283,160.093c0-1.391-1.525-1.391-1.525,0c0,0.327,0,8.671,0,8.671h1.525
			C362.283,168.763,362.283,160.419,362.283,160.093z"/>
		<path d="M342.268,177.013c0.322,0.05,8.568,1.321,8.568,1.321l0.232-1.508c0,0-8.246-1.271-8.568-1.32
			C341.123,175.294,340.893,176.801,342.268,177.013z"/>
		<path d="M380.562,175.686c-0.322,0.05-8.568,1.322-8.568,1.322l0.232,1.507c0,0,8.246-1.271,8.568-1.32
			C382.17,176.981,381.938,175.475,380.562,175.686z"/>
		<path d="M363.834,190.62h-4.74c-0.197,0-0.357,0.158-0.357,0.354v0.236c0,0.198,0.16,0.356,0.357,0.356h4.74
			c0.197,0,0.355-0.159,0.355-0.356v-0.236C364.189,190.778,364.031,190.62,363.834,190.62z"/>
		<path d="M373.543,164.245c-0.217,0.244-5.758,6.483-5.758,6.483l1.139,1.012c0,0,5.543-6.238,5.758-6.481
			C375.605,164.218,374.467,163.205,373.543,164.245z"/>
		<path d="M396.143,195.793l-5.92-14.906c0,0-0.611-6.175-1.17-8.539c-2.465-10.636-14.32-20.287-27.178-20.287
			c-15.639,0-28.322,12.688-28.322,28.34c0,9.041,4.234,17.099,10.828,22.285v18.261h0.004c0.031,2.162,1.793,3.904,3.967,3.904
			h22.299c2.15,0,3.896-1.709,3.961-3.841c0-4.14,0-9.007,0-9.008c0,1.217,8.51,1.604,11.203,1.233
			c3.127-0.432,4.408-3.228,4.408-6.35v-7.921h3.799c1.262,0,2.291-1.025,2.291-2.283
			C396.312,196.363,396.256,196.062,396.143,195.793z M377.477,180.575c-0.086,1.359-0.318,2.728-0.742,4.052l4.139,4.642
			c-0.48,0.951-0.994,1.9-1.615,2.795l-6.127-1.366c-0.959,1.022-2.012,1.916-3.174,2.675l0.178,6.225
			c-0.992,0.446-1.99,0.805-3.027,1.088l-3.793-4.959c-1.359,0.16-2.75,0.159-4.133-0.017l-3.836,4.86
			c-1.041-0.289-2.047-0.663-3.023-1.132l0.271-6.15c-0.602-0.398-1.201-0.821-1.77-1.306c-0.525-0.446-1.002-0.927-1.451-1.428
			l-5.996,1.242c-0.605-0.901-1.141-1.838-1.598-2.806l4.113-4.484c-0.436-1.379-0.678-2.809-0.732-4.244l-5.344-2.892
			c0.104-1.055,0.318-2.115,0.594-3.16l5.965-0.783c0.547-1.316,1.295-2.578,2.217-3.754l-2.242-5.622
			c0.789-0.758,1.633-1.424,2.504-2.041l5.074,3.237c1.307-0.672,2.688-1.146,4.104-1.438l1.898-5.753
			c1.074-0.07,2.156-0.056,3.232,0.033l1.826,5.799c1.379,0.318,2.727,0.816,4.01,1.506l5.184-3.203
			c0.438,0.316,0.869,0.629,1.287,0.984c0.416,0.356,0.795,0.735,1.178,1.115l-2.361,5.677c0.859,1.145,1.547,2.373,2.062,3.658
			l6.107,0.891c0.264,1.051,0.457,2.119,0.555,3.186L377.477,180.575z"/>
		<path d="M361.465,172.367c-3.666,0-6.637,2.972-6.637,6.636c0,1.205,0.34,2.327,0.885,3.312c1.631,2.936,2.061,4.583,2.328,6.178
			c0.223,1.338,0.531,1.647,1.541,1.647c0.428,0,1.133,0,1.883,0c0.748,0,1.449,0,1.879,0c1.01,0,1.32-0.311,1.543-1.647
			c0.266-1.595,0.697-3.242,2.326-6.178c0.545-0.985,0.885-2.106,0.885-3.312C368.1,175.339,365.129,172.367,361.465,172.367z"/>
	</g>
	<text transform="matrix(1 0 0 1 332.8125 238.668)" font-family="'HelveticaNeue-Bold'" font-size="3.7037">Created by Dirk Rowe</text>
	<text transform="matrix(1 0 0 1 332.8125 242.3721)" font-family="'HelveticaNeue-Bold'" font-size="3.7037">from the Noun Project</text>
</g>
<g>
	<g id="Capa_21">
		<g>
			<path fill="#313741" d="M240.671,226.764h-74.075V173.4h74.075V226.764z M168.331,225.031h70.606v-49.896h-70.606V225.031z"/>
			<g>
				<path fill="#313741" d="M173.968,178.404c0-1.102-0.915-1.998-2.043-1.998c-1.126,0-2.039,0.896-2.039,1.998
					s0.913,1.996,2.039,1.996C173.053,180.4,173.968,179.508,173.968,178.404z"/>
				<rect x="171.739" y="220.98" fill="#313741" width="11.127" height="2.41"/>
				<path fill="#313741" d="M228.853,179.311c-3.48,0-6.303,2.762-6.303,6.168c0,3.033,2.238,5.551,5.191,6.066v19.059l-1.453,1.42
					l-0.785-0.768l-6.754,6.607l1.281,1.25l1.08,1.061l0.002-0.002l0.785,0.77l6.756-6.607l-0.787-0.77l2.102-2.055v-19.965
					c2.947-0.516,5.189-3.033,5.189-6.066C235.158,182.072,232.333,179.311,228.853,179.311z M229.968,188.869v-3.389h-2.227v3.389
					c-1.473-0.463-2.545-1.797-2.545-3.391c0-1.979,1.637-3.578,3.656-3.578s3.658,1.6,3.658,3.578
					C232.509,187.072,231.437,188.406,229.968,188.869z"/>
				<path fill="#313741" d="M235.421,219.721c-1.127,0-2.043,0.895-2.043,1.998c0,1.102,0.916,1.996,2.043,1.996
					c1.125,0,2.041-0.895,2.041-1.996C237.462,220.615,236.55,219.721,235.421,219.721z"/>
			</g>
			<g>
				<g>
					<path fill="#008CDC" d="M194.631,177.463c-12.532,0-22.692,9.939-22.692,22.199s10.16,22.201,22.692,22.201
						c12.533,0,22.693-9.941,22.693-22.201S207.166,177.463,194.631,177.463z M186.551,199.662c0-4.367,3.616-7.906,8.08-7.906
						c4.462,0,8.081,3.541,8.081,7.906c0,4.367-3.618,7.906-8.081,7.906C190.168,207.566,186.551,204.029,186.551,199.662z
						 M198.419,209.223c2.562-0.816,4.642-2.684,5.695-5.084l0.334,0.152c-1.094,2.486-3.244,4.426-5.895,5.275L198.419,209.223z
						 M199.233,211.305c3.077-1.078,5.577-3.342,6.926-6.229l0.355,0.164c-1.39,2.979-3.967,5.314-7.14,6.432L199.233,211.305z
						 M200.048,213.387c3.595-1.336,6.52-3.994,8.157-7.371l0.379,0.174c-1.682,3.475-4.688,6.211-8.383,7.586L200.048,213.387z
						 M200.862,215.469c4.114-1.588,7.463-4.646,9.387-8.512l0.4,0.184c-1.971,3.969-5.407,7.111-9.627,8.738L200.862,215.469z
						 M201.849,217.99l-0.169-0.432c4.634-1.838,8.425-5.293,10.63-9.652l0.422,0.193
						C210.476,212.566,206.595,216.109,201.849,217.99z"/>
				</g>
				<path fill="#313741" d="M194.631,197.74c-1.085,0-1.963,0.861-1.963,1.922c0,1.059,0.878,1.92,1.963,1.92
					c1.081,0,1.964-0.859,1.964-1.92C196.595,198.6,195.713,197.74,194.631,197.74z M194.631,200.783
					c-0.634,0-1.147-0.5-1.147-1.121s0.513-1.123,1.147-1.123s1.149,0.502,1.149,1.123S195.266,200.783,194.631,200.783z"/>
			</g>
		</g>
	</g>
	<text transform="matrix(1 0 0 1 166.5967 250.082)" fill="#313741" font-family="'HelveticaNeue-Bold'" font-size="3.7037">Created by Juan Pablo Bravo</text>
	<text transform="matrix(1 0 0 1 166.5967 253.7871)" fill="#313741" font-family="'HelveticaNeue-Bold'" font-size="3.7037">from the Noun Project</text>
</g>
<g>
	<g>
		<path d="M515.836,236.018v-1.481h-2.223v1.481h-1.48v-1.481h-2.223v1.481h-1.48v-1.481h-2.223v1.481h-1.482v-1.481h-2.963v1.481
			h-1.48v-1.481h-2.223v1.481h-1.48v-1.481h-2.223v1.481h-1.482v-1.481h-2.223v1.481h-1.48v-1.481h-2.223v1.481h-40.74v55.556
			h74.074v-55.556H515.836z M512.133,240.463c1.432,0,2.592,1.16,2.592,2.592c0,1.433-1.16,2.593-2.592,2.593
			c-1.434,0-2.592-1.16-2.592-2.593C509.541,241.623,510.699,240.463,512.133,240.463z M509.17,247.129h2.223v0.741h-2.223V247.129z
			 M509.17,249.352h2.223v2.222h-2.223V249.352z M502.504,247.87v-0.741h2.221v0.741H502.504z M504.725,249.352v2.222h-2.221v-2.222
			H504.725z M501.762,240.463c1.434,0,2.594,1.16,2.594,2.592c0,1.433-1.16,2.593-2.594,2.593c-1.432,0-2.592-1.16-2.592-2.593
			C499.17,241.623,500.33,240.463,501.762,240.463z M498.799,247.129h2.223v0.741h-2.223V247.129z M498.799,249.352h2.223v2.222
			h-2.223V249.352z M498.799,253.055h5.926v2.223h-5.926V253.055z M498.799,275.277h2.223v1.481h-2.223V275.277z M498.799,278.981
			h2.223v1.481h-2.223V278.981z M498.799,281.944h2.963v2.222h-2.963V281.944z M463.244,240.463h31.111v14.814h-31.111V240.463z
			 M487.688,277.499v-5.185h6.668v5.185H487.688z M494.355,278.981v5.185h-6.668v-5.185H494.355z M487.688,270.833v-5.186h6.668
			v5.186H487.688z M487.688,264.166v-5.185h6.668v5.185H487.688z M479.541,277.499v-5.185h6.666v5.185H479.541z M486.207,278.981
			v5.185h-6.666v-5.185H486.207z M479.541,270.833v-5.186h6.666v5.186H479.541z M479.541,264.166v-5.185h6.666v5.185H479.541z
			 M471.393,277.499v-5.185h6.666v5.185H471.393z M478.059,278.981v5.185h-6.666v-5.185H478.059z M471.393,270.833v-5.186h6.666
			v5.186H471.393z M471.393,264.166v-5.185h6.666v5.185H471.393z M463.244,258.981h6.666v5.185h-6.666V258.981z M463.244,265.647
			h6.666v5.186h-6.666V265.647z M463.244,272.314h6.666v5.185h-6.666V272.314z M463.244,278.981h6.666v5.185h-6.666V278.981z
			 M450.65,240.463h8.148v18.519h-8.148V240.463z M455.836,274.536v-2.222h2.963v2.222H455.836z M458.799,278.981v2.222h-2.963
			v-2.222H458.799z M455.836,267.87v-2.223h2.963v2.223H455.836z M450.65,265.647h2.963v2.223h-2.963V265.647z M450.65,272.314
			h2.963v2.222h-2.963V272.314z M450.65,278.981h2.963v2.222h-2.963V278.981z M515.096,288.61H450.65v-0.74h64.445V288.61z
			 M504.725,278.981v1.481h-2.221v-1.481H504.725z M502.504,276.759v-0.741h2.221v0.741H502.504z M504.725,281.944v2.222h-2.221
			v-2.222H504.725z M511.393,278.981v1.481h-2.223v-1.481H511.393z M509.17,276.759v-0.741h2.223v0.741H509.17z M511.393,281.944
			v2.222h-2.223v-2.222H511.393z M515.096,284.166h-2.963v-2.222h2.963V284.166z M515.096,280.463h-2.223v-1.481h2.223V280.463z
			 M515.096,276.759h-2.223v-1.481h2.223V276.759z M515.096,272.314h-16.297v-13.333h16.297V272.314z M515.096,255.277h-5.926
			v-2.223h5.926V255.277z M515.096,251.573h-2.223v-2.222h2.223V251.573z M515.096,247.87h-2.223v-0.741h2.223V247.87z"/>
		<path d="M451.393,258.24h6.666v-17.037h-6.666V258.24z M453.613,247.129h0.742v-4.444h0.74v4.444h0.74v5.186h-0.74v4.444h-0.74
			v-4.444h-0.742V247.129z"/>
		<path d="M506.947,270.833c2.863,0,5.186-2.321,5.186-5.186c0-2.863-2.322-5.185-5.186-5.185s-5.186,2.321-5.186,5.185
			C501.762,268.512,504.084,270.833,506.947,270.833z M506.947,260.833c2.654,0,4.814,2.16,4.814,4.814
			c0,2.655-2.16,4.815-4.814,4.815s-4.814-2.16-4.814-4.815C502.133,262.993,504.293,260.833,506.947,260.833z"/>
		<path d="M506.947,269.722c2.246,0,4.074-1.828,4.074-4.074s-1.828-4.074-4.074-4.074s-4.074,1.828-4.074,4.074
			S504.701,269.722,506.947,269.722z"/>
		<path d="M501.762,245.277c1.227,0,2.223-0.997,2.223-2.223c0-1.225-0.996-2.222-2.223-2.222c-1.225,0-2.221,0.997-2.221,2.222
			C499.541,244.28,500.537,245.277,501.762,245.277z M501.762,241.573c0.818,0,1.482,0.665,1.482,1.481
			c0,0.817-0.664,1.481-1.482,1.481c-0.816,0-1.48-0.664-1.48-1.481C500.281,242.238,500.945,241.573,501.762,241.573z"/>
		<path d="M512.133,245.277c1.225,0,2.223-0.997,2.223-2.223c0-1.225-0.998-2.222-2.223-2.222s-2.223,0.997-2.223,2.222
			C509.91,244.28,510.908,245.277,512.133,245.277z M512.133,241.573c0.818,0,1.48,0.665,1.48,1.481c0,0.817-0.662,1.481-1.48,1.481
			s-1.482-0.664-1.482-1.481C510.65,242.238,511.314,241.573,512.133,241.573z"/>
	</g>
	<text transform="matrix(1 0 0 1 446.207 312.6846)" font-family="'HelveticaNeue-Bold'" font-size="3.7037">Created by ascowalls</text>
	<text transform="matrix(1 0 0 1 446.207 316.3887)" font-family="'HelveticaNeue-Bold'" font-size="3.7037">from the Noun Project</text>
</g>
<g>
	<g>
		<path fill="#313741" d="M69.192,23.554c0.962-2.145,1.652-4.927,0.518-7.419c-1.323-2.907-4.717-4.528-10.085-4.817l-1.185-0.003
			l-0.092,0.003c-1.026,0.055-1.957,0.174-2.839,0.326c-0.042,1.147-0.221,2.332-0.532,3.548c1.141-0.285,2.382-0.428,3.509-0.491
			h1.001c2.745,0.153,6.194,0.769,7.137,2.832c0.466,1.021,0.307,2.305-0.104,3.54c-2.166-1.524-4.807-2.419-7.657-2.419
			c-1.189,0-2.34,0.163-3.438,0.455c1.859,3.297,2.87,7.042,2.87,10.861c0,5.348-1.913,10.257-5.088,14.081
			c1.72,0.808,3.63,1.272,5.656,1.272c7.365,0,13.334-5.968,13.334-13.334C72.198,28.788,71.07,25.852,69.192,23.554z"/>
		<path fill="#313741" d="M17.065,19.005c-0.977-0.229-1.996-0.352-3.044-0.352c-2.762,0-5.328,0.839-7.456,2.275
			c-0.375-1.19-0.508-2.414-0.058-3.396c0.942-2.062,4.391-2.68,7.137-2.832h1.001c1.003,0.055,2.101,0.174,3.134,0.403
			c-0.3-1.208-0.467-2.383-0.505-3.519c-0.784-0.122-1.601-0.221-2.494-0.268l-1.185-0.003l-0.091,0.003
			c-5.369,0.29-8.761,1.911-10.084,4.817c-1.102,2.419-0.484,5.108,0.435,7.226c-1.977,2.327-3.171,5.337-3.171,8.628
			c0,7.366,5.971,13.334,13.335,13.334c1.897,0,3.698-0.402,5.333-1.115c-3.255-3.848-5.223-8.815-5.223-14.238
			C14.13,26.103,15.166,22.326,17.065,19.005z"/>
	</g>
	<path fill="#008CDC" d="M51.186,17.743c1.395-3.11,2.396-7.142,0.751-10.754c-1.92-4.216-6.839-6.566-14.62-6.985L35.599,0
		l-0.131,0.003c-7.783,0.419-12.701,2.769-14.619,6.985c-1.597,3.505-0.702,7.404,0.628,10.474
		c-2.863,3.371-4.596,7.736-4.596,12.506c0,10.675,8.655,19.331,19.332,19.331c10.677,0,19.331-8.655,19.331-19.331
		C55.543,25.331,53.908,21.074,51.186,17.743z M25.405,13.938c-0.543-1.726-0.736-3.5-0.085-4.921
		c1.366-2.993,6.365-3.885,10.346-4.107h1.453c3.98,0.222,8.979,1.114,10.348,4.107c0.675,1.479,0.445,3.34-0.152,5.13
		c-3.142-2.208-6.968-3.509-11.101-3.509C32.21,10.638,28.491,11.854,25.405,13.938z"/>
	<text transform="matrix(1 0 0 1 -8.8447 86.2188)" font-family="'HelveticaNeue-Bold'" font-size="4.5861">Created by She3t, llc</text>
	<text transform="matrix(1 0 0 1 -8.8447 90.8057)" font-family="'HelveticaNeue-Bold'" font-size="4.5861">from the Noun Project</text>
</g>
<g>
	<g>
		<g>
			<path d="M367.393,436.432c7.605,0,13.791,6.186,13.791,13.789v39.182c0,7.604-6.186,13.789-13.791,13.789h-39.18
				c-7.604,0-13.789-6.186-13.789-13.789v-39.182c0-7.604,6.186-13.789,13.789-13.789H367.393 M367.393,434.209h-39.18
				c-8.844,0-16.012,7.168-16.012,16.012v39.182c0,8.842,7.168,16.012,16.012,16.012h39.18c8.844,0,16.012-7.17,16.012-16.012
				v-39.182C383.404,441.377,376.236,434.209,367.393,434.209L367.393,434.209z"/>
		</g>
		
			<line fill="none" stroke="#000000" stroke-width="0.25" stroke-miterlimit="10" x1="311.691" y1="505.922" x2="383.914" y2="433.699"/>
		
			<line fill="none" stroke="#000000" stroke-width="0.25" stroke-miterlimit="10" x1="311.691" y1="433.699" x2="383.914" y2="505.922"/>
		<g>
			
				<line fill="none" stroke="#000000" stroke-width="0.25" stroke-miterlimit="10" x1="312.885" y1="482.959" x2="382.723" y2="482.959"/>
			
				<line fill="none" stroke="#000000" stroke-width="0.25" stroke-miterlimit="10" x1="312.885" y1="469.811" x2="382.723" y2="469.811"/>
			
				<line fill="none" stroke="#000000" stroke-width="0.25" stroke-miterlimit="10" x1="312.885" y1="456.662" x2="382.723" y2="456.662"/>
		</g>
		<g>
			
				<line fill="none" stroke="#000000" stroke-width="0.25" stroke-miterlimit="10" x1="360.951" y1="504.73" x2="360.951" y2="434.893"/>
			
				<line fill="none" stroke="#000000" stroke-width="0.25" stroke-miterlimit="10" x1="347.803" y1="504.73" x2="347.803" y2="434.893"/>
			
				<line fill="none" stroke="#000000" stroke-width="0.25" stroke-miterlimit="10" x1="334.654" y1="504.73" x2="334.654" y2="434.893"/>
		</g>
		<g>
			
				<line fill="none" stroke="#000000" stroke-width="0.25" stroke-miterlimit="10" x1="378.729" y1="505.414" x2="378.729" y2="434.209"/>
			
				<line fill="none" stroke="#000000" stroke-width="0.25" stroke-miterlimit="10" x1="316.877" y1="505.414" x2="316.877" y2="434.209"/>
		</g>
		<g>
			
				<line fill="none" stroke="#000000" stroke-width="0.25" stroke-miterlimit="10" x1="383.404" y1="438.885" x2="312.201" y2="438.885"/>
			
				<line fill="none" stroke="#000000" stroke-width="0.25" stroke-miterlimit="10" x1="383.404" y1="500.736" x2="312.201" y2="500.736"/>
		</g>
		<circle fill="none" stroke="#000000" stroke-width="0.25" stroke-miterlimit="10" cx="347.803" cy="469.811" r="30.889"/>
		<circle fill="none" stroke="#000000" stroke-width="0.25" stroke-miterlimit="10" cx="347.803" cy="469.811" r="18.639"/>
		<circle fill="none" stroke="#000000" stroke-width="0.25" stroke-miterlimit="10" cx="347.803" cy="469.811" r="13.148"/>
	</g>
	<g>
		<path d="M266.042,438.326c7.394,0,13.408,6.014,13.408,13.408v36.154c0,7.393-6.014,13.408-13.408,13.408h-36.154
			c-7.394,0-13.408-6.016-13.408-13.408v-36.154c0-7.395,6.015-13.408,13.408-13.408H266.042 M266.042,436.959h-36.154
			c-8.16,0-14.774,6.615-14.774,14.775v36.154c0,8.16,6.614,14.773,14.774,14.773h36.154c8.16,0,14.775-6.613,14.775-14.773v-36.154
			C280.816,443.574,274.201,436.959,266.042,436.959L266.042,436.959z"/>
	</g>
	<g>
		
			<rect x="247.862" y="422.773" transform="matrix(-0.7071 -0.7071 0.7071 -0.7071 91.0975 977.3549)" width="0.207" height="94.075"/>
	</g>
	<g>
		
			<rect x="200.927" y="469.708" transform="matrix(-0.7071 -0.7071 0.7071 -0.7071 91.1006 977.3556)" width="94.074" height="0.204"/>
	</g>
	<g>
		<g>
			<rect x="215.801" y="481.818" width="64.326" height="0.205"/>
		</g>
		<g>
			<rect x="215.801" y="469.709" width="64.326" height="0.205"/>
		</g>
		<g>
			<rect x="215.801" y="457.598" width="64.326" height="0.205"/>
		</g>
	</g>
	<g>
		<g>
			<rect x="259.972" y="437.648" width="0.205" height="64.326"/>
		</g>
		<g>
			<rect x="247.861" y="437.648" width="0.205" height="64.326"/>
		</g>
		<g>
			<rect x="235.751" y="437.648" width="0.205" height="64.326"/>
		</g>
	</g>
	<g>
		<g>
			<rect x="276.348" y="437.02" width="0.205" height="65.584"/>
		</g>
		<g>
			<rect x="219.376" y="437.02" width="0.205" height="65.584"/>
		</g>
	</g>
	<g>
		<g>
			<rect x="215.171" y="441.225" width="65.584" height="0.203"/>
		</g>
		<g>
			<rect x="215.171" y="498.193" width="65.584" height="0.205"/>
		</g>
	</g>
	<g>
		<path d="M247.964,498.365c-15.744,0-28.553-12.811-28.553-28.555c0-15.742,12.809-28.553,28.553-28.553
			s28.553,12.809,28.553,28.553S263.708,498.365,247.964,498.365z M247.964,441.463c-15.632,0-28.348,12.717-28.348,28.348
			s12.717,28.348,28.348,28.348s28.348-12.715,28.348-28.348C276.312,454.18,263.596,441.463,247.964,441.463z"/>
	</g>
	<g>
		<path d="M247.964,487.08c-9.522,0-17.271-7.746-17.271-17.27s7.747-17.27,17.271-17.27s17.27,7.748,17.27,17.27
			C265.234,479.334,257.486,487.08,247.964,487.08z M247.964,452.746c-9.41,0-17.065,7.656-17.065,17.064
			c0,9.41,7.655,17.066,17.065,17.066s17.064-7.656,17.064-17.066C265.029,460.402,257.375,452.746,247.964,452.746z"/>
	</g>
	<g>
		<path d="M247.964,482.023c-6.734,0-12.213-5.479-12.213-12.213s5.479-12.213,12.213-12.213s12.213,5.479,12.213,12.213
			S254.699,482.023,247.964,482.023z M247.964,457.803c-6.621,0-12.008,5.387-12.008,12.008c0,6.623,5.387,12.008,12.008,12.008
			s12.008-5.385,12.008-12.008C259.972,463.189,254.585,457.803,247.964,457.803z"/>
	</g>
	<g>
		<path d="M312.275,426.463c0.348,0.213,0.854,0.391,1.387,0.391c0.789,0,1.252-0.418,1.252-1.021c0-0.559-0.32-0.879-1.129-1.191
			c-0.977-0.346-1.58-0.852-1.58-1.695c0-0.934,0.771-1.627,1.936-1.627c0.613,0,1.059,0.143,1.324,0.293l-0.213,0.631
			c-0.197-0.105-0.596-0.283-1.139-0.283c-0.816,0-1.127,0.488-1.127,0.896c0,0.559,0.363,0.834,1.189,1.154
			c1.014,0.393,1.529,0.881,1.529,1.76c0,0.924-0.686,1.725-2.098,1.725c-0.576,0-1.209-0.17-1.527-0.383L312.275,426.463z"/>
		<path d="M317.652,421.869v1.234h1.121v0.596h-1.121v2.318c0,0.533,0.152,0.834,0.588,0.834c0.203,0,0.354-0.025,0.451-0.053
			l0.035,0.586c-0.15,0.062-0.389,0.107-0.693,0.107c-0.363,0-0.656-0.115-0.842-0.33c-0.223-0.23-0.303-0.613-0.303-1.119v-2.346
			h-0.666v-0.594h0.666v-1.031L317.652,421.869z"/>
		<path d="M319.654,424.445c0-0.506-0.01-0.941-0.037-1.342h0.684l0.027,0.844h0.035c0.195-0.576,0.666-0.941,1.191-0.941
			c0.088,0,0.15,0.01,0.223,0.027v0.736c-0.08-0.018-0.16-0.025-0.268-0.025c-0.551,0-0.941,0.418-1.049,1.004
			c-0.016,0.105-0.035,0.23-0.035,0.363v2.293h-0.771V424.445z"/>
		<path d="M326.363,425.219c0,1.59-1.102,2.283-2.143,2.283c-1.162,0-2.061-0.854-2.061-2.213c0-1.439,0.941-2.283,2.133-2.283
			C325.527,423.006,326.363,423.902,326.363,425.219z M322.951,425.262c0,0.941,0.541,1.652,1.307,1.652
			c0.746,0,1.305-0.701,1.305-1.67c0-0.729-0.363-1.652-1.287-1.652C323.35,423.592,322.951,424.445,322.951,425.262z"/>
		<path d="M328.125,425.076h0.018c0.105-0.15,0.258-0.338,0.383-0.488l1.26-1.484h0.941l-1.66,1.768l1.893,2.533h-0.949
			l-1.484-2.061l-0.4,0.443v1.617h-0.771v-6.307h0.771V425.076L328.125,425.076z"/>
		<path d="M331.955,425.396c0.018,1.057,0.693,1.492,1.475,1.492c0.561,0,0.898-0.098,1.191-0.223l0.133,0.561
			c-0.275,0.125-0.746,0.268-1.43,0.268c-1.324,0-2.115-0.871-2.115-2.168c0-1.299,0.764-2.32,2.018-2.32
			c1.404,0,1.777,1.236,1.777,2.025c0,0.16-0.02,0.285-0.027,0.365H331.955z M334.248,424.836c0.008-0.496-0.205-1.27-1.084-1.27
			c-0.791,0-1.137,0.729-1.199,1.27H334.248z"/>
		<path d="M340.924,427.244c-0.205,0.105-0.658,0.248-1.236,0.248c-1.297,0-2.141-0.879-2.141-2.193
			c0-1.324,0.906-2.283,2.309-2.283c0.463,0,0.871,0.115,1.084,0.221l-0.178,0.604c-0.186-0.105-0.479-0.203-0.906-0.203
			c-0.984,0-1.518,0.729-1.518,1.625c0,0.996,0.639,1.609,1.492,1.609c0.443,0,0.736-0.117,0.959-0.215L340.924,427.244z"/>
		<path d="M345.678,425.219c0,1.59-1.102,2.283-2.141,2.283c-1.164,0-2.061-0.854-2.061-2.213c0-1.439,0.941-2.283,2.131-2.283
			C344.842,423.006,345.678,423.902,345.678,425.219z M342.266,425.262c0,0.941,0.541,1.652,1.307,1.652
			c0.746,0,1.305-0.701,1.305-1.67c0-0.729-0.363-1.652-1.287-1.652S342.266,424.445,342.266,425.262z"/>
		<path d="M346.666,424.268c0-0.445-0.01-0.809-0.035-1.164h0.693l0.045,0.711h0.018c0.213-0.41,0.711-0.809,1.42-0.809
			c0.596,0,1.52,0.355,1.52,1.83v2.566h-0.781v-2.479c0-0.693-0.258-1.27-0.996-1.27c-0.514,0-0.914,0.365-1.047,0.799
			c-0.035,0.098-0.053,0.23-0.053,0.365v2.584h-0.783V424.268z"/>
		<path d="M351.494,426.604c0.23,0.15,0.639,0.311,1.031,0.311c0.568,0,0.834-0.283,0.834-0.639c0-0.373-0.223-0.578-0.799-0.791
			c-0.773-0.275-1.137-0.701-1.137-1.217c0-0.693,0.559-1.262,1.482-1.262c0.436,0,0.818,0.123,1.057,0.266l-0.195,0.568
			c-0.168-0.105-0.479-0.248-0.879-0.248c-0.463,0-0.719,0.268-0.719,0.588c0,0.354,0.258,0.514,0.816,0.729
			c0.746,0.283,1.127,0.656,1.127,1.297c0,0.756-0.586,1.287-1.607,1.287c-0.471,0-0.906-0.115-1.207-0.293L351.494,426.604z"/>
		<path d="M356.062,421.869v1.234h1.119v0.596h-1.119v2.318c0,0.533,0.15,0.834,0.586,0.834c0.203,0,0.355-0.025,0.453-0.053
			l0.035,0.586c-0.15,0.062-0.391,0.107-0.693,0.107c-0.363,0-0.658-0.115-0.844-0.33c-0.223-0.23-0.303-0.613-0.303-1.119v-2.346
			h-0.666v-0.594h0.666v-1.031L356.062,421.869z"/>
		<path d="M358.062,424.445c0-0.506-0.01-0.941-0.037-1.342h0.686l0.025,0.844h0.037c0.195-0.576,0.666-0.941,1.189-0.941
			c0.09,0,0.15,0.01,0.223,0.027v0.736c-0.08-0.018-0.16-0.025-0.268-0.025c-0.549,0-0.941,0.418-1.047,1.004
			c-0.018,0.105-0.037,0.23-0.037,0.363v2.293h-0.771V424.445z"/>
		<path d="M364.566,426.23c0,0.445,0.01,0.836,0.035,1.174h-0.693l-0.045-0.701h-0.016c-0.205,0.346-0.658,0.799-1.422,0.799
			c-0.676,0-1.484-0.373-1.484-1.883v-2.516h0.781v2.381c0,0.818,0.25,1.369,0.961,1.369c0.523,0,0.887-0.365,1.029-0.711
			c0.045-0.115,0.072-0.258,0.072-0.4v-2.639h0.781V426.23L364.566,426.23z"/>
		<path d="M368.932,427.244c-0.205,0.105-0.658,0.248-1.234,0.248c-1.299,0-2.143-0.879-2.143-2.193
			c0-1.324,0.906-2.283,2.311-2.283c0.461,0,0.871,0.115,1.084,0.221l-0.178,0.604c-0.186-0.105-0.48-0.203-0.906-0.203
			c-0.986,0-1.52,0.729-1.52,1.625c0,0.996,0.639,1.609,1.492,1.609c0.445,0,0.738-0.117,0.961-0.215L368.932,427.244z"/>
		<path d="M370.906,421.869v1.234h1.119v0.596h-1.119v2.318c0,0.533,0.15,0.834,0.586,0.834c0.205,0,0.355-0.025,0.453-0.053
			l0.035,0.586c-0.15,0.062-0.391,0.107-0.693,0.107c-0.363,0-0.656-0.115-0.844-0.33c-0.223-0.23-0.303-0.613-0.303-1.119v-2.346
			h-0.664v-0.594h0.664v-1.031L370.906,421.869z"/>
		<path d="M373.777,421.896c0.008,0.266-0.188,0.479-0.498,0.479c-0.275,0-0.471-0.213-0.471-0.479c0-0.277,0.203-0.49,0.488-0.49
			C373.59,421.406,373.777,421.619,373.777,421.896z M372.906,427.404v-4.301h0.781v4.301H372.906z"/>
		<path d="M378.877,425.219c0,1.59-1.102,2.283-2.141,2.283c-1.164,0-2.061-0.854-2.061-2.213c0-1.439,0.941-2.283,2.131-2.283
			C378.041,423.006,378.877,423.902,378.877,425.219z M375.467,425.262c0,0.941,0.541,1.652,1.305,1.652
			c0.748,0,1.307-0.701,1.307-1.67c0-0.729-0.363-1.652-1.287-1.652C375.865,423.592,375.467,424.445,375.467,425.262z"/>
		<path d="M379.865,424.268c0-0.445-0.01-0.809-0.035-1.164h0.693l0.045,0.711h0.018c0.213-0.41,0.711-0.809,1.42-0.809
			c0.596,0,1.52,0.355,1.52,1.83v2.566h-0.781v-2.479c0-0.693-0.258-1.27-0.996-1.27c-0.514,0-0.914,0.365-1.047,0.799
			c-0.035,0.098-0.053,0.23-0.053,0.365v2.584h-0.783V424.268L379.865,424.268z"/>
	</g>
	<g>
		<path d="M219.015,421.416h3.225v0.648h-2.451v1.99h2.266v0.639h-2.266v2.711h-0.773V421.416z"/>
		<path d="M223.957,421.896c0.01,0.266-0.187,0.479-0.498,0.479c-0.274,0-0.471-0.213-0.471-0.479c0-0.277,0.205-0.49,0.489-0.49
			C223.77,421.406,223.957,421.619,223.957,421.896z M223.086,427.404v-4.301h0.782v4.301H223.086z"/>
		<path d="M225.167,421.096h0.781v6.309h-0.781V421.096z"/>
		<path d="M227.264,421.096h0.782v6.309h-0.782V421.096z"/>
		<path d="M234.311,427.244c-0.204,0.105-0.657,0.248-1.235,0.248c-1.297,0-2.141-0.879-2.141-2.193
			c0-1.324,0.905-2.283,2.309-2.283c0.462,0,0.871,0.115,1.084,0.221l-0.177,0.604c-0.187-0.105-0.479-0.203-0.907-0.203
			c-0.985,0-1.519,0.729-1.519,1.625c0,0.996,0.64,1.609,1.493,1.609c0.443,0,0.736-0.117,0.959-0.215L234.311,427.244z"/>
		<path d="M239.066,425.219c0,1.59-1.102,2.283-2.142,2.283c-1.163,0-2.062-0.854-2.062-2.213c0-1.439,0.942-2.283,2.133-2.283
			C238.23,423.006,239.066,423.902,239.066,425.219z M235.655,425.262c0,0.941,0.542,1.652,1.306,1.652
			c0.746,0,1.307-0.701,1.307-1.67c0-0.729-0.364-1.652-1.288-1.652C236.054,423.592,235.655,424.445,235.655,425.262z"/>
		<path d="M240.054,424.268c0-0.445-0.01-0.809-0.035-1.164h0.693l0.045,0.711h0.017c0.214-0.41,0.711-0.809,1.421-0.809
			c0.596,0,1.52,0.355,1.52,1.83v2.566h-0.781v-2.479c0-0.693-0.258-1.27-0.996-1.27c-0.514,0-0.914,0.365-1.047,0.799
			c-0.036,0.098-0.055,0.23-0.055,0.365v2.584h-0.781V424.268z"/>
		<path d="M244.881,426.604c0.231,0.15,0.64,0.311,1.031,0.311c0.569,0,0.835-0.283,0.835-0.639c0-0.373-0.223-0.578-0.8-0.791
			c-0.772-0.275-1.137-0.701-1.137-1.217c0-0.693,0.56-1.262,1.483-1.262c0.436,0,0.818,0.123,1.057,0.266l-0.195,0.568
			c-0.168-0.105-0.479-0.248-0.879-0.248c-0.463,0-0.721,0.268-0.721,0.588c0,0.354,0.258,0.514,0.818,0.729
			c0.746,0.283,1.127,0.656,1.127,1.297c0,0.756-0.586,1.287-1.607,1.287c-0.471,0-0.906-0.115-1.209-0.293L244.881,426.604z"/>
		<path d="M249.449,421.869v1.234h1.121v0.596h-1.121v2.318c0,0.533,0.152,0.834,0.588,0.834c0.203,0,0.354-0.025,0.452-0.053
			l0.036,0.586c-0.15,0.062-0.391,0.107-0.693,0.107c-0.363,0-0.656-0.115-0.844-0.328c-0.223-0.23-0.303-0.613-0.303-1.119v-2.346
			h-0.665v-0.596h0.665v-1.031L249.449,421.869z"/>
		<path d="M251.451,424.445c0-0.506-0.01-0.941-0.037-1.342h0.685l0.026,0.844h0.036c0.195-0.576,0.666-0.941,1.19-0.941
			c0.089,0,0.15,0.01,0.223,0.027v0.736c-0.08-0.018-0.16-0.025-0.268-0.025c-0.551,0-0.941,0.418-1.048,1.004
			c-0.017,0.105-0.036,0.23-0.036,0.363v2.293h-0.771V424.445z"/>
		<path d="M257.955,426.23c0,0.445,0.009,0.836,0.035,1.174h-0.691l-0.046-0.701h-0.017c-0.205,0.346-0.658,0.799-1.422,0.799
			c-0.676,0-1.484-0.373-1.484-1.883v-2.516h0.782v2.381c0,0.818,0.249,1.369,0.96,1.369c0.523,0,0.889-0.365,1.03-0.711
			c0.046-0.115,0.071-0.258,0.071-0.4v-2.639h0.782L257.955,426.23L257.955,426.23z"/>
		<path d="M262.32,427.244c-0.205,0.105-0.658,0.248-1.235,0.248c-1.298,0-2.142-0.879-2.142-2.193c0-1.324,0.906-2.283,2.311-2.283
			c0.461,0,0.87,0.115,1.084,0.221l-0.178,0.604c-0.187-0.105-0.48-0.203-0.906-0.203c-0.986,0-1.52,0.729-1.52,1.625
			c0,0.996,0.639,1.609,1.492,1.609c0.445,0,0.737-0.117,0.959-0.215L262.32,427.244z"/>
		<path d="M264.294,421.869v1.234h1.119v0.596h-1.119v2.318c0,0.533,0.15,0.834,0.586,0.834c0.204,0,0.355-0.025,0.453-0.053
			l0.035,0.586c-0.15,0.062-0.391,0.107-0.692,0.107c-0.364,0-0.657-0.115-0.844-0.328c-0.222-0.23-0.302-0.613-0.302-1.119v-2.346
			h-0.666v-0.596h0.666v-1.031L264.294,421.869z"/>
		<path d="M267.166,421.896c0.008,0.266-0.188,0.479-0.498,0.479c-0.275,0-0.471-0.213-0.471-0.479c0-0.277,0.203-0.49,0.488-0.49
			C266.978,421.406,267.166,421.619,267.166,421.896z M266.294,427.404v-4.301h0.781v4.301H266.294z"/>
		<path d="M272.266,425.219c0,1.59-1.102,2.283-2.141,2.283c-1.164,0-2.061-0.854-2.061-2.213c0-1.439,0.941-2.283,2.131-2.283
			C271.43,423.006,272.266,423.902,272.266,425.219z M268.854,425.262c0,0.941,0.543,1.652,1.307,1.652
			c0.746,0,1.307-0.701,1.307-1.67c0-0.729-0.365-1.652-1.289-1.652S268.854,424.445,268.854,425.262z"/>
		<path d="M273.256,424.268c0-0.445-0.01-0.809-0.037-1.164h0.693l0.045,0.711h0.018c0.213-0.41,0.711-0.809,1.422-0.809
			c0.594,0,1.518,0.355,1.518,1.83v2.566h-0.781v-2.479c0-0.693-0.258-1.27-0.994-1.27c-0.516,0-0.916,0.365-1.049,0.799
			c-0.035,0.098-0.053,0.23-0.053,0.365v2.584h-0.781V424.268z"/>
	</g>
	<text transform="matrix(1 0 0 1 210.9272 519.8105)" font-family="'HelveticaNeue-Bold'" font-size="3.7037">Created by Dimitry Sunseifer</text>
	<text transform="matrix(1 0 0 1 210.9272 523.5146)" font-family="'HelveticaNeue-Bold'" font-size="3.7037">from the Noun Project</text>
</g>
<g>
	<g>
		<g>
			<g>
			</g>
		</g>
		<g>
		</g>
	</g>
	<path d="M628.199,251.185c-0.715,0-1.326,0.438-1.584,1.057h-27.518c-0.293-1.117-1.309-1.942-2.518-1.942
		s-2.225,0.824-2.518,1.942h-27.518c-0.258-0.619-0.869-1.057-1.584-1.057c-0.947,0-1.715,0.769-1.715,1.715
		c0,0.947,0.768,1.716,1.715,1.716c0.715,0,1.326-0.438,1.584-1.058h27.518c0.098,0.371,0.273,0.71,0.51,0.997
		c-13.619,1.023-24.355,12.39-24.377,26.268c-2.168,0.516-3.783,2.464-3.783,4.791c0,2.72,2.205,4.926,4.926,4.926
		s4.926-2.206,4.926-4.926c0-2.268-1.535-4.178-3.621-4.749h0.016c0-6.39,2.488-12.397,7.006-16.916
		c4.52-4.519,10.525-7.008,16.916-7.008s12.396,2.489,16.916,7.008c4.518,4.519,7.006,10.526,7.006,16.916h0.016
		c-2.086,0.571-3.621,2.481-3.621,4.749c0,2.72,2.205,4.926,4.926,4.926c2.719,0,4.924-2.206,4.924-4.926
		c0-2.327-1.613-4.274-3.781-4.791c-0.021-13.878-10.758-25.244-24.379-26.268c0.238-0.288,0.414-0.627,0.512-0.997h27.516
		c0.258,0.619,0.871,1.057,1.584,1.057c0.947,0,1.715-0.769,1.715-1.716C629.914,251.953,629.146,251.185,628.199,251.185z
		 M574.328,285.613c0,1.649-1.342,2.99-2.99,2.99s-2.99-1.342-2.99-2.99c0-1.649,1.342-2.991,2.99-2.991
		S574.328,283.964,574.328,285.613z M596.58,253.917c-0.562,0-1.018-0.457-1.018-1.019c0-0.561,0.455-1.018,1.018-1.018
		c0.561,0,1.018,0.457,1.018,1.018C597.598,253.46,597.141,253.917,596.58,253.917z M624.812,285.613c0,1.649-1.342,2.99-2.99,2.99
		c-1.65,0-2.992-1.342-2.992-2.99c0-1.649,1.344-2.991,2.992-2.991S624.812,283.964,624.812,285.613z"/>
	<text transform="matrix(1 0 0 1 559.543 319.2148)" font-family="'HelveticaNeue-Bold'" font-size="3.7037">Created by Mario Verduzco</text>
	<text transform="matrix(1 0 0 1 559.543 322.9189)" font-family="'HelveticaNeue-Bold'" font-size="3.7037">from the Noun Project</text>
</g>
<g>
	<g>
		<path fill="#008CDC" d="M319.11-96.161v4.707l-16.729-7.252v-4.023l16.729-7.25v4.739l-11.656,4.49L319.11-96.161z"/>
		<path fill="#008CDC" d="M329.455-110.081l-4.656,19.174c-0.156,0.633-0.29,1.131-0.407,1.497
			c-0.115,0.367-0.294,0.653-0.531,0.856c-0.239,0.207-0.586,0.308-1.04,0.308c-1.13,0-1.698-0.489-1.698-1.462
			c0-0.255,0.112-0.892,0.335-1.912l4.64-19.174c0.244-1.02,0.477-1.72,0.698-2.095c0.221-0.377,0.655-0.565,1.298-0.565
			c0.554,0,0.978,0.134,1.271,0.399s0.44,0.63,0.44,1.097C329.805-111.616,329.688-110.989,329.455-110.081z"/>
		<path fill="#008CDC" d="M348.53-98.706l-16.73,7.285v-4.705l11.691-4.589L331.8-105.24v-4.674l16.73,7.218V-98.706z"/>
	</g>
	<path fill="#313741" d="M359.297-137h-67.684c-2.547,0-4.613,2.066-4.613,4.616v58.454c0,2.547,2.066,4.613,4.613,4.613h67.684
		c2.549,0,4.615-2.066,4.615-4.613v-58.454C363.912-134.934,361.846-137,359.297-137z M347.76-133.923
		c1.697,0,3.076,1.381,3.076,3.076c0,1.697-1.379,3.079-3.076,3.079c-1.695,0-3.076-1.381-3.076-3.079
		C344.684-132.542,346.064-133.923,347.76-133.923z M339.301-133.923c1.695,0,3.077,1.381,3.077,3.076
		c0,1.697-1.382,3.079-3.077,3.079c-1.697,0-3.078-1.381-3.078-3.079C336.223-132.542,337.604-133.923,339.301-133.923z
		 M359.297-73.93h-67.684v-50.762h67.684V-73.93z M356.221-127.769c-1.695,0-3.076-1.381-3.076-3.079
		c0-1.695,1.381-3.076,3.076-3.076s3.076,1.381,3.076,3.076C359.297-129.15,357.916-127.769,356.221-127.769z"/>
	<text transform="matrix(1 0 0 1 286.999 -51.2417)" font-family="'HelveticaNeue-Bold'" font-size="3.8456">Created by Simple Icons</text>
	<text transform="matrix(1 0 0 1 286.999 -47.396)" font-family="'HelveticaNeue-Bold'" font-size="3.8456">from the Noun Project</text>
</g>
<g>
	<g>
		<g>
			<g>
				<path d="M754.078,233.87c0.385,0.384,0.385,1.008,0,1.392c-0.191,0.191-0.441,0.285-0.691,0.285s-0.502-0.094-0.697-0.285
					l-2.109-2.108l-2.107,2.108c-0.191,0.191-0.443,0.285-0.693,0.285c-0.256,0-0.506-0.094-0.697-0.285
					c-0.383-0.383-0.383-1.008,0-1.392l2.107-2.107l-2.107-2.108c-0.383-0.389-0.383-1.008,0-1.391s1.008-0.383,1.391,0l2.109,2.108
					l2.107-2.108c0.383-0.383,1.008-0.383,1.391,0s0.383,1.002,0,1.391l-2.109,2.108L754.078,233.87z"/>
			</g>
		</g>
		<g>
			<g>
				<path d="M764.479,224.98c0.383,0.383,0.383,1.007,0,1.391c-0.193,0.192-0.443,0.29-0.693,0.29s-0.502-0.099-0.693-0.29
					l-2.113-2.108l-2.107,2.108c-0.191,0.192-0.443,0.29-0.693,0.29s-0.506-0.099-0.697-0.29c-0.383-0.383-0.383-1.007,0-1.391
					l2.107-2.108l-2.107-2.108c-0.383-0.383-0.383-1.007,0-1.391c0.383-0.383,1.008-0.383,1.391,0l2.107,2.107l2.113-2.107
					c0.383-0.383,1.002-0.383,1.387,0c0.383,0.383,0.383,1.007,0,1.391l-2.107,2.108L764.479,224.98z"/>
			</g>
		</g>
		<g>
			<g>
				<path d="M783.314,238.372c0.383,0.383,0.383,1.007,0,1.391c-0.193,0.192-0.443,0.29-0.693,0.29c-0.256,0-0.506-0.099-0.697-0.29
					l-2.109-2.107l-2.107,2.107c-0.191,0.192-0.441,0.29-0.697,0.29c-0.25,0-0.502-0.099-0.693-0.29
					c-0.383-0.383-0.383-1.007,0-1.391l2.109-2.108l-2.109-2.108c-0.383-0.383-0.383-1.007,0-1.391c0.383-0.383,1.008-0.383,1.391,0
					l2.109,2.108l2.107-2.108c0.383-0.383,1.008-0.383,1.391,0s0.383,1.008,0,1.391l-2.107,2.108L783.314,238.372z"/>
			</g>
		</g>
		<g>
			<g>
				<path d="M777.244,217.791l-6.58-1.626c-0.525-0.133-1.061,0.187-1.188,0.718l-1.633,6.579c-0.127,0.526,0.191,1.062,0.719,1.189
					c0.078,0.02,0.156,0.029,0.234,0.029c0.443,0,0.846-0.3,0.953-0.746l1.062-4.28l0.418,0.692
					c1.631,2.707,2.113,5.892,1.352,8.964c-0.758,3.071-2.668,5.661-5.381,7.298c-0.418,0.25-0.852,0.477-1.293,0.673
					c-0.713-1.242-1.928-2.187-3.436-2.506c-0.354-0.074-0.713-0.107-1.07-0.107c-2.443,0-4.574,1.734-5.076,4.122
					c-0.59,2.801,1.209,5.559,4.01,6.147c0.354,0.073,0.719,0.113,1.076,0.113c2.438,0,4.57-1.734,5.076-4.122
					c0.127-0.601,0.143-1.199,0.061-1.779c0.574-0.246,1.135-0.536,1.67-0.86c3.16-1.902,5.387-4.925,6.275-8.507
					c0.885-3.578,0.324-7.292-1.582-10.447l-0.418-0.692l4.281,1.062c0.525,0.127,1.061-0.192,1.193-0.723
					C778.096,218.454,777.775,217.924,777.244,217.791z M764.561,240.52c-0.309,1.488-1.635,2.565-3.15,2.565
					c-0.225,0-0.447-0.024-0.668-0.069c-1.744-0.369-2.859-2.078-2.496-3.823c0.314-1.484,1.643-2.561,3.154-2.561
					c0.223,0,0.449,0.021,0.67,0.069C763.809,237.064,764.93,238.779,764.561,240.52z"/>
			</g>
		</g>
	</g>
	<g>
		<g>
			<path d="M766.08,250.039c-0.039,0-0.084,0.004-0.123,0.009c0.01-0.005,0.014-0.005,0.023-0.005
				C766.016,250.039,766.045,250.039,766.08,250.039z"/>
		</g>
		<g>
			<path d="M765.98,250.043c-0.01,0-0.014,0-0.023,0.005c0.039-0.005,0.084-0.009,0.123-0.009
				C766.045,250.039,766.016,250.039,765.98,250.043z"/>
			<path d="M798.43,208.788h-31.367v-3.946c0-0.541-0.438-0.983-0.982-0.983c-0.541,0-0.982,0.442-0.982,0.983v3.945h-31.369
				c-0.539,0.001-0.982,0.438-0.982,0.984c0,0.54,0.443,0.982,0.982,0.982h2.586v40.268c0,0.545,0.438,0.983,0.982,0.983h25.619
				l-19.855,13.558c-0.451,0.305-0.564,0.914-0.26,1.366c0.191,0.275,0.502,0.427,0.811,0.427c0.191,0,0.389-0.054,0.557-0.172
				l20.93-14.29v13.479c0,0.541,0.441,0.983,0.982,0.983c0.545,0,0.982-0.442,0.982-0.983v-13.494l20.949,14.305
				c0.172,0.118,0.365,0.172,0.557,0.172c0.309,0,0.619-0.152,0.811-0.427c0.305-0.452,0.191-1.062-0.256-1.366l-19.859-13.559
				h25.604c0.541,0,0.982-0.438,0.982-0.983v-40.267h2.58c0.545,0,0.984-0.442,0.984-0.983
				C799.414,209.226,798.977,208.788,798.43,208.788z M793.885,250.039H766.08c-0.039,0-0.084,0.004-0.123,0.009
				c0.01-0.005,0.014-0.005,0.023-0.005c0.035-0.004,0.064-0.004,0.1-0.004h-27.801v-39.285h55.605V250.039z"/>
		</g>
		<g>
			<path d="M766.08,250.039c-0.039,0-0.084,0.004-0.123,0.009c0.01-0.005,0.014-0.005,0.023-0.005
				C766.016,250.039,766.045,250.039,766.08,250.039z"/>
		</g>
	</g>
	<text transform="matrix(1 0 0 1 729.043 285.6074)" font-family="'HelveticaNeue-Bold'" font-size="3.7037">Created by Garrett Knoll</text>
	<text transform="matrix(1 0 0 1 729.043 289.3115)" font-family="'HelveticaNeue-Bold'" font-size="3.7037">from the Noun Project</text>
</g>
<g>
	<path d="M704.559,371.832l-4.062-1.764l-2.967-5.473l-0.037-0.604c-2.072,0.551-7.826,1.811-13.568,0.688l-0.123,2.143
		l-4.266,7.979l-8.441,0.928l-4.359-1.949l-2.598-3.152l-1.67-3.988l-0.092-7.516l4.359-7.234l9.09-0.648l3.246,0.648l4.746,7.854
		c2.176-0.424,7.514-1.307,13.357-1.107l-0.109-1.83l3.988-6.586l8.719-0.557l2.674,0.914c-0.137,3.547-0.148,7.408,0.182,10.412
		l-3.916,0.85l-4.398,4.66L704.559,371.832z M725.744,325.232l-15.396,0.156l-3.473,3.303l0.152,9.459l2.926,3.016l0.375,0.271
		l15.215,0.031l3.287-3.207l0.213-9.836L725.744,325.232z M725.617,363.361l-4.186-0.768l-7.424-0.158l-3.697,0.803l-3.557,3.768
		l0.428,9.27l3.857,3.369l2.422,0.611l10.018-0.162l1.932-0.959l2.838-2.271l0.387-10.488L725.617,363.361z M715.539,340.553
		c0,0-1.521,14.807-0.299,21.646c1.225,6.84,5.479,0.297,5.479,0.297s2.248-10.084,0.199-22.125"/>
	<text transform="matrix(1 0 0 1 658.6719 402.7441)" font-family="'HelveticaNeue-Bold'" font-size="3.7037">Created by Cris Dobbins</text>
	<text transform="matrix(1 0 0 1 658.6719 406.4473)" font-family="'HelveticaNeue-Bold'" font-size="3.7037">from the Noun Project</text>
</g>
<g>
	<path d="M552.961,138.049c1.803-1.003,3.17-2.54,3.186-4.503h0.002c-0.016-1.965-1.385-3.502-3.188-4.505
		c-1.826-1.019-4.225-1.602-6.859-1.604c-2.637,0.003-5.035,0.586-6.861,1.604c-1.803,1.003-3.17,2.54-3.188,4.505
		c0.016,1.962,1.385,3.5,3.188,4.503c1.477,0.823,3.33,1.356,5.379,1.534v1.451h-1.744l3.15,5.456l-6.699-0.001
		c-1.4,0.002-2.533,1.134-2.533,2.533l-0.002,3.34l-5.449-3.146v1.897c-6.162,0.335-11.061,5.423-11.061,11.67
		c0,6.463,5.238,11.702,11.705,11.702h5.043c0.115,0.214,0.252,0.42,0.432,0.601l0.047,0.046l6.852,5.369
		c0.104,0.098,0.215,0.179,0.33,0.258v1.408h-1.814l3.076,5.327c-2.576,0.024-4.92,0.603-6.711,1.6
		c-1.803,1.004-3.172,2.542-3.188,4.505c0.016,1.962,1.385,3.5,3.188,4.504c1.826,1.018,4.225,1.601,6.861,1.604
		c2.635-0.004,5.033-0.587,6.859-1.604c1.801-1.004,3.17-2.542,3.186-4.504c-0.016-1.963-1.385-3.501-3.186-4.505
		c-1.791-0.997-4.135-1.575-6.711-1.6l3.076-5.327h-1.676v-1.521c0.061-0.046,0.123-0.085,0.18-0.138l6.867-5.383l0.047-0.046
		c0.484-0.491,0.736-1.141,0.734-1.786c0.002-0.644-0.248-1.298-0.74-1.79l-0.051-0.052l-6.859-5.373
		c-0.467-0.436-1.066-0.661-1.662-0.677l3.16-5.472h-1.742v-1.531h5.293c1.398-0.002,2.531-1.135,2.533-2.534v-6.842
		c-0.004-1.399-1.135-2.532-2.535-2.532h-6.699l3.15-5.456h-1.742v-1.451C549.631,139.405,551.484,138.872,552.961,138.049z
		 M553.926,193.6c0.016,0.796-0.617,1.76-2.049,2.562c-1.406,0.791-3.477,1.326-5.775,1.322c-2.299,0.004-4.369-0.531-5.777-1.322
		c-1.434-0.803-2.066-1.767-2.049-2.562c-0.018-0.798,0.615-1.759,2.049-2.565c1.406-0.789,3.479-1.325,5.777-1.32
		c2.299-0.005,4.367,0.531,5.775,1.32C553.311,191.841,553.941,192.802,553.926,193.6z M546.369,167.758l6.828,5.351
		c0.041,0.055,0.061,0.116,0.062,0.187c-0.002,0.066-0.02,0.13-0.064,0.189l-6.826,5.348l-0.047,0.047
		c-0.062,0.062-0.139,0.09-0.223,0.091c-0.084-0.001-0.158-0.03-0.219-0.089l-0.051-0.051l-6.822-5.345
		c-0.045-0.056-0.064-0.121-0.066-0.19c0.002-0.073,0.02-0.134,0.062-0.187l6.832-5.353l0.045-0.046
		c0.064-0.062,0.135-0.09,0.221-0.091c0.08,0.001,0.156,0.028,0.221,0.094L546.369,167.758z M539.326,158.399h5.293v1.531h-1.744
		l3.16,5.472c-0.598,0.016-1.197,0.238-1.666,0.678l-6.854,5.369l-0.049,0.051c-0.23,0.226-0.398,0.487-0.521,0.764l-4.959-0.002
		c-5.236-0.009-9.471-4.244-9.482-9.479c0.01-5.019,3.904-9.107,8.84-9.447v2.331l5.449-3.147l-0.002,3.347
		c0.004,1.399,1.135,2.531,2.533,2.532 M553.188,149.025v6.841c0,0.171-0.141,0.31-0.311,0.31h-13.551
		c-0.17,0-0.312-0.142-0.312-0.312v-6.841c0-0.17,0.139-0.311,0.312-0.311h13.549C553.045,148.713,553.188,148.854,553.188,149.025z
		 M538.275,133.547c-0.016-0.798,0.617-1.76,2.049-2.564c1.408-0.792,3.479-1.326,5.777-1.322c2.299-0.003,4.369,0.53,5.777,1.322
		c1.432,0.805,2.064,1.767,2.047,2.564h0.002c0.016,0.796-0.617,1.758-2.049,2.564c-1.408,0.79-3.477,1.325-5.777,1.322
		c-2.299,0.003-4.367-0.532-5.777-1.322C538.893,135.304,538.26,134.342,538.275,133.547z"/>
	<text transform="matrix(1 0 0 1 508.7168 213.5938)" font-family="'HelveticaNeue-Bold'" font-size="3.7037">Created by Michael Wohlwend</text>
	<text transform="matrix(1 0 0 1 508.7168 217.2979)" font-family="'HelveticaNeue-Bold'" font-size="3.7037">from the Noun Project</text>
</g>
<g>
	<g>
		<path fill="#969CA8" d="M632.368-26.556h-7.852c-0.741,0-1.333,0.593-1.333,1.333v2.741h-31.704v-2.741
			c0-0.74-0.593-1.333-1.333-1.333h-7.778c-0.741,0-1.333,0.593-1.333,1.333v8.074c0,0.741,0.592,1.333,1.333,1.333h7.853
			c0.74,0,1.333-0.592,1.333-1.333v-2.74h14.593c-0.148,3.259-8.074,18.592-13.111,27.629c-0.297,0.519-0.148,1.186,0.296,1.63
			c4.519,3.852,5.63,7.63,5.927,9.556h-1.704c-0.741,0-1.333,0.593-1.333,1.333v6.519c0,0.741,0.592,1.334,1.333,1.334h19.704
			c0.74,0,1.333-0.593,1.333-1.334v-6.519c0-0.74-0.593-1.333-1.333-1.333h-1.704c0.296-1.926,1.407-5.704,5.926-9.556
			c0.444-0.37,0.593-1.111,0.296-1.63c-5.037-9.037-12.963-24.444-13.111-27.629h14.52v2.74c0,0.741,0.592,1.333,1.333,1.333h7.852
			c0.741,0,1.333-0.592,1.333-1.333v-8.074C633.701-25.963,633.109-26.556,632.368-26.556z M588.887-18.481h-5.26v-5.481h5.26
			V-18.481z M607.405,3.222c0.963,0,1.704,0.741,1.704,1.704s-0.741,1.704-1.704,1.704s-1.704-0.741-1.704-1.704
			C605.701,4.037,606.517,3.222,607.405,3.222z M615.998,25.37h-17.111v-3.926h1.777h13.557h1.777V25.37z M612.961,18.852H601.85
			c-0.296-2.148-1.407-6.444-6.074-10.814c1.778-3.26,7.111-13.037,10.297-20.297V0.852c-1.704,0.519-2.963,2.148-2.963,4.074
			c0,2.37,1.926,4.296,4.296,4.296s4.296-1.926,4.296-4.296c0-1.926-1.259-3.481-2.963-4.074v-13.186
			c3.26,7.26,8.52,17.037,10.297,20.371C614.368,12.407,613.258,16.703,612.961,18.852z M631.109-18.481h-5.26v-2.444
			c0-0.074,0-0.148,0-0.223s0-0.148,0-0.222v-2.519h5.26V-18.481z"/>
	</g>
	<text transform="matrix(1 0 0 1 570.2207 46.8516)" font-family="'HelveticaNeue-Bold'" font-size="3.7037">Created by Christelle Mozzati</text>
	<text transform="matrix(1 0 0 1 570.2207 50.5557)" font-family="'HelveticaNeue-Bold'" font-size="3.7037">from the Noun Project</text>
</g>
<g>
	<path fill="#313741" d="M220.513-6H188.92c-0.525,0-0.95,0.386-0.95,0.861v43.787c0,0.475,0.425,0.859,0.95,0.859h31.593
		c0.526,0,0.954-0.386,0.954-0.859V-5.138C221.467-5.614,221.039-6,220.513-6z M216.198-3.922c1.455,0,2.633,1.181,2.633,2.637
		c0,1.453-1.178,2.633-2.633,2.633c-1.457,0-2.636-1.182-2.636-2.633C213.562-2.742,214.742-3.922,216.198-3.922z M208.652-3.922
		c1.457,0,2.636,1.181,2.636,2.637c0,1.453-1.18,2.633-2.636,2.633c-1.453,0-2.634-1.182-2.634-2.633
		C206.018-2.742,207.198-3.922,208.652-3.922z M200.783-3.922c1.455,0,2.633,1.181,2.633,2.637c0,1.453-1.179,2.633-2.633,2.633
		c-1.454,0-2.636-1.182-2.636-2.633C198.146-2.742,199.329-3.922,200.783-3.922z M193.235-3.922c1.457,0,2.636,1.181,2.636,2.637
		c0,1.453-1.179,2.633-2.636,2.633c-1.454,0-2.635-1.182-2.635-2.633C190.603-2.742,191.782-3.922,193.235-3.922z M195.564,37.137
		c0,0.065-0.067,0.119-0.151,0.119h-5.375c-0.082,0-0.15-0.054-0.15-0.119v-3.121c0-0.064,0.068-0.119,0.15-0.119h5.375
		c0.084,0,0.151,0.054,0.151,0.119V37.137z M195.564,31.806c0,0.067-0.067,0.12-0.151,0.12h-5.375c-0.082,0-0.15-0.053-0.15-0.12
		v-3.122c0-0.063,0.068-0.118,0.15-0.118h5.375c0.084,0,0.151,0.054,0.151,0.118V31.806z M203.041,37.137
		c0,0.065-0.069,0.119-0.149,0.119h-5.378c-0.083,0-0.149-0.054-0.149-0.119v-3.121c0-0.064,0.066-0.119,0.149-0.119h5.378
		c0.081,0,0.149,0.054,0.149,0.119V37.137z M210.799,37.137c0,0.065-0.066,0.119-0.149,0.119h-5.375
		c-0.085,0-0.153-0.054-0.153-0.119v-3.121c0-0.064,0.067-0.119,0.153-0.119h5.375c0.083,0,0.149,0.054,0.149,0.119V37.137z
		 M204.637,26.414c-6.429,0-11.64-5.211-11.64-11.639c0-6.428,5.211-11.64,11.64-11.64c6.427,0,11.639,5.211,11.639,11.64
		C216.274,21.202,211.063,26.414,204.637,26.414z M218.691,22.09v6.136c0,0.095-0.028,0.17-0.064,0.17h-1.714
		c-0.036,0-0.063-0.075-0.063-0.17V22.09c0-0.093,0.027-0.172,0.063-0.172h1.714C218.663,21.918,218.691,21.998,218.691,22.09z
		 M218.691,37.126c0,0.071-0.028,0.13-0.064,0.13h-1.714c-0.036,0-0.063-0.059-0.063-0.13v-4.66c0-0.071,0.027-0.131,0.063-0.131
		h1.714c0.036,0,0.064,0.06,0.064,0.131V37.126z M220.23,31.543c0,0.041-0.059,0.074-0.13,0.074h-4.661
		c-0.072,0-0.131-0.033-0.131-0.074v-1.942c0-0.042,0.059-0.074,0.131-0.074h4.661c0.071,0,0.13,0.032,0.13,0.074V31.543z
		 M209.178,14.774c0,2.507-2.034,4.542-4.541,4.542c-2.509,0-4.542-2.035-4.542-4.542c0-2.509,2.033-4.542,4.542-4.542
		C207.144,10.232,209.178,12.266,209.178,14.774z M131.194-5.138v43.786c0,0.476,0.427,0.861,0.953,0.861h31.591
		c0.526,0,0.953-0.386,0.953-0.861V-5.138c0-0.476-0.427-0.861-0.953-0.861h-31.591C131.621-6,131.194-5.614,131.194-5.138z
		 M139.095-1.286c0,1.453-1.178,2.633-2.632,2.633s-2.634-1.182-2.634-2.633c0-1.456,1.181-2.637,2.634-2.637
		C137.917-3.922,139.095-2.742,139.095-1.286z M134.032,21.918h1.716c0.035,0,0.064,0.079,0.064,0.172v6.136
		c0,0.095-0.03,0.17-0.064,0.17h-1.716c-0.036,0-0.065-0.075-0.065-0.17V22.09C133.967,21.998,133.997,21.918,134.032,21.918z
		 M146.642-1.286c0,1.453-1.178,2.633-2.635,2.633c-1.453,0-2.632-1.182-2.632-2.633c0-1.456,1.179-2.637,2.632-2.637
		C145.463-3.922,146.642-2.742,146.642-1.286z M154.513-1.286c0,1.453-1.179,2.633-2.634,2.633c-1.454,0-2.634-1.182-2.634-2.633
		c0-1.456,1.18-2.637,2.634-2.637C153.334-3.922,154.513-2.742,154.513-1.286z M162.059-1.286c0,1.453-1.181,2.633-2.634,2.633
		c-1.455,0-2.633-1.182-2.633-2.633c0-1.456,1.178-2.637,2.633-2.637C160.878-3.922,162.059-2.742,162.059-1.286z M157.095,34.016
		c0-0.064,0.067-0.119,0.151-0.119h5.376c0.083,0,0.15,0.054,0.15,0.119v3.121c0,0.065-0.066,0.119-0.15,0.119h-5.376
		c-0.083,0-0.151-0.054-0.151-0.119V34.016z M157.095,28.684c0-0.063,0.067-0.118,0.151-0.118h5.376c0.083,0,0.15,0.054,0.15,0.118
		v3.122c0,0.067-0.066,0.12-0.15,0.12h-5.376c-0.083,0-0.151-0.053-0.151-0.12V28.684z M149.621,34.016
		c0-0.064,0.066-0.119,0.149-0.119h5.376c0.082,0,0.15,0.054,0.15,0.119v3.121c0,0.065-0.068,0.119-0.15,0.119h-5.376
		c-0.083,0-0.149-0.054-0.149-0.119V34.016z M141.861,34.016c0-0.064,0.067-0.119,0.151-0.119h5.375
		c0.084,0,0.152,0.054,0.152,0.119v3.121c0,0.065-0.068,0.119-0.152,0.119h-5.375c-0.084,0-0.151-0.054-0.151-0.119V34.016z
		 M136.387,14.774c0-6.428,5.209-11.64,11.638-11.64c6.429,0,11.64,5.211,11.64,11.64c0,6.428-5.21,11.639-11.64,11.639
		C141.596,26.414,136.387,21.202,136.387,14.774z M133.967,32.465c0-0.072,0.03-0.131,0.065-0.131h1.716
		c0.035,0,0.064,0.059,0.064,0.131v4.66c0,0.072-0.03,0.131-0.064,0.131h-1.716c-0.036,0-0.065-0.06-0.065-0.131V32.465z
		 M132.429,29.601c0-0.042,0.058-0.074,0.13-0.074h4.66c0.072,0,0.13,0.032,0.13,0.074v1.944c0,0.041-0.059,0.074-0.13,0.074h-4.659
		c-0.073,0-0.13-0.033-0.13-0.074L132.429,29.601L132.429,29.601z M148.024,10.233c2.511,0,4.543,2.033,4.543,4.542
		c0,2.507-2.032,4.542-4.543,4.542c-2.508,0-4.543-2.035-4.543-4.542C143.481,12.266,145.516,10.233,148.024,10.233z M178.791,2.796
		c0,1.36-1.103,2.46-2.46,2.46c-1.358,0-2.46-1.1-2.46-2.46c0-1.359,1.1-2.459,2.46-2.459
		C177.689,0.337,178.791,1.437,178.791,2.796z M185.076-6h-17.492c-0.292,0-0.526,0.386-0.526,0.861v43.787
		c0,0.475,0.235,0.859,0.526,0.859h17.492c0.291,0,0.527-0.386,0.527-0.859V-5.138C185.604-5.614,185.367-6,185.076-6z
		 M181.227,21.902v6.135c0,0.095-0.029,0.172-0.066,0.172h-1.712c-0.036,0-0.064-0.077-0.064-0.172v-6.135
		c0-0.094,0.029-0.172,0.064-0.172h1.712C181.197,21.729,181.227,21.808,181.227,21.902z M172.924-1.747h6.812v9.084h-6.812V-1.747z
		 M172.924,9.231h6.812v9.083h-6.812V9.231z M171.434,21.902c0-0.094,0.029-0.172,0.064-0.172h1.713
		c0.037,0,0.066,0.078,0.066,0.172v6.135c0,0.095-0.029,0.172-0.066,0.172h-1.713c-0.037,0-0.064-0.077-0.064-0.172V21.902z
		 M173.279,36.936c0,0.072-0.029,0.129-0.066,0.129H171.5c-0.037,0-0.064-0.058-0.064-0.129v-4.66c0-0.072,0.029-0.13,0.064-0.13
		h1.713c0.038,0,0.066,0.058,0.066,0.13V36.936z M174.817,31.355c0,0.04-0.058,0.074-0.131,0.074h-4.66
		c-0.072,0-0.13-0.034-0.13-0.074v-1.944c0-0.041,0.059-0.074,0.13-0.074h4.66c0.073,0,0.131,0.033,0.131,0.074V31.355z
		 M181.227,36.936c0,0.072-0.029,0.129-0.066,0.129h-1.712c-0.036,0-0.064-0.058-0.064-0.129v-4.66c0-0.072,0.029-0.13,0.064-0.13
		h1.712c0.037,0,0.066,0.058,0.066,0.13V36.936z M182.766,31.355c0,0.04-0.059,0.074-0.132,0.074h-4.658
		c-0.072,0-0.134-0.034-0.134-0.074v-1.944c0-0.041,0.062-0.074,0.134-0.074h4.658c0.073,0,0.132,0.033,0.132,0.074V31.355z
		 M178.791,13.772c0,1.358-1.103,2.459-2.46,2.459c-1.358,0-2.46-1.1-2.46-2.459c0-1.359,1.1-2.459,2.46-2.459
		C177.689,11.312,178.791,12.413,178.791,13.772z"/>
	<text transform="matrix(1 0 0 1 126.1787 84.459)" fill="#313741" font-family="'HelveticaNeue-Bold'" font-size="5.0151">Created by Cris Dobbins</text>
	<text transform="matrix(1 0 0 1 126.1787 89.4761)" fill="#313741" font-family="'HelveticaNeue-Bold'" font-size="5.0151">from the Noun Project</text>
</g>
<g>
	<path d="M56.293,201.721c-7.649,0-13.847,6.199-13.847,13.846s6.198,13.846,13.847,13.846c7.648,0,13.844-6.199,13.844-13.846
		S63.941,201.721,56.293,201.721z M56.313,220.209c-2.573,0-4.662-2.09-4.662-4.666s2.089-4.666,4.662-4.666
		c2.579,0,4.667,2.088,4.667,4.666C60.98,218.119,58.893,220.209,56.313,220.209z M56.293,198.072c-9.662,0-17.5,7.832-17.5,17.494
		s7.838,17.496,17.5,17.496s17.495-7.834,17.495-17.496S65.956,198.072,56.293,198.072z M56.391,232.168
		c-9.116,0-16.504-7.391-16.504-16.506c0-9.117,7.39-16.502,16.504-16.502c9.114,0,16.502,7.385,16.502,16.502
		C72.893,224.777,65.504,232.168,56.391,232.168z M56.293,213.078c-1.375,0-2.49,1.113-2.49,2.488c0,1.373,1.114,2.486,2.49,2.486
		c1.373,0,2.487-1.113,2.487-2.486C58.78,214.191,57.666,213.078,56.293,213.078z M56.293,216.627c-0.589,0-1.061-0.475-1.061-1.061
		s0.472-1.061,1.061-1.061c0.583,0,1.058,0.475,1.058,1.061S56.876,216.627,56.293,216.627z M73.568,173.465H38.693
		c-0.54,0-0.94,0.068-0.94,0.811l0.062,2.332v0.098l0.659,13.062c0,0.713,0.312,0.846,0.626,0.842
		c3.161,0,17.458,0.031,17.458,0.031s13.705,0.066,16.457-0.031c0.816,0.064,0.94-0.715,0.94-0.715l0.53-13.189v-0.031l0.061-2.236
		C74.546,173.693,74.109,173.465,73.568,173.465z M71.529,187.867h-30.94l-0.356-11.4h31.563L71.529,187.867z M80.939,177.354
		h-5.464h-0.004v-0.031h-0.015v0.031l-0.562,13.42c0,0-0.131,0.791-0.988,0.727c-2.902,0.098-17.345,0.031-17.345,0.031
		S41.494,191.5,38.165,191.5c-0.328,0-0.656-0.131-0.656-0.859l-0.693-13.287h-5.488c-0.769,0-1.389,0.615-1.389,1.371v60.033
		c0,0.76,0.62,1.373,1.389,1.373c0,0,9.979,0,9.991,0c0.232,0,0.333-0.15,0.333-0.15l0.787-1.037
		c0.197-0.328,0.263-0.27,0.733-0.264h26.061c0.406,0,0.538,0.033,0.801,0.396c0,0,0.7,0.906,0.683,0.906
		c0.078,0.137,0.293,0.148,0.293,0.148h9.931c0.766,0,1.39-0.611,1.39-1.373v-60.033C82.329,177.969,81.705,177.354,80.939,177.354z
		 M31.539,193.602c0-0.057,0.051-0.1,0.124-0.1h4.088c0.068,0,0.123,0.043,0.123,0.1v1.836c0,0.057-0.055,0.102-0.123,0.102h-4.088
		c-0.072,0-0.124-0.045-0.124-0.102V193.602z M31.539,197.707c0-0.055,0.051-0.1,0.124-0.1h4.088c0.068,0,0.123,0.045,0.123,0.1
		v1.838c0,0.053-0.055,0.098-0.123,0.098h-4.088c-0.072,0-0.124-0.045-0.124-0.098V197.707z M31.539,201.861
		c0-0.057,0.051-0.104,0.124-0.104h4.088c0.068,0,0.123,0.047,0.123,0.104v1.836c0,0.053-0.055,0.098-0.123,0.098h-4.088
		c-0.072,0-0.124-0.045-0.124-0.098V201.861z M31.46,206.15c0-0.115,0.114-0.211,0.256-0.211h3.982c0.137,0,0.25,0.096,0.25,0.211
		v1.65c0,0.117-0.113,0.207-0.25,0.207h-3.982c-0.141,0-0.256-0.09-0.256-0.207V206.15z M33.891,236.279
		c-1.59,0-2.885-1.293-2.885-2.879c0-1.594,1.295-2.885,2.885-2.885c1.588,0,2.884,1.289,2.884,2.885
		C36.773,234.986,35.478,236.279,33.891,236.279z M33.891,229.363c-1.59,0-2.885-1.291-2.885-2.879c0-1.592,1.295-2.883,2.885-2.883
		c1.588,0,2.884,1.289,2.884,2.883C36.773,228.072,35.478,229.363,33.891,229.363z M74.665,236.436H38.083v-43.215h36.583V236.436z
		 M79.26,235.998c0,0.256-0.326,0.465-0.727,0.465c-0.4,0-0.73-0.209-0.73-0.465v-4.67h1.458L79.26,235.998L79.26,235.998z
		 M81.109,229.678c0,0.346-0.298,0.629-0.668,0.629h-4.003c-0.368,0-0.667-0.283-0.667-0.629v-0.594
		c0-0.346,0.298-0.627,0.667-0.627h4.003c0.37,0,0.668,0.281,0.668,0.627V229.678z M77.623,227.584v-15.488
		c0-0.258,0.349-0.465,0.77-0.465c0.424,0,0.77,0.207,0.77,0.465v15.488H77.623z M78.83,185.406c-1.318,0-2.383-1.066-2.383-2.381
		c0-1.318,1.065-2.385,2.383-2.385c1.312,0,2.382,1.066,2.382,2.385C81.211,184.34,80.142,185.406,78.83,185.406z M77.815,183.633
		l1.988-0.004v0.432l-1.988,0.002V183.633z M79.79,183.229l-1.957,0.002l0.958-1.617L79.79,183.229z M45.705,178.098v3.707h-0.751
		v-3.707c0-0.178,0.166-0.316,0.374-0.316C45.538,177.781,45.705,177.92,45.705,178.098z M44.312,178.299v3.506h-0.749v-3.506
		c0-0.172,0.165-0.309,0.375-0.309C44.147,177.99,44.312,178.127,44.312,178.299z M42.921,180.119v1.686h-0.75v-1.686
		c0-0.139,0.143-0.223,0.376-0.223C42.782,179.896,42.921,179.98,42.921,180.119z M47.112,178.197v3.607h-0.75v-3.607
		c0-0.174,0.166-0.312,0.375-0.312C46.948,177.885,47.112,178.023,47.112,178.197z M48.54,177.916v3.889h-0.749v-3.889
		c0-0.182,0.167-0.328,0.373-0.328C48.372,177.588,48.54,177.734,48.54,177.916z M49.93,178.865v2.939h-0.749v-2.939
		c0-0.158,0.162-0.281,0.375-0.281C49.77,178.586,49.93,178.707,49.93,178.865z M51.323,179.971v1.834h-0.75v-1.834
		c0-0.143,0.146-0.232,0.371-0.232C51.178,179.74,51.323,179.826,51.323,179.971z M52.729,180.805v1h-0.749v-1
		c0-0.189,0.261-0.189,0.374-0.189C52.466,180.615,52.729,180.615,52.729,180.805z M54.824,180.838v0.967h-0.749v-0.967
		c0-0.188,0.257-0.188,0.376-0.188C54.573,180.648,54.824,180.648,54.824,180.838z M56.18,179.885v1.92h-0.749v-1.92
		c0-0.141,0.146-0.232,0.375-0.232C56.033,179.652,56.18,179.744,56.18,179.885z M57.606,178.615v3.189h-0.75v-3.189
		c0-0.164,0.167-0.293,0.377-0.293C57.442,178.322,57.606,178.451,57.606,178.615z M58.979,177.514v4.291H58.23v-4.291
		c0-0.191,0.169-0.346,0.374-0.346C58.811,177.168,58.979,177.322,58.979,177.514z M60.408,178.049v3.756h-0.751v-3.756
		c0-0.18,0.165-0.32,0.376-0.32C60.242,177.729,60.408,177.869,60.408,178.049z M61.815,178.164v3.641h-0.751v-3.641
		c0-0.174,0.166-0.312,0.378-0.312C61.652,177.852,61.815,177.99,61.815,178.164z M63.207,178.482v3.322h-0.75v-3.322
		c0-0.17,0.166-0.299,0.376-0.299C63.043,178.184,63.207,178.312,63.207,178.482z M64.616,178.033v3.771h-0.749v-3.771
		c0-0.178,0.167-0.322,0.374-0.322C64.447,177.711,64.616,177.855,64.616,178.033z M66.007,179.717v2.088h-0.749v-2.088
		c0-0.145,0.15-0.24,0.372-0.24C65.856,179.477,66.007,179.574,66.007,179.717z M67.388,180.471v1.334h-0.75v-1.334
		c0-0.096,0.066-0.207,0.374-0.207C67.323,180.264,67.388,180.377,67.388,180.471z M68.807,180.537v1.268h-0.752v-1.268
		c0-0.135,0.127-0.201,0.377-0.201C68.681,180.334,68.807,180.402,68.807,180.537z M70.162,180.938v0.867h-0.753v-0.867
		c0-0.184,0.235-0.184,0.377-0.184C69.926,180.754,70.162,180.754,70.162,180.938z M45.328,186.555
		c-0.208,0-0.374-0.139-0.374-0.316v-3.707h0.751v3.707C45.705,186.416,45.538,186.555,45.328,186.555z M43.938,186.346
		c-0.21,0-0.375-0.135-0.375-0.309v-3.506h0.749v3.506C44.312,186.211,44.147,186.346,43.938,186.346z M42.547,184.439
		c-0.233,0-0.376-0.082-0.376-0.223v-1.686h0.75v1.686C42.921,184.357,42.782,184.439,42.547,184.439z M46.737,186.449
		c-0.21,0-0.375-0.137-0.375-0.311v-3.607h0.75v3.607C47.112,186.312,46.948,186.449,46.737,186.449z M48.164,186.75
		c-0.206,0-0.373-0.148-0.373-0.328v-3.889h0.749v3.889C48.54,186.602,48.372,186.75,48.164,186.75z M49.556,185.75
		c-0.213,0-0.375-0.119-0.375-0.279v-2.939h0.749v2.939C49.93,185.631,49.77,185.75,49.556,185.75z M50.944,184.598
		c-0.226,0-0.371-0.09-0.371-0.23v-1.836h0.75v1.836C51.323,184.51,51.178,184.598,50.944,184.598z M52.355,183.723
		c-0.113,0-0.374,0-0.374-0.189v-1.002h0.749v1.002C52.729,183.723,52.466,183.723,52.355,183.723z M54.451,183.688
		c-0.119,0-0.376,0-0.376-0.188v-0.969h0.75v0.969C54.824,183.688,54.573,183.688,54.451,183.688z M55.806,184.684
		c-0.229,0-0.375-0.092-0.375-0.232v-1.92h0.749v1.92C56.18,184.592,56.033,184.684,55.806,184.684z M57.233,186.014
		c-0.209,0-0.377-0.129-0.377-0.293v-3.189h0.75v3.189C57.606,185.885,57.442,186.014,57.233,186.014z M58.604,187.168
		c-0.205,0-0.374-0.154-0.374-0.346v-4.291h0.749v4.291C58.979,187.014,58.811,187.168,58.604,187.168z M60.033,186.607
		c-0.211,0-0.376-0.139-0.376-0.32v-3.756h0.751v3.756C60.408,186.469,60.242,186.607,60.033,186.607z M61.442,186.486
		c-0.212,0-0.378-0.139-0.378-0.314v-3.641h0.751v3.641C61.815,186.348,61.652,186.486,61.442,186.486z M62.833,186.154
		c-0.21,0-0.376-0.133-0.376-0.301v-3.322h0.75v3.322C63.207,186.021,63.043,186.154,62.833,186.154z M64.241,186.625
		c-0.208,0-0.374-0.143-0.374-0.32v-3.773h0.749v3.773C64.616,186.482,64.447,186.625,64.241,186.625z M65.63,184.859
		c-0.222,0-0.372-0.098-0.372-0.24v-2.088h0.749v2.088C66.007,184.762,65.856,184.859,65.63,184.859z M67.013,184.072
		c-0.308,0-0.374-0.111-0.374-0.205v-1.336h0.75v1.336C67.388,183.961,67.323,184.072,67.013,184.072z M68.433,184.002
		c-0.25,0-0.377-0.068-0.377-0.201v-1.268h0.752v1.268C68.807,183.934,68.681,184.002,68.433,184.002z M69.787,183.582
		c-0.141,0-0.377,0-0.377-0.184v-0.867h0.753v0.867C70.162,183.582,69.926,183.582,69.787,183.582z"/>
	<text transform="matrix(1 0 0 1 19.0972 256.7969)" font-family="'HelveticaNeue-Bold'" font-size="3.7037">Created by Cris Dobbins</text>
	<text transform="matrix(1 0 0 1 19.0972 260.502)" font-family="'HelveticaNeue-Bold'" font-size="3.7037">from the Noun Project</text>
</g>
<g>
	<g id="Layer_1_1_">
		<path d="M66.033,329.995c-7.333,0-13.333,6-13.333,13.333s6,13.333,13.333,13.333c7.333,0,13.333-6,13.333-13.333
			S73.366,329.995,66.033,329.995z M66.033,345.995c-1.481,0-2.667-1.186-2.667-2.667s1.186-2.667,2.667-2.667
			s2.667,1.186,2.667,2.667S67.514,345.995,66.033,345.995z"/>
		<path d="M24.551,329.995c-7.333,0-13.333,6-13.333,13.333s6,13.333,13.333,13.333c7.333,0,13.333-6,13.333-13.333
			S31.884,329.995,24.551,329.995z M24.551,345.995c-1.481,0-2.667-1.186-2.667-2.667s1.186-2.667,2.667-2.667
			s2.667,1.186,2.667,2.667S26.033,345.995,24.551,345.995z"/>
		<g>
			<path d="M43.07,328.143v1.111h-0.741v-1.111c-0.741,0.148-1.481,0.89-1.481,1.778c0,1.037,0.814,1.852,1.852,1.852
				s1.852-0.814,1.852-1.777C44.551,329.105,43.811,328.365,43.07,328.143z"/>
		</g>
		<g>
			<path d="M48.255,328.143v1.111h-0.741v-1.111c-0.741,0.148-1.481,0.89-1.481,1.778c0,1.037,0.815,1.852,1.852,1.852
				c1.037,0,1.852-0.814,1.852-1.777C49.736,329.105,48.996,328.365,48.255,328.143z"/>
		</g>
		<g>
			<path d="M43.07,333.328v1.111h-0.741v-1.111c-0.741,0.148-1.481,0.889-1.481,1.777c0,1.037,0.814,1.853,1.852,1.853
				s1.852-0.815,1.852-1.778C44.551,334.291,43.811,333.55,43.07,333.328z"/>
		</g>
		<g>
			<path d="M48.255,333.328v1.111h-0.741v-1.111c-0.741,0.148-1.481,0.889-1.481,1.777c0,1.037,0.815,1.853,1.852,1.853
				c1.037,0,1.852-0.815,1.852-1.778C49.736,334.291,48.996,333.55,48.255,333.328z"/>
		</g>
		<g>
			<path d="M43.07,338.514v1.11h-0.741v-1.11c-0.741,0.147-1.481,0.889-1.481,1.777c0,1.037,0.814,1.852,1.852,1.852
				s1.852-0.814,1.852-1.777C44.551,339.477,43.811,338.735,43.07,338.514z"/>
		</g>
		<g>
			<path d="M48.255,338.514v1.11h-0.741v-1.11c-0.741,0.147-1.481,0.889-1.481,1.777c0,1.037,0.815,1.852,1.852,1.852
				c1.037,0,1.852-0.814,1.852-1.777C49.736,339.477,48.996,338.735,48.255,338.514z"/>
		</g>
		<g>
			<path d="M43.07,343.698v1.111h-0.741v-1.111c-0.741,0.148-1.481,0.889-1.481,1.778c0,1.037,0.814,1.852,1.852,1.852
				s1.852-0.814,1.852-1.778C44.551,344.661,43.811,343.921,43.07,343.698z"/>
		</g>
		<g>
			<path d="M48.255,343.698v1.111h-0.741v-1.111c-0.741,0.148-1.481,0.889-1.481,1.778c0,1.037,0.815,1.852,1.852,1.852
				c1.037,0,1.852-0.814,1.852-1.778C49.736,344.661,48.996,343.921,48.255,343.698z"/>
		</g>
		<polygon points="44.551,354.439 43.07,354.439 43.07,349.254 42.329,349.254 42.329,354.439 40.848,354.439 40.848,355.18 
			42.329,355.18 42.329,356.661 43.07,356.661 43.07,355.18 44.551,355.18 		"/>
		<polygon points="49.736,350.735 48.255,350.735 48.255,349.254 47.514,349.254 47.514,350.735 46.033,350.735 46.033,351.477 
			47.514,351.477 47.514,356.661 48.255,356.661 48.255,351.477 49.736,351.477 		"/>
		<polygon points="52.699,361.847 46.773,361.847 46.773,359.624 43.811,359.624 43.811,361.847 37.884,361.847 37.884,363.328 
			43.811,363.328 43.811,365.549 46.773,365.549 46.773,363.328 52.699,363.328 		"/>
		<rect x="11.958" y="322.587" width="3.704" height="3.704"/>
		<rect x="17.144" y="322.587" width="3.704" height="3.704"/>
		<rect x="22.329" y="322.587" width="3.704" height="3.704"/>
		<rect x="27.514" y="322.587" width="3.704" height="3.704"/>
		<rect x="32.699" y="322.587" width="3.704" height="3.704"/>
		<rect x="54.181" y="322.587" width="3.704" height="3.704"/>
		<rect x="59.366" y="322.587" width="3.704" height="3.704"/>
		<rect x="64.551" y="322.587" width="3.704" height="3.704"/>
		<rect x="69.736" y="322.587" width="3.704" height="3.704"/>
		<rect x="74.921" y="322.587" width="3.704" height="3.704"/>
		<rect x="22.329" y="361.105" width="4.444" height="2.963"/>
		<rect x="16.403" y="361.105" width="4.445" height="2.963"/>
		<rect x="28.255" y="361.105" width="4.444" height="2.963"/>
		<rect x="63.811" y="361.105" width="4.444" height="2.963"/>
		<rect x="57.884" y="361.105" width="4.445" height="2.963"/>
		<rect x="69.736" y="361.105" width="4.444" height="2.963"/>
		<path d="M80.848,320.958v46.665H9.736v-46.665H80.848 M82.329,319.477H8.255v49.629h74.074V319.477L82.329,319.477z"/>
	</g>
	<g id="Layer_2">
	</g>
	<text transform="matrix(1 0 0 1 8.2549 400.7354)" font-family="'HelveticaNeue-Bold'" font-size="3.7037">Created by Adomas Tautkus</text>
	<text transform="matrix(1 0 0 1 8.2549 404.4395)" font-family="'HelveticaNeue-Bold'" font-size="3.7037">from the Noun Project</text>
</g>
<g>
	<g id="Capa_69_1_">
		<g>
			<circle fill="#008CDC" cx="28.471" cy="-112.078" r="7.329"/>
			<circle fill="#313741" cx="-6.667" cy="-112.078" r="5.131"/>
			<circle fill="#313741" cx="-6.667" cy="-130.757" r="5.131"/>
			<circle fill="#313741" cx="-6.667" cy="-93.401" r="5.131"/>
			<path fill="#313741" d="M18.886-109.827h-3.167c-2.188,0-3.969,2.302-3.969,5.129v6.968c0,1.944-1.583,3.526-3.527,3.526h-5.01
				L4.908-95.9c0.314-0.313,0.314-0.823,0-1.134c-0.314-0.315-0.822-0.315-1.135,0l-3.066,3.068
				c-0.074,0.073-0.133,0.166-0.173,0.261c-0.082,0.199-0.082,0.42,0,0.614c0.041,0.096,0.099,0.188,0.173,0.261l3.066,3.068
				c0.157,0.159,0.362,0.236,0.567,0.236s0.411-0.078,0.567-0.236c0.314-0.314,0.314-0.822,0-1.134l-1.696-1.695h5.01
				c2.829,0,5.132-2.302,5.132-5.131v-6.968c0-1.913,1.083-3.525,2.364-3.525h3.167c0.443,0,0.803-0.359,0.803-0.802
				C19.687-109.462,19.33-109.827,18.886-109.827z"/>
			<path fill="#313741" d="M18.886-112.882H3.212l1.696-1.697c0.314-0.313,0.314-0.821,0-1.134c-0.314-0.314-0.822-0.314-1.135,0
				l-3.066,3.065c-0.074,0.074-0.133,0.164-0.173,0.261c-0.082,0.197-0.082,0.417,0,0.614c0.041,0.097,0.099,0.188,0.173,0.261
				l3.066,3.068c0.157,0.157,0.362,0.235,0.567,0.235s0.411-0.078,0.567-0.235c0.314-0.315,0.314-0.823,0-1.135l-1.696-1.693h15.674
				c0.444,0,0.803-0.36,0.803-0.804C19.688-112.518,19.33-112.882,18.886-112.882z"/>
			<path fill="#313741" d="M18.886-115.936h-3.167c-1.281,0-2.364-1.616-2.364-3.526v-6.967c0-2.829-2.302-5.131-5.132-5.131H3.212
				l1.696-1.697c0.314-0.313,0.314-0.821,0-1.135c-0.314-0.314-0.822-0.314-1.135,0l-3.066,3.066
				c-0.074,0.074-0.133,0.163-0.173,0.261c-0.082,0.196-0.082,0.417,0,0.614c0.041,0.097,0.099,0.187,0.173,0.261l3.066,3.065
				c0.157,0.157,0.362,0.236,0.567,0.236s0.411-0.079,0.567-0.236c0.314-0.313,0.314-0.821,0-1.135l-1.696-1.696h5.01
				c1.944,0,3.526,1.583,3.526,3.525v6.967c0,2.829,1.781,5.131,3.97,5.131h3.167c0.443,0,0.803-0.359,0.803-0.803
				C19.688-115.577,19.33-115.936,18.886-115.936z"/>
			<circle fill="#313741" cx="63.38" cy="-112.078" r="5.131"/>
			<circle fill="#313741" cx="63.38" cy="-130.757" r="5.131"/>
			<circle fill="#313741" cx="63.38" cy="-93.401" r="5.131"/>
			<path fill="#313741" d="M56.183-93.708c-0.042-0.097-0.101-0.188-0.172-0.261l-3.068-3.065c-0.314-0.317-0.822-0.317-1.135,0
				c-0.314,0.312-0.314,0.822,0,1.134l1.697,1.696h-5.01c-1.946,0-3.524-1.581-3.524-3.525v-6.968c0-2.829-1.781-5.131-3.97-5.131
				h-3.167c-0.443,0-0.803,0.359-0.803,0.802c0,0.443,0.36,0.802,0.803,0.802H41c1.284,0,2.361,1.617,2.361,3.525v6.968
				c0,2.829,2.303,5.131,5.133,5.131h5.01l-1.697,1.693c-0.314,0.316-0.314,0.824,0,1.136c0.16,0.159,0.362,0.236,0.57,0.236
				c0.208,0,0.411-0.077,0.568-0.236l3.068-3.068c0.073-0.073,0.132-0.164,0.174-0.262C56.262-93.29,56.262-93.511,56.183-93.708z"
				/>
			<path fill="#313741" d="M56.007-112.647l-3.067-3.065c-0.314-0.314-0.821-0.314-1.134,0c-0.316,0.312-0.316,0.821,0,1.134
				l1.696,1.697H37.828c-0.444,0-0.804,0.359-0.804,0.803s0.36,0.804,0.804,0.804h15.674l-1.697,1.695
				c-0.316,0.315-0.316,0.823,0,1.135c0.158,0.156,0.362,0.235,0.569,0.235s0.411-0.079,0.567-0.235l3.067-3.069
				c0.073-0.072,0.131-0.163,0.174-0.26c0.08-0.197,0.08-0.418,0-0.615C56.141-112.483,56.081-112.574,56.007-112.647z"/>
			<path fill="#313741" d="M56.007-131.325l-3.067-3.065c-0.314-0.314-0.821-0.314-1.134,0c-0.316,0.313-0.316,0.822,0,1.135
				l1.696,1.697h-5.01c-2.831,0-5.133,2.302-5.133,5.131v6.966c0,1.912-1.083,3.526-2.363,3.526h-3.167
				c-0.444,0-0.803,0.358-0.803,0.802c0,0.444,0.359,0.804,0.803,0.804h3.167c2.189,0,3.97-2.302,3.97-5.131v-6.966
				c0-1.944,1.581-3.526,3.526-3.526h5.01l-1.696,1.696c-0.316,0.313-0.316,0.822,0,1.135c0.158,0.157,0.362,0.235,0.568,0.235
				c0.207,0,0.411-0.078,0.567-0.235l3.067-3.065c0.074-0.075,0.132-0.164,0.174-0.262c0.081-0.195,0.081-0.418,0-0.613
				C56.141-131.162,56.081-131.25,56.007-131.325z"/>
		</g>
	</g>
	<text transform="matrix(1 0 0 1 -16.2583 -51.8486)" fill="#969CA8" font-family="'HelveticaNeue-Bold'" font-size="4.4616">Created by Juan Pablo Bravo</text>
	<text transform="matrix(1 0 0 1 -16.2583 -47.3862)" fill="#969CA8" font-family="'HelveticaNeue-Bold'" font-size="4.4616">from the Noun Project</text>
</g>
<text transform="matrix(1 0 0 1 400.2891 401.0498)" font-family="'HelveticaNeue-Bold'" font-size="3.7037">Created by Travis J. Lee</text>
<text transform="matrix(1 0 0 1 400.2891 404.7539)" font-family="'HelveticaNeue-Bold'" font-size="3.7037">from the Noun Project</text>
<g id="Capa_69">
	<g>
		<circle cx="563.113" cy="352.375" r="6.084"/>
		<circle cx="533.945" cy="352.375" r="4.26"/>
		<circle cx="533.945" cy="336.869" r="4.26"/>
		<circle cx="533.945" cy="367.88" r="4.259"/>
		<path d="M555.156,354.244h-2.629c-1.816,0-3.295,1.91-3.295,4.258v5.785c0,1.613-1.312,2.926-2.928,2.926h-4.16l1.408-1.408
			c0.262-0.26,0.262-0.682,0-0.941c-0.26-0.262-0.682-0.262-0.941,0l-2.545,2.547c-0.062,0.061-0.111,0.139-0.145,0.217
			c-0.068,0.166-0.068,0.35,0,0.51c0.033,0.08,0.082,0.156,0.145,0.217l2.545,2.547c0.131,0.133,0.301,0.197,0.471,0.197
			s0.342-0.064,0.471-0.197c0.262-0.26,0.262-0.682,0-0.941l-1.408-1.406h4.16c2.348,0,4.26-1.912,4.26-4.26v-5.785
			c0-1.588,0.898-2.926,1.963-2.926h2.629c0.367,0,0.666-0.297,0.666-0.666S555.525,354.244,555.156,354.244z"/>
		<path d="M555.156,351.707h-13.012l1.408-1.408c0.262-0.26,0.262-0.682,0-0.941c-0.26-0.26-0.682-0.26-0.941,0l-2.545,2.545
			c-0.062,0.062-0.111,0.137-0.145,0.217c-0.068,0.164-0.068,0.348,0,0.51c0.033,0.082,0.082,0.156,0.145,0.217l2.545,2.547
			c0.131,0.131,0.301,0.195,0.471,0.195s0.342-0.064,0.471-0.195c0.262-0.262,0.262-0.684,0-0.941l-1.408-1.406h13.012
			c0.369,0,0.668-0.299,0.668-0.666C555.824,352.01,555.525,351.707,555.156,351.707z"/>
		<path d="M555.156,349.172h-2.629c-1.062,0-1.961-1.34-1.961-2.926v-5.783c0-2.35-1.912-4.26-4.26-4.26h-4.162l1.408-1.408
			c0.262-0.26,0.262-0.682,0-0.943c-0.26-0.26-0.682-0.26-0.941,0l-2.545,2.547c-0.062,0.061-0.111,0.135-0.145,0.217
			c-0.068,0.162-0.068,0.346,0,0.51c0.033,0.08,0.082,0.154,0.145,0.217l2.545,2.545c0.131,0.131,0.301,0.195,0.471,0.195
			s0.342-0.064,0.471-0.195c0.262-0.26,0.262-0.682,0-0.943l-1.408-1.408h4.16c1.613,0,2.928,1.314,2.928,2.928v5.783
			c0,2.348,1.479,4.26,3.295,4.26h2.629c0.367,0,0.666-0.299,0.666-0.666C555.822,349.471,555.525,349.172,555.156,349.172z"/>
		<circle cx="592.094" cy="352.375" r="4.26"/>
		<circle cx="592.094" cy="336.869" r="4.26"/>
		<circle cx="592.094" cy="367.88" r="4.259"/>
		<path d="M586.119,367.625c-0.035-0.08-0.084-0.156-0.145-0.217l-2.545-2.545c-0.262-0.264-0.684-0.264-0.943,0
			c-0.26,0.26-0.26,0.682,0,0.941l1.408,1.408h-4.158c-1.615,0-2.926-1.312-2.926-2.928v-5.783c0-2.35-1.479-4.26-3.295-4.26h-2.629
			c-0.369,0-0.666,0.297-0.666,0.664c0,0.369,0.297,0.666,0.666,0.666h2.629c1.064,0,1.959,1.342,1.959,2.928v5.783
			c0,2.35,1.912,4.26,4.262,4.26h4.158l-1.408,1.406c-0.26,0.262-0.26,0.684,0,0.943c0.133,0.131,0.301,0.195,0.473,0.195
			c0.174,0,0.342-0.064,0.473-0.195l2.547-2.547c0.061-0.061,0.109-0.137,0.145-0.217
			C586.184,367.973,586.184,367.789,586.119,367.625z"/>
		<path d="M585.973,351.902l-2.547-2.545c-0.26-0.26-0.682-0.26-0.941,0c-0.262,0.26-0.262,0.682,0,0.941l1.41,1.408h-13.014
			c-0.367,0-0.666,0.299-0.666,0.668c0,0.367,0.299,0.666,0.666,0.666h13.012l-1.408,1.408c-0.262,0.262-0.262,0.684,0,0.941
			c0.131,0.131,0.301,0.195,0.473,0.195s0.34-0.064,0.471-0.195l2.547-2.547c0.059-0.061,0.107-0.135,0.143-0.217
			c0.066-0.162,0.066-0.346,0-0.51C586.084,352.039,586.033,351.965,585.973,351.902z"/>
		<path d="M585.973,336.398l-2.547-2.545c-0.26-0.262-0.682-0.262-0.941,0c-0.262,0.26-0.262,0.682,0,0.941l1.41,1.408h-4.16
			c-2.35,0-4.26,1.912-4.26,4.26v5.783c0,1.588-0.898,2.928-1.963,2.928h-2.629c-0.367,0-0.666,0.297-0.666,0.666
			c0,0.367,0.299,0.666,0.666,0.666h2.629c1.818,0,3.297-1.91,3.297-4.26v-5.783c0-1.613,1.311-2.926,2.926-2.926h4.16l-1.41,1.408
			c-0.262,0.26-0.262,0.682,0,0.941c0.133,0.131,0.301,0.195,0.473,0.195s0.34-0.064,0.471-0.195l2.547-2.545
			c0.061-0.061,0.109-0.135,0.145-0.217c0.066-0.162,0.066-0.348,0-0.51C586.084,336.533,586.033,336.459,585.973,336.398z"/>
	</g>
</g>
<text transform="matrix(1 0 0 1 525.9824 402.375)" font-family="'HelveticaNeue-Bold'" font-size="3.7037">Created by Juan Pablo Bravo</text>
<text transform="matrix(1 0 0 1 525.9824 406.0781)" font-family="'HelveticaNeue-Bold'" font-size="3.7037">from the Noun Project</text>
<rect x="-257" y="-199" fill="#008CDC" width="71" height="71"/>
<rect x="-257" y="-128" fill="#74187F" width="71" height="72"/>
<rect x="-169" y="-200" fill="#F1F4F6" width="71" height="71"/>
<rect x="-257" y="-57" fill="#3A1940" width="71" height="71"/>
<rect x="-169" y="-130" fill="#E9E9E9" width="71" height="71"/>
<rect x="-169" y="-59" fill="#969CA8" width="71" height="71"/>
<rect x="-169" y="12" fill="#4C5464" width="71" height="71"/>
<path fill="#313741" d="M229.548-78.187h-9.811v-42.498c0-1.144-0.514-2.167-1.326-2.854c-0.683-0.827-1.72-1.354-2.883-1.354
	h-77.529c-2.069,0-3.734,1.672-3.734,3.735v42.505c0,0.16,0.013,0.312,0.032,0.464h-9.847v1.866c0,1.007,0.492,1.92,1.289,2.591
	c0.828,0.982,2.214,1.624,3.787,1.624h95.426c2.543,0,4.601-1.671,4.601-3.741v-1.865 M137.531-121.159h78.463v40.173h-78.463
	V-121.159z M176.761-123.956c0.522,0,0.937,0.419,0.937,0.93c0,0.516-0.414,0.943-0.937,0.943c-0.51,0-0.931-0.427-0.931-0.943
	C175.83-123.535,176.251-123.956,176.761-123.956z M169.757-76.687v-1.127h14.01v1.127H169.757z"/>
<text transform="matrix(1 0 0 1 122.1699 -59.7363)" font-family="'HelveticaNeue-Bold'" font-size="2.8417">Created by Wilson Joseph</text>
<text transform="matrix(1 0 0 1 122.1699 -56.8945)" font-family="'HelveticaNeue-Bold'" font-size="2.8417">from the Noun Project</text>
<g>
	<path fill="#008CDC" d="M191.429-114.356h-3.982c-0.375,0-0.676,0.301-0.676,0.676v1.391h-16.077v-1.391
		c0-0.375-0.3-0.676-0.676-0.676h-3.944c-0.376,0-0.676,0.301-0.676,0.676v4.095c0,0.376,0.3,0.676,0.676,0.676h3.982
		c0.375,0,0.676-0.3,0.676-0.676v-1.39h7.399c-0.075,1.652-4.094,9.428-6.649,14.01c-0.15,0.263-0.075,0.601,0.15,0.826
		c2.292,1.953,2.855,3.87,3.005,4.846h-0.864c-0.376,0-0.676,0.3-0.676,0.676v3.305c0,0.375,0.3,0.676,0.676,0.676h9.992
		c0.375,0,0.676-0.301,0.676-0.676v-3.305c0-0.376-0.301-0.676-0.676-0.676h-0.864c0.149-0.977,0.713-2.893,3.004-4.846
		c0.225-0.187,0.301-0.563,0.15-0.826c-2.555-4.583-6.573-12.395-6.649-14.01h7.363v1.39c0,0.376,0.3,0.676,0.676,0.676h3.982
		c0.375,0,0.676-0.3,0.676-0.676v-4.095C192.104-114.055,191.804-114.356,191.429-114.356z M169.379-110.262h-2.667v-2.779h2.667
		V-110.262z M178.77-99.256c0.489,0,0.864,0.376,0.864,0.864s-0.375,0.864-0.864,0.864c-0.488,0-0.864-0.376-0.864-0.864
		C177.906-98.842,178.319-99.256,178.77-99.256z M183.127-88.025h-8.677v-1.991h0.901h6.874h0.902V-88.025z M181.587-91.331h-5.634
		c-0.15-1.09-0.714-3.268-3.081-5.484c0.902-1.653,3.606-6.611,5.222-10.292v6.649c-0.864,0.263-1.502,1.089-1.502,2.066
		c0,1.202,0.977,2.179,2.178,2.179s2.178-0.977,2.178-2.179c0-0.977-0.638-1.765-1.502-2.066v-6.686
		c1.653,3.681,4.321,8.639,5.222,10.33C182.301-94.599,181.738-92.42,181.587-91.331z M190.79-110.262h-2.667v-1.239
		c0-0.038,0-0.076,0-0.113c0-0.038,0-0.076,0-0.112v-1.277h2.667V-110.262z"/>
</g>
<g>
	<g>
		<path fill="#313741" d="M348.95,21.924c0.785,2.902-0.547,6.231-3.014,7.219c-15.289,6.133-31.559,6.322-46.986,0.546
			c-2.49-0.931-3.898-4.229-3.18-7.147l0,0c0.72-2.924,3.072-4.467,5.285-3.643c13.963,5.228,28.688,5.057,42.527-0.494
			C345.774,17.529,348.161,19.019,348.95,21.924L348.95,21.924z"/>
		<g>
			<path fill="#313741" d="M296.802,10.872c1.056,0.502,0.936,1.401,0.853,2.009c-0.086,0.639,1.294,0.747,1.708,0.582
				c1.137-0.456,2.408-0.966,3.504-0.712c0.887,0.206,1.253,0.968,1.613,1.719c0.169,0.352,0.658,1.434,2.151,0.529
				c0.979-0.594,2.132-1.161,3.229-1.022c0.998,0.125,1.506,0.927,2.13,1.613c1.052,1.157,1.914,0.542,2.298,0.271
				c0.887-0.629,1.874-1.331,2.993-1.285c1.048,0.041,1.79,0.748,2.521,1.443c1.267,1.206,1.628,0.863,2.656-0.022
				c0.8-0.688,1.612-1.387,2.692-1.431c1.137-0.046,2.154,0.633,3.068,1.242c1.516,1.012,1.861,0.668,2.681-0.289
				c0.628-0.735,1.267-1.48,2.298-1.606c1.126-0.137,2.278,0.458,3.309,0.989c1.136,0.586,1.996,0.378,2.541-0.556
				c0.436-0.745,0.877-1.5,1.805-1.696c1.14-0.24,2.438,0.273,3.596,0.73c0.438,0.172,2.191,0.582,2.098-0.621
				c-0.047-0.604-0.012-1.505,1.17-1.948c0.152-0.058,0.329-0.074,0.51-0.056c-1.094-1.758-2.928-2.521-4.645-1.836
				c-13.84,5.551-28.564,5.722-42.527,0.494c-1.564-0.583-3.197,0.018-4.275,1.451C296.787,10.867,296.794,10.869,296.802,10.872z"
				/>
			<path fill="#008CDC" d="M357.439,14.205c-1.026-2.8-4.171-4.226-7.067-3.373c-0.409,0.121-1.188,0.3-1.076,0.539
				c-0.023-0.002-0.046-0.004-0.066-0.004c-0.416,0.028-0.511,1.235-0.511,1.235c-0.03,0.123-0.03,0.294-0.021,0.551
				c0.027,0.737,0.066,1.878-1.74,2.384c-0.9,0.252-2.027-0.202-3.107-0.638c-1.686-0.68-2.202-0.682-2.802,0.409
				c-0.471,0.85-1.015,1.835-2.235,2.048c-1.082,0.187-2.203-0.408-3.273-0.972c-1.37-0.725-2.021-0.695-2.818,0.271
				c-0.654,0.797-1.413,1.72-2.654,1.827c-1.164,0.098-2.185-0.602-3.156-1.269c-1.501-1.032-1.805-0.882-2.876,0.071
				c-0.827,0.735-1.784,1.585-3.032,1.585c-1.226,0-2.104-0.864-2.863-1.613c-0.318-0.312-1.141-1.088-2.507-0.036
				c-0.915,0.705-1.915,1.396-3.041,1.302c-1.22-0.104-1.901-1.041-2.491-1.85c-0.238-0.328-0.787-1.064-2.463-0.221
				c-1.062,0.535-2.127,1.187-3.175,0.995c-1.194-0.22-1.647-1.225-2.037-2.093c-0.145-0.321-0.812-1.173-2.462-0.375
				c-1.031,0.499-2.168,0.889-3.031,0.61c-1.729-0.558-1.533-1.765-1.42-2.469c0.072-0.446,0.025-0.838-0.072-0.942
				c0.034-0.14-0.565-0.363-0.556-0.467c-0.423-0.108-0.22-0.113-0.643-0.227c-2.916-0.786-6.027,0.711-6.988,3.536
				c-0.961,2.818,0.885,5.994,4.168,6.881c0.963,0.261,1.928,0.509,2.896,0.744c0.035-0.232,0.082-0.465,0.139-0.696
				c0.72-2.926,2.886-4.892,5.391-4.892c0.568,0,1.132,0.103,1.677,0.305c6.582,2.465,13.567,4.399,20.373,4.399
				c0,0,0.001,0,0.002,0c7.241,0,14.237-2.097,21.178-4.881c0.576-0.23,1.174-0.347,1.779-0.347c2.453,0,4.621,1.916,5.395,4.767
				c0.064,0.241,0.118,0.484,0.159,0.728c1.01-0.268,2.017-0.551,3.021-0.849C356.694,20.218,358.466,17.001,357.439,14.205z"/>
		</g>
	</g>
	<g>
		<path fill="#313741" d="M314.922-3.536c0.779-1.753,0.974-3.701,0.39-5.649c-0.39-1.559-2.143-2.728-3.701-1.948
			c0,0-0.194,0.194-0.194,0.389c0.194,1.559,0.974,2.922,0.585,4.48c-0.585,1.948-1.947,3.312-2.532,5.259
			c-0.585,1.753-0.39,3.702,0.389,5.26c0.537,0.895,1.114,1.646,3.015,1.646c0.469,0,0.848-0.38,0.848-0.848
			c0-0.131-1.434-3.417-0.551-5.279C313.753-1.394,314.532-2.367,314.922-3.536z"/>
		<path fill="#313741" d="M334.874-3.536c0.78-1.753,0.974-3.701,0.389-5.649c-0.389-1.559-2.143-2.728-3.7-1.948
			c0,0-0.194,0.194-0.194,0.389c0.194,1.559,0.974,2.922,0.585,4.48c-0.585,1.948-1.949,3.312-2.533,5.259
			c-0.585,1.753-0.39,3.702,0.39,5.26c0.537,0.895,1.115,1.646,3.014,1.646c0.469,0,0.848-0.38,0.848-0.848
			c0-0.131-1.434-3.417-0.551-5.279C333.707-1.394,334.485-2.367,334.874-3.536z"/>
		<path fill="#313741" d="M325.829-4.705c0.391-1.169,0.197-2.338,0.197-3.506c0-0.779-0.197-1.364-0.391-2.143
			c-0.018-0.076-0.069-0.155-0.103-0.226c-0.035-0.075-0.071-0.149-0.107-0.223c-0.075-0.147-0.156-0.292-0.246-0.431
			c-0.185-0.284-0.409-0.54-0.659-0.769c-0.251-0.231-0.527-0.441-0.826-0.604c-0.289-0.156-0.607-0.264-0.936-0.278
			c-0.263-0.011-0.527,0.023-0.784,0.078c-0.252,0.054-0.522,0.104-0.726,0.276c-0.049,0.042-0.095,0.093-0.129,0.149
			c-0.076,0.122-0.055,0.238-0.014,0.368c0.025,0.082,0.035,0.167,0.058,0.249c0.026,0.103,0.053,0.204,0.08,0.306
			c0.055,0.207,0.111,0.412,0.169,0.618c0.116,0.418,0.235,0.835,0.346,1.254c0.108,0.408,0.211,0.819,0.283,1.235
			c0.072,0.41,0.109,0.826,0.069,1.241c-0.041,0.439-0.171,0.861-0.317,1.275c-0.018,0.05-0.032,0.105-0.055,0.154
			c-0.974,2.143-2.338,3.896-2.922,6.233c-0.584,2.338-0.584,5.064,0.975,7.013c0.779,0.778,2.143,1.559,3.312,0.778
			c0.194-0.194,0.39-0.39,0.39-0.584c0-0.39,0-0.584-0.195-0.974c-0.779-1.753-0.974-3.702-0.391-5.454
			C323.882-0.809,325.247-2.562,325.829-4.705z"/>
	</g>
</g>
<text transform="matrix(1 0 0 1 297.4805 67.1113)" font-family="'HelveticaNeue-Bold'" font-size="3.7037">Created by Andrew Cameron</text>
<text transform="matrix(1 0 0 1 302.0391 56.8145)" font-family="'HelveticaNeue-Bold'" font-size="3.7037">from the Noun Project</text>
<g>
	<circle fill="#008CDC" cx="204.637" cy="14.776" r="4.542"/>
	<circle fill="#008CDC" cx="148.024" cy="14.778" r="4.542"/>
</g>
</svg>
