<?xml version="1.0" encoding="utf-8"?>
<!-- Generator: Adobe Illustrator 16.0.0, SVG Export Plug-In . SVG Version: 6.00 Build 0)  -->
<!DOCTYPE svg PUBLIC "-//W3C//DTD SVG 1.1//EN" "http://www.w3.org/Graphics/SVG/1.1/DTD/svg11.dtd">
<svg version="1.1" id="Layer_1" xmlns="http://www.w3.org/2000/svg" xmlns:xlink="http://www.w3.org/1999/xlink" x="0px" y="0px"
	 width="81px" height="48px" viewBox="0 0 81 48" enable-background="new 0 0 81 48" xml:space="preserve">
<path fill="#98A5AF" d="M473.418,486.309h-0.422c-0.934,0-1.691,0.681-1.691,1.522v21.489c0,0.842,0.758,1.521,1.691,1.521h0.422
	c0.934,0,1.689-0.68,1.689-1.521v-21.489C475.107,486.989,474.352,486.309,473.418,486.309z"/>
<path fill="#98A5AF" d="M479.102,488.02h-0.951c-0.84,0-1.52,0.681-1.52,1.521v17.117c0,0.84,0.68,1.521,1.52,1.521h0.951
	c0.84,0,1.523-0.682,1.523-1.521v-17.117C480.623,488.701,479.941,488.02,479.102,488.02z"/>
<polygon fill="#98A5AF" points="483.287,496.674 483.287,494.154 481.701,494.154 481.701,494.866 481.701,501.762 483.256,501.762 
	483.256,499.764 487.852,499.764 487.852,496.674 "/>
<path fill="#98A5AF" d="M433.67,486.309h-0.424c-0.934,0-1.689,0.681-1.689,1.522v21.489c0,0.842,0.756,1.521,1.689,1.521h0.424
	c0.932,0,1.691-0.68,1.691-1.521v-21.489C435.359,486.989,434.602,486.309,433.67,486.309z"/>
<path fill="#98A5AF" d="M428.514,488.971h-0.951c-0.84,0-1.521,0.682-1.521,1.521v17.117c0,0.842,0.68,1.521,1.521,1.521h0.951
	c0.838,0,1.521-0.68,1.521-1.521v-17.117C430.033,489.652,429.352,488.971,428.514,488.971z"/>
<polygon fill="#98A5AF" points="423.41,496.674 418.814,496.674 418.814,499.764 423.379,499.764 423.379,501.762 424.961,501.762 
	424.961,494.154 423.41,494.154 "/>
<polygon fill="#0E84E5" points="468.799,496.642 442.207,496.642 441.381,496.642 437.643,496.642 437.643,494.17 436.057,494.17 
	436.057,494.486 436.057,501.84 437.611,501.84 437.611,499.748 441.381,499.748 442.207,499.748 468.768,499.748 468.768,501.762 
	470.354,501.762 470.354,494.154 468.799,494.154 "/>
<path stroke="#000000" stroke-width="2.4236" stroke-miterlimit="10" d="M425.504,442.356"/>
<path fill="none" d="M411.066,406.346v1.328h-4.938v-2.021h-14.576v2.021h-2.02v14.936h2.02v2.078h14.574v-2.078h4.939v1.371
	c1.107-0.374,2.053-0.889,2.807-1.559c1.443-1.283,2.27-3.309,2.475-6.023h-1.916v-4.936h1.541c-0.406-1.518-1.102-2.724-2.094-3.59
	C413.123,407.217,412.176,406.713,411.066,406.346z"/>
<path d="M425.682,433.361c1.209,1.051,2.207,2.309,2.971,3.739c0.77,1.438,1.336,3.051,1.691,4.786
	c0.355,1.754,0.604,3.535,0.734,5.291c0.066,1.125,0.131,2.442,0.199,3.96c0.062,1.522,0.18,3.103,0.348,4.689
	c0.168,1.601,0.438,3.14,0.805,4.575c0.094,0.36,0.201,0.703,0.316,1.039h0.957c-0.15-0.402-0.289-0.818-0.4-1.262
	c-0.359-1.393-0.623-2.888-0.783-4.446c-0.166-1.57-0.283-3.129-0.346-4.636c-0.068-1.521-0.133-2.844-0.201-3.979
	c-0.133-1.801-0.385-3.622-0.75-5.41c-0.371-1.822-0.971-3.514-1.779-5.03c-0.814-1.527-1.881-2.871-3.176-3.995
	c-0.742-0.646-1.615-1.193-2.586-1.652v0.992C424.426,432.408,425.096,432.852,425.682,433.361z"/>
<path d="M420.102,395.061c1.842,0.742,3.498,1.699,4.951,2.848v-0.434h0.875c-1.598-1.321-3.43-2.417-5.488-3.247
	c-1.25-0.503-2.582-0.882-3.988-1.144V394C417.736,394.25,418.959,394.601,420.102,395.061z"/>
<path d="M429.402,423.228c-1.279,2.221-3.197,4.059-5.721,5.488v1.022c2.881-1.541,5.064-3.57,6.498-6.062
	c1.234-2.14,2.037-4.581,2.42-7.277h-0.906C431.318,418.932,430.559,421.222,429.402,423.228z"/>
<rect x="375.986" y="392.659" width="35.527" height="0.897"/>
<rect x="373.068" y="395.576" width="0.896" height="65.865"/>
<path d="M417.795,455.849c-0.197-3.09-0.498-6.103-0.895-8.959c-0.223-1.546-0.557-2.921-0.988-4.14h-0.955
	c0.465,1.23,0.82,2.646,1.055,4.265c0.393,2.832,0.691,5.823,0.887,8.892c0.129,2.014,0.4,3.863,0.809,5.535h0.934
	C418.215,459.765,417.926,457.901,417.795,455.849z"/>
<rect x="388.637" y="438.711" width="0.896" height="22.73"/>
<path d="M412.58,437.812c-1.82-1.338-4.477-2.019-7.926-2.019h-13.102v0.898h13.1c2.926,0,5.219,0.505,6.861,1.493v-0.373H412.58z"
	/>
<rect x="375.986" y="463.461" width="10.631" height="0.898"/>
<rect x="421.389" y="463.461" width="10.645" height="0.898"/>
<path d="M413.879,407.873c0.992,0.865,1.688,2.072,2.096,3.59h0.936c-0.443-1.805-1.258-3.234-2.441-4.266
	c-0.91-0.793-2.051-1.391-3.402-1.799v0.948C412.176,406.713,413.123,407.217,413.879,407.873z"/>
<rect x="391.553" y="424.688" width="14.574" height="0.896"/>
<rect x="391.553" y="404.756" width="14.574" height="0.896"/>
<rect x="388.637" y="407.674" width="0.896" height="14.936"/>
<path d="M413.875,422.422c-0.754,0.67-1.699,1.185-2.809,1.559v0.949c1.354-0.416,2.494-1.027,3.406-1.837
	c1.633-1.454,2.564-3.703,2.779-6.694h-0.904C416.143,419.113,415.316,421.139,413.875,422.422z"/>
<rect x="371.945" y="391.536" width="3.143" height="3.144"/>
<rect x="412.412" y="391.536" width="3.141" height="3.144"/>
<rect x="387.514" y="403.636" width="3.143" height="3.142"/>
<rect x="387.514" y="423.506" width="3.143" height="3.143"/>
<rect x="387.514" y="434.673" width="3.143" height="3.14"/>
<rect x="412.412" y="438.711" width="3.141" height="3.141"/>
<rect x="387.514" y="462.338" width="3.143" height="3.144"/>
<rect x="371.945" y="462.338" width="3.143" height="3.144"/>
<rect x="417.35" y="462.338" width="3.141" height="3.144"/>
<rect x="432.93" y="462.338" width="3.143" height="3.144"/>
<rect x="419.643" y="429.02" width="3.141" height="3.141"/>
<rect x="415.332" y="412.361" width="3.139" height="3.141"/>
<rect x="407.027" y="403.636" width="3.139" height="3.142"/>
<rect x="407.027" y="423.506" width="3.139" height="3.143"/>
<rect x="425.951" y="398.373" width="3.143" height="3.141"/>
<path d="M445.279,536.346v-3.141h-1.201v-18.008c0.652-0.193,1.131-0.791,1.131-1.506c0-0.875-0.709-1.58-1.582-1.58
	s-1.58,0.705-1.58,1.58c0,0.715,0.479,1.312,1.131,1.506v12.09c-0.162-0.527-0.348-1.047-0.555-1.557
	c-0.391-0.953-0.873-1.854-1.406-2.721v0.246h-0.896c0.566,0.893,1.066,1.826,1.471,2.814c0.793,1.943,1.25,4.037,1.371,6.236h0.016
	v0.898h-1.039v3.141h1.039v17.906c-0.652,0.191-1.131,0.791-1.131,1.506c0,0.873,0.709,1.58,1.58,1.58
	c0.875,0,1.582-0.707,1.582-1.58c0-0.715-0.479-1.314-1.131-1.508v-17.904H445.279z"/>
<text transform="matrix(1 0 0 1 366.582 478.4443)" font-family="'HelveticaNeue-Bold'" font-size="3.7037">Created by Andrew J. Young</text>
<text transform="matrix(1 0 0 1 366.582 482.1475)" font-family="'HelveticaNeue-Bold'" font-size="3.7037">from the Noun Project</text>
<g>
	<g>
		<path d="M373.465,330.69c0.83,0,1.775-0.475,1.775-1.187h-3.555C371.686,330.216,372.635,330.69,373.465,330.69z"/>
		<path d="M361.52,300.245c-0.924-1.039-2.062-0.027-1.141,1.014c0.219,0.243,5.758,6.481,5.758,6.481l1.141-1.012
			C367.277,306.729,361.736,300.489,361.52,300.245z"/>
		<path d="M375.834,328.042h-4.74c-0.197,0-0.357,0.159-0.357,0.356v0.236c0,0.195,0.16,0.354,0.357,0.354h4.74
			c0.197,0,0.355-0.16,0.355-0.354v-0.236C376.189,328.201,376.031,328.042,375.834,328.042z"/>
		<path d="M374.283,296.093c0-1.391-1.525-1.391-1.525,0c0,0.327,0,8.671,0,8.671h1.525
			C374.283,304.763,374.283,296.419,374.283,296.093z"/>
		<path d="M354.268,313.013c0.322,0.05,8.568,1.321,8.568,1.321l0.232-1.508c0,0-8.246-1.271-8.568-1.32
			C353.123,311.294,352.893,312.801,354.268,313.013z"/>
		<path d="M392.562,311.686c-0.322,0.05-8.568,1.322-8.568,1.322l0.232,1.507c0,0,8.246-1.271,8.568-1.32
			C394.17,312.981,393.938,311.475,392.562,311.686z"/>
		<path d="M375.834,326.62h-4.74c-0.197,0-0.357,0.158-0.357,0.354v0.236c0,0.198,0.16,0.356,0.357,0.356h4.74
			c0.197,0,0.355-0.159,0.355-0.356v-0.236C376.189,326.778,376.031,326.62,375.834,326.62z"/>
		<path d="M385.543,300.245c-0.217,0.244-5.758,6.483-5.758,6.483l1.139,1.012c0,0,5.543-6.238,5.758-6.481
			C387.605,300.218,386.467,299.205,385.543,300.245z"/>
		<path d="M408.143,331.793l-5.92-14.906c0,0-0.611-6.175-1.17-8.539c-2.465-10.636-14.32-20.287-27.178-20.287
			c-15.639,0-28.322,12.688-28.322,28.34c0,9.041,4.234,17.099,10.828,22.285v18.261h0.004c0.031,2.162,1.793,3.904,3.967,3.904
			h22.299c2.15,0,3.896-1.709,3.961-3.841c0-4.14,0-9.007,0-9.008c0,1.217,8.51,1.604,11.203,1.233
			c3.127-0.432,4.408-3.228,4.408-6.35v-7.921h3.799c1.262,0,2.291-1.025,2.291-2.283
			C408.312,332.363,408.256,332.062,408.143,331.793z M389.477,316.575c-0.086,1.359-0.318,2.728-0.742,4.052l4.139,4.642
			c-0.48,0.951-0.994,1.9-1.615,2.795l-6.127-1.366c-0.959,1.022-2.012,1.916-3.174,2.675l0.178,6.225
			c-0.992,0.446-1.99,0.805-3.027,1.088l-3.793-4.959c-1.359,0.16-2.75,0.159-4.133-0.017l-3.836,4.86
			c-1.041-0.289-2.047-0.663-3.023-1.132l0.271-6.15c-0.602-0.398-1.201-0.821-1.77-1.306c-0.525-0.446-1.002-0.927-1.451-1.428
			l-5.996,1.242c-0.605-0.901-1.141-1.838-1.598-2.806l4.113-4.484c-0.436-1.379-0.678-2.809-0.732-4.244l-5.344-2.892
			c0.104-1.055,0.318-2.115,0.594-3.16l5.965-0.783c0.547-1.316,1.295-2.578,2.217-3.754l-2.242-5.622
			c0.789-0.758,1.633-1.424,2.504-2.041l5.074,3.237c1.307-0.672,2.688-1.146,4.104-1.438l1.898-5.753
			c1.074-0.07,2.156-0.056,3.232,0.033l1.826,5.799c1.379,0.318,2.727,0.816,4.01,1.506l5.184-3.203
			c0.438,0.316,0.869,0.629,1.287,0.984c0.416,0.356,0.795,0.735,1.178,1.115l-2.361,5.677c0.859,1.145,1.547,2.373,2.062,3.658
			l6.107,0.891c0.264,1.051,0.457,2.119,0.555,3.186L389.477,316.575z"/>
		<path d="M373.465,308.367c-3.666,0-6.637,2.972-6.637,6.636c0,1.205,0.34,2.327,0.885,3.312c1.631,2.936,2.061,4.583,2.328,6.178
			c0.223,1.338,0.531,1.647,1.541,1.647c0.428,0,1.133,0,1.883,0c0.748,0,1.449,0,1.879,0c1.01,0,1.32-0.311,1.543-1.647
			c0.266-1.595,0.697-3.242,2.326-6.178c0.545-0.985,0.885-2.106,0.885-3.312C380.1,311.339,377.129,308.367,373.465,308.367z"/>
	</g>
	<text transform="matrix(1 0 0 1 344.8125 374.668)" font-family="'HelveticaNeue-Bold'" font-size="3.7037">Created by Dirk Rowe</text>
	<text transform="matrix(1 0 0 1 344.8125 378.3721)" font-family="'HelveticaNeue-Bold'" font-size="3.7037">from the Noun Project</text>
</g>
<g>
	<g id="Capa_21">
		<g>
			<path fill="#313741" d="M252.671,362.764h-74.075V309.4h74.075V362.764z M180.331,361.031h70.606v-49.896h-70.606V361.031z"/>
			<g>
				<path fill="#313741" d="M185.968,314.404c0-1.102-0.915-1.998-2.043-1.998c-1.126,0-2.039,0.896-2.039,1.998
					s0.913,1.996,2.039,1.996C185.053,316.4,185.968,315.508,185.968,314.404z"/>
				<rect x="183.739" y="356.98" fill="#313741" width="11.127" height="2.41"/>
				<path fill="#313741" d="M240.853,315.311c-3.48,0-6.303,2.762-6.303,6.168c0,3.033,2.238,5.551,5.191,6.066v19.059l-1.453,1.42
					l-0.785-0.768l-6.754,6.607l1.281,1.25l1.08,1.061l0.002-0.002l0.785,0.77l6.756-6.607l-0.787-0.77l2.102-2.055v-19.965
					c2.947-0.516,5.189-3.033,5.189-6.066C247.158,318.072,244.333,315.311,240.853,315.311z M241.968,324.869v-3.389h-2.227v3.389
					c-1.473-0.463-2.545-1.797-2.545-3.391c0-1.979,1.637-3.578,3.656-3.578s3.658,1.6,3.658,3.578
					C244.509,323.072,243.437,324.406,241.968,324.869z"/>
				<path fill="#313741" d="M247.421,355.721c-1.127,0-2.043,0.895-2.043,1.998c0,1.102,0.916,1.996,2.043,1.996
					c1.125,0,2.041-0.895,2.041-1.996C249.462,356.615,248.55,355.721,247.421,355.721z"/>
			</g>
			<g>
				<g>
					<path fill="#008CDC" d="M206.631,313.463c-12.532,0-22.692,9.939-22.692,22.199s10.16,22.201,22.692,22.201
						c12.533,0,22.693-9.941,22.693-22.201S219.166,313.463,206.631,313.463z M198.551,335.662c0-4.367,3.616-7.906,8.08-7.906
						c4.462,0,8.081,3.541,8.081,7.906c0,4.367-3.618,7.906-8.081,7.906C202.168,343.566,198.551,340.029,198.551,335.662z
						 M210.419,345.223c2.562-0.816,4.642-2.684,5.695-5.084l0.334,0.152c-1.094,2.486-3.244,4.426-5.895,5.275L210.419,345.223z
						 M211.233,347.305c3.077-1.078,5.577-3.342,6.926-6.229l0.355,0.164c-1.39,2.979-3.967,5.314-7.14,6.432L211.233,347.305z
						 M212.048,349.387c3.595-1.336,6.52-3.994,8.157-7.371l0.379,0.174c-1.682,3.475-4.688,6.211-8.383,7.586L212.048,349.387z
						 M212.862,351.469c4.114-1.588,7.463-4.646,9.387-8.512l0.4,0.184c-1.971,3.969-5.407,7.111-9.627,8.738L212.862,351.469z
						 M213.849,353.99l-0.169-0.432c4.634-1.838,8.425-5.293,10.63-9.652l0.422,0.193
						C222.476,348.566,218.595,352.109,213.849,353.99z"/>
				</g>
				<path fill="#313741" d="M206.631,333.74c-1.085,0-1.963,0.861-1.963,1.922c0,1.059,0.878,1.92,1.963,1.92
					c1.081,0,1.964-0.859,1.964-1.92C208.595,334.6,207.713,333.74,206.631,333.74z M206.631,336.783
					c-0.634,0-1.147-0.5-1.147-1.121s0.513-1.123,1.147-1.123s1.149,0.502,1.149,1.123S207.266,336.783,206.631,336.783z"/>
			</g>
		</g>
	</g>
	<text transform="matrix(1 0 0 1 178.5967 386.082)" fill="#313741" font-family="'HelveticaNeue-Bold'" font-size="3.7037">Created by Juan Pablo Bravo</text>
	<text transform="matrix(1 0 0 1 178.5967 389.7871)" fill="#313741" font-family="'HelveticaNeue-Bold'" font-size="3.7037">from the Noun Project</text>
</g>
<g>
	<g>
		<path d="M527.836,372.018v-1.481h-2.223v1.481h-1.48v-1.481h-2.223v1.481h-1.48v-1.481h-2.223v1.481h-1.482v-1.481h-2.963v1.481
			h-1.48v-1.481h-2.223v1.481h-1.48v-1.481h-2.223v1.481h-1.482v-1.481h-2.223v1.481h-1.48v-1.481h-2.223v1.481h-40.74v55.556
			h74.074v-55.556H527.836z M524.133,376.463c1.432,0,2.592,1.16,2.592,2.592c0,1.433-1.16,2.593-2.592,2.593
			c-1.434,0-2.592-1.16-2.592-2.593C521.541,377.623,522.699,376.463,524.133,376.463z M521.17,383.129h2.223v0.741h-2.223V383.129z
			 M521.17,385.352h2.223v2.222h-2.223V385.352z M514.504,383.87v-0.741h2.221v0.741H514.504z M516.725,385.352v2.222h-2.221v-2.222
			H516.725z M513.762,376.463c1.434,0,2.594,1.16,2.594,2.592c0,1.433-1.16,2.593-2.594,2.593c-1.432,0-2.592-1.16-2.592-2.593
			C511.17,377.623,512.33,376.463,513.762,376.463z M510.799,383.129h2.223v0.741h-2.223V383.129z M510.799,385.352h2.223v2.222
			h-2.223V385.352z M510.799,389.055h5.926v2.223h-5.926V389.055z M510.799,411.277h2.223v1.481h-2.223V411.277z M510.799,414.981
			h2.223v1.481h-2.223V414.981z M510.799,417.944h2.963v2.222h-2.963V417.944z M475.244,376.463h31.111v14.814h-31.111V376.463z
			 M499.688,413.499v-5.185h6.668v5.185H499.688z M506.355,414.981v5.185h-6.668v-5.185H506.355z M499.688,406.833v-5.186h6.668
			v5.186H499.688z M499.688,400.166v-5.185h6.668v5.185H499.688z M491.541,413.499v-5.185h6.666v5.185H491.541z M498.207,414.981
			v5.185h-6.666v-5.185H498.207z M491.541,406.833v-5.186h6.666v5.186H491.541z M491.541,400.166v-5.185h6.666v5.185H491.541z
			 M483.393,413.499v-5.185h6.666v5.185H483.393z M490.059,414.981v5.185h-6.666v-5.185H490.059z M483.393,406.833v-5.186h6.666
			v5.186H483.393z M483.393,400.166v-5.185h6.666v5.185H483.393z M475.244,394.981h6.666v5.185h-6.666V394.981z M475.244,401.647
			h6.666v5.186h-6.666V401.647z M475.244,408.314h6.666v5.185h-6.666V408.314z M475.244,414.981h6.666v5.185h-6.666V414.981z
			 M462.65,376.463h8.148v18.519h-8.148V376.463z M467.836,410.536v-2.222h2.963v2.222H467.836z M470.799,414.981v2.222h-2.963
			v-2.222H470.799z M467.836,403.87v-2.223h2.963v2.223H467.836z M462.65,401.647h2.963v2.223h-2.963V401.647z M462.65,408.314
			h2.963v2.222h-2.963V408.314z M462.65,414.981h2.963v2.222h-2.963V414.981z M527.096,424.61H462.65v-0.74h64.445V424.61z
			 M516.725,414.981v1.481h-2.221v-1.481H516.725z M514.504,412.759v-0.741h2.221v0.741H514.504z M516.725,417.944v2.222h-2.221
			v-2.222H516.725z M523.393,414.981v1.481h-2.223v-1.481H523.393z M521.17,412.759v-0.741h2.223v0.741H521.17z M523.393,417.944
			v2.222h-2.223v-2.222H523.393z M527.096,420.166h-2.963v-2.222h2.963V420.166z M527.096,416.463h-2.223v-1.481h2.223V416.463z
			 M527.096,412.759h-2.223v-1.481h2.223V412.759z M527.096,408.314h-16.297v-13.333h16.297V408.314z M527.096,391.277h-5.926
			v-2.223h5.926V391.277z M527.096,387.573h-2.223v-2.222h2.223V387.573z M527.096,383.87h-2.223v-0.741h2.223V383.87z"/>
		<path d="M463.393,394.24h6.666v-17.037h-6.666V394.24z M465.613,383.129h0.742v-4.444h0.74v4.444h0.74v5.186h-0.74v4.444h-0.74
			v-4.444h-0.742V383.129z"/>
		<path d="M518.947,406.833c2.863,0,5.186-2.321,5.186-5.186c0-2.863-2.322-5.185-5.186-5.185s-5.186,2.321-5.186,5.185
			C513.762,404.512,516.084,406.833,518.947,406.833z M518.947,396.833c2.654,0,4.814,2.16,4.814,4.814
			c0,2.655-2.16,4.815-4.814,4.815s-4.814-2.16-4.814-4.815C514.133,398.993,516.293,396.833,518.947,396.833z"/>
		<path d="M518.947,405.722c2.246,0,4.074-1.828,4.074-4.074s-1.828-4.074-4.074-4.074s-4.074,1.828-4.074,4.074
			S516.701,405.722,518.947,405.722z"/>
		<path d="M513.762,381.277c1.227,0,2.223-0.997,2.223-2.223c0-1.225-0.996-2.222-2.223-2.222c-1.225,0-2.221,0.997-2.221,2.222
			C511.541,380.28,512.537,381.277,513.762,381.277z M513.762,377.573c0.818,0,1.482,0.665,1.482,1.481
			c0,0.817-0.664,1.481-1.482,1.481c-0.816,0-1.48-0.664-1.48-1.481C512.281,378.238,512.945,377.573,513.762,377.573z"/>
		<path d="M524.133,381.277c1.225,0,2.223-0.997,2.223-2.223c0-1.225-0.998-2.222-2.223-2.222s-2.223,0.997-2.223,2.222
			C521.91,380.28,522.908,381.277,524.133,381.277z M524.133,377.573c0.818,0,1.48,0.665,1.48,1.481c0,0.817-0.662,1.481-1.48,1.481
			s-1.482-0.664-1.482-1.481C522.65,378.238,523.314,377.573,524.133,377.573z"/>
	</g>
	<text transform="matrix(1 0 0 1 458.207 448.6846)" font-family="'HelveticaNeue-Bold'" font-size="3.7037">Created by ascowalls</text>
	<text transform="matrix(1 0 0 1 458.207 452.3887)" font-family="'HelveticaNeue-Bold'" font-size="3.7037">from the Noun Project</text>
</g>
<g>
	<g>
		<path fill="#313741" d="M81.192,159.554c0.962-2.145,1.652-4.927,0.518-7.419c-1.323-2.907-4.717-4.528-10.085-4.817l-1.185-0.003
			l-0.092,0.003c-1.026,0.055-1.957,0.174-2.839,0.326c-0.042,1.147-0.221,2.332-0.532,3.548c1.141-0.285,2.382-0.428,3.509-0.491
			h1.001c2.745,0.153,6.194,0.769,7.137,2.832c0.466,1.021,0.307,2.305-0.104,3.54c-2.166-1.524-4.807-2.419-7.657-2.419
			c-1.189,0-2.34,0.163-3.438,0.455c1.859,3.297,2.87,7.042,2.87,10.861c0,5.348-1.913,10.257-5.088,14.081
			c1.72,0.808,3.63,1.272,5.656,1.272c7.365,0,13.334-5.968,13.334-13.334C84.198,164.788,83.07,161.852,81.192,159.554z"/>
		<path fill="#313741" d="M29.065,155.005c-0.977-0.229-1.996-0.352-3.044-0.352c-2.762,0-5.328,0.839-7.456,2.275
			c-0.375-1.19-0.508-2.414-0.058-3.396c0.942-2.062,4.391-2.68,7.137-2.832h1.001c1.003,0.055,2.101,0.174,3.134,0.403
			c-0.3-1.208-0.467-2.383-0.505-3.519c-0.784-0.122-1.601-0.221-2.494-0.268l-1.185-0.003l-0.091,0.003
			c-5.369,0.29-8.761,1.911-10.084,4.817c-1.102,2.419-0.484,5.108,0.435,7.226c-1.977,2.327-3.171,5.337-3.171,8.628
			c0,7.366,5.971,13.334,13.335,13.334c1.897,0,3.698-0.402,5.333-1.115c-3.255-3.848-5.223-8.815-5.223-14.238
			C26.13,162.103,27.166,158.326,29.065,155.005z"/>
	</g>
	<path fill="#008CDC" d="M63.186,153.743c1.395-3.11,2.396-7.142,0.751-10.754c-1.92-4.216-6.839-6.566-14.62-6.985L47.599,136
		l-0.131,0.003c-7.783,0.419-12.701,2.769-14.619,6.985c-1.597,3.505-0.702,7.404,0.628,10.474
		c-2.863,3.371-4.596,7.736-4.596,12.506c0,10.675,8.655,19.331,19.332,19.331c10.677,0,19.331-8.655,19.331-19.331
		C67.543,161.331,65.908,157.074,63.186,153.743z M37.405,149.938c-0.543-1.726-0.736-3.5-0.085-4.921
		c1.366-2.993,6.365-3.885,10.346-4.107h1.453c3.98,0.222,8.979,1.114,10.348,4.107c0.675,1.479,0.445,3.34-0.152,5.13
		c-3.142-2.208-6.968-3.509-11.101-3.509C44.21,146.638,40.491,147.854,37.405,149.938z"/>
	<text transform="matrix(1 0 0 1 3.1553 222.2188)" font-family="'HelveticaNeue-Bold'" font-size="4.5861">Created by She3t, llc</text>
	<text transform="matrix(1 0 0 1 3.1553 226.8057)" font-family="'HelveticaNeue-Bold'" font-size="4.5861">from the Noun Project</text>
</g>
<g>
	<g>
		<g>
			<path d="M379.393,572.432c7.605,0,13.791,6.186,13.791,13.789v39.182c0,7.604-6.186,13.789-13.791,13.789h-39.18
				c-7.604,0-13.789-6.186-13.789-13.789v-39.182c0-7.604,6.186-13.789,13.789-13.789H379.393 M379.393,570.209h-39.18
				c-8.844,0-16.012,7.168-16.012,16.012v39.182c0,8.842,7.168,16.012,16.012,16.012h39.18c8.844,0,16.012-7.17,16.012-16.012
				v-39.182C395.404,577.377,388.236,570.209,379.393,570.209L379.393,570.209z"/>
		</g>
		
			<line fill="none" stroke="#000000" stroke-width="0.25" stroke-miterlimit="10" x1="323.691" y1="641.922" x2="395.914" y2="569.699"/>
		
			<line fill="none" stroke="#000000" stroke-width="0.25" stroke-miterlimit="10" x1="323.691" y1="569.699" x2="395.914" y2="641.922"/>
		<g>
			
				<line fill="none" stroke="#000000" stroke-width="0.25" stroke-miterlimit="10" x1="324.885" y1="618.959" x2="394.723" y2="618.959"/>
			
				<line fill="none" stroke="#000000" stroke-width="0.25" stroke-miterlimit="10" x1="324.885" y1="605.811" x2="394.723" y2="605.811"/>
			
				<line fill="none" stroke="#000000" stroke-width="0.25" stroke-miterlimit="10" x1="324.885" y1="592.662" x2="394.723" y2="592.662"/>
		</g>
		<g>
			
				<line fill="none" stroke="#000000" stroke-width="0.25" stroke-miterlimit="10" x1="372.951" y1="640.73" x2="372.951" y2="570.893"/>
			
				<line fill="none" stroke="#000000" stroke-width="0.25" stroke-miterlimit="10" x1="359.803" y1="640.73" x2="359.803" y2="570.893"/>
			
				<line fill="none" stroke="#000000" stroke-width="0.25" stroke-miterlimit="10" x1="346.654" y1="640.73" x2="346.654" y2="570.893"/>
		</g>
		<g>
			
				<line fill="none" stroke="#000000" stroke-width="0.25" stroke-miterlimit="10" x1="390.729" y1="641.414" x2="390.729" y2="570.209"/>
			
				<line fill="none" stroke="#000000" stroke-width="0.25" stroke-miterlimit="10" x1="328.877" y1="641.414" x2="328.877" y2="570.209"/>
		</g>
		<g>
			
				<line fill="none" stroke="#000000" stroke-width="0.25" stroke-miterlimit="10" x1="395.404" y1="574.885" x2="324.201" y2="574.885"/>
			
				<line fill="none" stroke="#000000" stroke-width="0.25" stroke-miterlimit="10" x1="395.404" y1="636.736" x2="324.201" y2="636.736"/>
		</g>
		<circle fill="none" stroke="#000000" stroke-width="0.25" stroke-miterlimit="10" cx="359.803" cy="605.811" r="30.889"/>
		<circle fill="none" stroke="#000000" stroke-width="0.25" stroke-miterlimit="10" cx="359.803" cy="605.811" r="18.639"/>
		<circle fill="none" stroke="#000000" stroke-width="0.25" stroke-miterlimit="10" cx="359.803" cy="605.811" r="13.148"/>
	</g>
	<g>
		<path d="M278.042,574.326c7.394,0,13.408,6.014,13.408,13.408v36.154c0,7.393-6.014,13.408-13.408,13.408h-36.154
			c-7.394,0-13.408-6.016-13.408-13.408v-36.154c0-7.395,6.015-13.408,13.408-13.408H278.042 M278.042,572.959h-36.154
			c-8.16,0-14.774,6.615-14.774,14.775v36.154c0,8.16,6.614,14.773,14.774,14.773h36.154c8.16,0,14.775-6.613,14.775-14.773v-36.154
			C292.816,579.574,286.201,572.959,278.042,572.959L278.042,572.959z"/>
	</g>
	<g>
		
			<rect x="259.862" y="558.773" transform="matrix(-0.7071 -0.7071 0.7071 -0.7071 15.4163 1218.0067)" width="0.207" height="94.075"/>
	</g>
	<g>
		
			<rect x="212.927" y="605.708" transform="matrix(-0.7071 -0.7071 0.7071 -0.7071 15.4205 1218.0083)" width="94.074" height="0.204"/>
	</g>
	<g>
		<g>
			<rect x="227.801" y="617.818" width="64.326" height="0.205"/>
		</g>
		<g>
			<rect x="227.801" y="605.709" width="64.326" height="0.205"/>
		</g>
		<g>
			<rect x="227.801" y="593.598" width="64.326" height="0.205"/>
		</g>
	</g>
	<g>
		<g>
			<rect x="271.972" y="573.648" width="0.205" height="64.326"/>
		</g>
		<g>
			<rect x="259.861" y="573.648" width="0.205" height="64.326"/>
		</g>
		<g>
			<rect x="247.751" y="573.648" width="0.205" height="64.326"/>
		</g>
	</g>
	<g>
		<g>
			<rect x="288.348" y="573.02" width="0.205" height="65.584"/>
		</g>
		<g>
			<rect x="231.376" y="573.02" width="0.205" height="65.584"/>
		</g>
	</g>
	<g>
		<g>
			<rect x="227.171" y="577.225" width="65.584" height="0.203"/>
		</g>
		<g>
			<rect x="227.171" y="634.193" width="65.584" height="0.205"/>
		</g>
	</g>
	<g>
		<path d="M259.964,634.365c-15.744,0-28.553-12.811-28.553-28.555c0-15.742,12.809-28.553,28.553-28.553
			s28.553,12.809,28.553,28.553S275.708,634.365,259.964,634.365z M259.964,577.463c-15.632,0-28.348,12.717-28.348,28.348
			s12.717,28.348,28.348,28.348s28.348-12.715,28.348-28.348C288.312,590.18,275.596,577.463,259.964,577.463z"/>
	</g>
	<g>
		<path d="M259.964,623.08c-9.522,0-17.271-7.746-17.271-17.27s7.747-17.27,17.271-17.27s17.27,7.748,17.27,17.27
			C277.234,615.334,269.486,623.08,259.964,623.08z M259.964,588.746c-9.41,0-17.065,7.656-17.065,17.064
			c0,9.41,7.655,17.066,17.065,17.066s17.064-7.656,17.064-17.066C277.029,596.402,269.375,588.746,259.964,588.746z"/>
	</g>
	<g>
		<path d="M259.964,618.023c-6.734,0-12.213-5.479-12.213-12.213s5.479-12.213,12.213-12.213s12.213,5.479,12.213,12.213
			S266.699,618.023,259.964,618.023z M259.964,593.803c-6.621,0-12.008,5.387-12.008,12.008c0,6.623,5.387,12.008,12.008,12.008
			s12.008-5.385,12.008-12.008C271.972,599.189,266.585,593.803,259.964,593.803z"/>
	</g>
	<g>
		<path d="M324.275,562.463c0.348,0.213,0.854,0.391,1.387,0.391c0.789,0,1.252-0.418,1.252-1.021c0-0.559-0.32-0.879-1.129-1.191
			c-0.977-0.346-1.58-0.852-1.58-1.695c0-0.934,0.771-1.627,1.936-1.627c0.613,0,1.059,0.143,1.324,0.293l-0.213,0.631
			c-0.197-0.105-0.596-0.283-1.139-0.283c-0.816,0-1.127,0.488-1.127,0.896c0,0.559,0.363,0.834,1.189,1.154
			c1.014,0.393,1.529,0.881,1.529,1.76c0,0.924-0.686,1.725-2.098,1.725c-0.576,0-1.209-0.17-1.527-0.383L324.275,562.463z"/>
		<path d="M329.652,557.869v1.234h1.121v0.596h-1.121v2.318c0,0.533,0.152,0.834,0.588,0.834c0.203,0,0.354-0.025,0.451-0.053
			l0.035,0.586c-0.15,0.062-0.389,0.107-0.693,0.107c-0.363,0-0.656-0.115-0.842-0.33c-0.223-0.23-0.303-0.613-0.303-1.119v-2.346
			h-0.666v-0.594h0.666v-1.031L329.652,557.869z"/>
		<path d="M331.654,560.445c0-0.506-0.01-0.941-0.037-1.342h0.684l0.027,0.844h0.035c0.195-0.576,0.666-0.941,1.191-0.941
			c0.088,0,0.15,0.01,0.223,0.027v0.736c-0.08-0.018-0.16-0.025-0.268-0.025c-0.551,0-0.941,0.418-1.049,1.004
			c-0.016,0.105-0.035,0.23-0.035,0.363v2.293h-0.771V560.445z"/>
		<path d="M338.363,561.219c0,1.59-1.102,2.283-2.143,2.283c-1.162,0-2.061-0.854-2.061-2.213c0-1.439,0.941-2.283,2.133-2.283
			C337.527,559.006,338.363,559.902,338.363,561.219z M334.951,561.262c0,0.941,0.541,1.652,1.307,1.652
			c0.746,0,1.305-0.701,1.305-1.67c0-0.729-0.363-1.652-1.287-1.652C335.35,559.592,334.951,560.445,334.951,561.262z"/>
		<path d="M340.125,561.076h0.018c0.105-0.15,0.258-0.338,0.383-0.488l1.26-1.484h0.941l-1.66,1.768l1.893,2.533h-0.949
			l-1.484-2.061l-0.4,0.443v1.617h-0.771v-6.307h0.771V561.076L340.125,561.076z"/>
		<path d="M343.955,561.396c0.018,1.057,0.693,1.492,1.475,1.492c0.561,0,0.898-0.098,1.191-0.223l0.133,0.561
			c-0.275,0.125-0.746,0.268-1.43,0.268c-1.324,0-2.115-0.871-2.115-2.168c0-1.299,0.764-2.32,2.018-2.32
			c1.404,0,1.777,1.236,1.777,2.025c0,0.16-0.02,0.285-0.027,0.365H343.955z M346.248,560.836c0.008-0.496-0.205-1.27-1.084-1.27
			c-0.791,0-1.137,0.729-1.199,1.27H346.248z"/>
		<path d="M352.924,563.244c-0.205,0.105-0.658,0.248-1.236,0.248c-1.297,0-2.141-0.879-2.141-2.193
			c0-1.324,0.906-2.283,2.309-2.283c0.463,0,0.871,0.115,1.084,0.221l-0.178,0.604c-0.186-0.105-0.479-0.203-0.906-0.203
			c-0.984,0-1.518,0.729-1.518,1.625c0,0.996,0.639,1.609,1.492,1.609c0.443,0,0.736-0.117,0.959-0.215L352.924,563.244z"/>
		<path d="M357.678,561.219c0,1.59-1.102,2.283-2.141,2.283c-1.164,0-2.061-0.854-2.061-2.213c0-1.439,0.941-2.283,2.131-2.283
			C356.842,559.006,357.678,559.902,357.678,561.219z M354.266,561.262c0,0.941,0.541,1.652,1.307,1.652
			c0.746,0,1.305-0.701,1.305-1.67c0-0.729-0.363-1.652-1.287-1.652S354.266,560.445,354.266,561.262z"/>
		<path d="M358.666,560.268c0-0.445-0.01-0.809-0.035-1.164h0.693l0.045,0.711h0.018c0.213-0.41,0.711-0.809,1.42-0.809
			c0.596,0,1.52,0.355,1.52,1.83v2.566h-0.781v-2.479c0-0.693-0.258-1.27-0.996-1.27c-0.514,0-0.914,0.365-1.047,0.799
			c-0.035,0.098-0.053,0.23-0.053,0.365v2.584h-0.783V560.268z"/>
		<path d="M363.494,562.604c0.23,0.15,0.639,0.311,1.031,0.311c0.568,0,0.834-0.283,0.834-0.639c0-0.373-0.223-0.578-0.799-0.791
			c-0.773-0.275-1.137-0.701-1.137-1.217c0-0.693,0.559-1.262,1.482-1.262c0.436,0,0.818,0.123,1.057,0.266l-0.195,0.568
			c-0.168-0.105-0.479-0.248-0.879-0.248c-0.463,0-0.719,0.268-0.719,0.588c0,0.354,0.258,0.514,0.816,0.729
			c0.746,0.283,1.127,0.656,1.127,1.297c0,0.756-0.586,1.287-1.607,1.287c-0.471,0-0.906-0.115-1.207-0.293L363.494,562.604z"/>
		<path d="M368.062,557.869v1.234h1.119v0.596h-1.119v2.318c0,0.533,0.15,0.834,0.586,0.834c0.203,0,0.355-0.025,0.453-0.053
			l0.035,0.586c-0.15,0.062-0.391,0.107-0.693,0.107c-0.363,0-0.658-0.115-0.844-0.33c-0.223-0.23-0.303-0.613-0.303-1.119v-2.346
			h-0.666v-0.594h0.666v-1.031L368.062,557.869z"/>
		<path d="M370.062,560.445c0-0.506-0.01-0.941-0.037-1.342h0.686l0.025,0.844h0.037c0.195-0.576,0.666-0.941,1.189-0.941
			c0.09,0,0.15,0.01,0.223,0.027v0.736c-0.08-0.018-0.16-0.025-0.268-0.025c-0.549,0-0.941,0.418-1.047,1.004
			c-0.018,0.105-0.037,0.23-0.037,0.363v2.293h-0.771V560.445z"/>
		<path d="M376.566,562.23c0,0.445,0.01,0.836,0.035,1.174h-0.693l-0.045-0.701h-0.016c-0.205,0.346-0.658,0.799-1.422,0.799
			c-0.676,0-1.484-0.373-1.484-1.883v-2.516h0.781v2.381c0,0.818,0.25,1.369,0.961,1.369c0.523,0,0.887-0.365,1.029-0.711
			c0.045-0.115,0.072-0.258,0.072-0.4v-2.639h0.781V562.23L376.566,562.23z"/>
		<path d="M380.932,563.244c-0.205,0.105-0.658,0.248-1.234,0.248c-1.299,0-2.143-0.879-2.143-2.193
			c0-1.324,0.906-2.283,2.311-2.283c0.461,0,0.871,0.115,1.084,0.221l-0.178,0.604c-0.186-0.105-0.48-0.203-0.906-0.203
			c-0.986,0-1.52,0.729-1.52,1.625c0,0.996,0.639,1.609,1.492,1.609c0.445,0,0.738-0.117,0.961-0.215L380.932,563.244z"/>
		<path d="M382.906,557.869v1.234h1.119v0.596h-1.119v2.318c0,0.533,0.15,0.834,0.586,0.834c0.205,0,0.355-0.025,0.453-0.053
			l0.035,0.586c-0.15,0.062-0.391,0.107-0.693,0.107c-0.363,0-0.656-0.115-0.844-0.33c-0.223-0.23-0.303-0.613-0.303-1.119v-2.346
			h-0.664v-0.594h0.664v-1.031L382.906,557.869z"/>
		<path d="M385.777,557.896c0.008,0.266-0.188,0.479-0.498,0.479c-0.275,0-0.471-0.213-0.471-0.479c0-0.277,0.203-0.49,0.488-0.49
			C385.59,557.406,385.777,557.619,385.777,557.896z M384.906,563.404v-4.301h0.781v4.301H384.906z"/>
		<path d="M390.877,561.219c0,1.59-1.102,2.283-2.141,2.283c-1.164,0-2.061-0.854-2.061-2.213c0-1.439,0.941-2.283,2.131-2.283
			C390.041,559.006,390.877,559.902,390.877,561.219z M387.467,561.262c0,0.941,0.541,1.652,1.305,1.652
			c0.748,0,1.307-0.701,1.307-1.67c0-0.729-0.363-1.652-1.287-1.652C387.865,559.592,387.467,560.445,387.467,561.262z"/>
		<path d="M391.865,560.268c0-0.445-0.01-0.809-0.035-1.164h0.693l0.045,0.711h0.018c0.213-0.41,0.711-0.809,1.42-0.809
			c0.596,0,1.52,0.355,1.52,1.83v2.566h-0.781v-2.479c0-0.693-0.258-1.27-0.996-1.27c-0.514,0-0.914,0.365-1.047,0.799
			c-0.035,0.098-0.053,0.23-0.053,0.365v2.584h-0.783V560.268L391.865,560.268z"/>
	</g>
	<g>
		<path d="M231.015,557.416h3.225v0.648h-2.451v1.99h2.266v0.639h-2.266v2.711h-0.773V557.416z"/>
		<path d="M235.957,557.896c0.01,0.266-0.187,0.479-0.498,0.479c-0.274,0-0.471-0.213-0.471-0.479c0-0.277,0.205-0.49,0.489-0.49
			C235.77,557.406,235.957,557.619,235.957,557.896z M235.086,563.404v-4.301h0.782v4.301H235.086z"/>
		<path d="M237.167,557.096h0.781v6.309h-0.781V557.096z"/>
		<path d="M239.264,557.096h0.782v6.309h-0.782V557.096z"/>
		<path d="M246.311,563.244c-0.204,0.105-0.657,0.248-1.235,0.248c-1.297,0-2.141-0.879-2.141-2.193
			c0-1.324,0.905-2.283,2.309-2.283c0.462,0,0.871,0.115,1.084,0.221l-0.177,0.604c-0.187-0.105-0.479-0.203-0.907-0.203
			c-0.985,0-1.519,0.729-1.519,1.625c0,0.996,0.64,1.609,1.493,1.609c0.443,0,0.736-0.117,0.959-0.215L246.311,563.244z"/>
		<path d="M251.066,561.219c0,1.59-1.102,2.283-2.142,2.283c-1.163,0-2.062-0.854-2.062-2.213c0-1.439,0.942-2.283,2.133-2.283
			C250.23,559.006,251.066,559.902,251.066,561.219z M247.655,561.262c0,0.941,0.542,1.652,1.306,1.652
			c0.746,0,1.307-0.701,1.307-1.67c0-0.729-0.364-1.652-1.288-1.652C248.054,559.592,247.655,560.445,247.655,561.262z"/>
		<path d="M252.054,560.268c0-0.445-0.01-0.809-0.035-1.164h0.693l0.045,0.711h0.017c0.214-0.41,0.711-0.809,1.421-0.809
			c0.596,0,1.52,0.355,1.52,1.83v2.566h-0.781v-2.479c0-0.693-0.258-1.27-0.996-1.27c-0.514,0-0.914,0.365-1.047,0.799
			c-0.036,0.098-0.055,0.23-0.055,0.365v2.584h-0.781V560.268z"/>
		<path d="M256.881,562.604c0.231,0.15,0.64,0.311,1.031,0.311c0.569,0,0.835-0.283,0.835-0.639c0-0.373-0.223-0.578-0.8-0.791
			c-0.772-0.275-1.137-0.701-1.137-1.217c0-0.693,0.56-1.262,1.483-1.262c0.436,0,0.818,0.123,1.057,0.266l-0.195,0.568
			c-0.168-0.105-0.479-0.248-0.879-0.248c-0.463,0-0.721,0.268-0.721,0.588c0,0.354,0.258,0.514,0.818,0.729
			c0.746,0.283,1.127,0.656,1.127,1.297c0,0.756-0.586,1.287-1.607,1.287c-0.471,0-0.906-0.115-1.209-0.293L256.881,562.604z"/>
		<path d="M261.449,557.869v1.234h1.121v0.596h-1.121v2.318c0,0.533,0.152,0.834,0.588,0.834c0.203,0,0.354-0.025,0.452-0.053
			l0.036,0.586c-0.15,0.062-0.391,0.107-0.693,0.107c-0.363,0-0.656-0.115-0.844-0.328c-0.223-0.23-0.303-0.613-0.303-1.119v-2.346
			h-0.665v-0.596h0.665v-1.031L261.449,557.869z"/>
		<path d="M263.451,560.445c0-0.506-0.01-0.941-0.037-1.342h0.685l0.026,0.844h0.036c0.195-0.576,0.666-0.941,1.19-0.941
			c0.089,0,0.15,0.01,0.223,0.027v0.736c-0.08-0.018-0.16-0.025-0.268-0.025c-0.551,0-0.941,0.418-1.048,1.004
			c-0.017,0.105-0.036,0.23-0.036,0.363v2.293h-0.771V560.445z"/>
		<path d="M269.955,562.23c0,0.445,0.009,0.836,0.035,1.174h-0.691l-0.046-0.701h-0.017c-0.205,0.346-0.658,0.799-1.422,0.799
			c-0.676,0-1.484-0.373-1.484-1.883v-2.516h0.782v2.381c0,0.818,0.249,1.369,0.96,1.369c0.523,0,0.889-0.365,1.03-0.711
			c0.046-0.115,0.071-0.258,0.071-0.4v-2.639h0.782L269.955,562.23L269.955,562.23z"/>
		<path d="M274.32,563.244c-0.205,0.105-0.658,0.248-1.235,0.248c-1.298,0-2.142-0.879-2.142-2.193c0-1.324,0.906-2.283,2.311-2.283
			c0.461,0,0.87,0.115,1.084,0.221l-0.178,0.604c-0.187-0.105-0.48-0.203-0.906-0.203c-0.986,0-1.52,0.729-1.52,1.625
			c0,0.996,0.639,1.609,1.492,1.609c0.445,0,0.737-0.117,0.959-0.215L274.32,563.244z"/>
		<path d="M276.294,557.869v1.234h1.119v0.596h-1.119v2.318c0,0.533,0.15,0.834,0.586,0.834c0.204,0,0.355-0.025,0.453-0.053
			l0.035,0.586c-0.15,0.062-0.391,0.107-0.692,0.107c-0.364,0-0.657-0.115-0.844-0.328c-0.222-0.23-0.302-0.613-0.302-1.119v-2.346
			h-0.666v-0.596h0.666v-1.031L276.294,557.869z"/>
		<path d="M279.166,557.896c0.008,0.266-0.188,0.479-0.498,0.479c-0.275,0-0.471-0.213-0.471-0.479c0-0.277,0.203-0.49,0.488-0.49
			C278.978,557.406,279.166,557.619,279.166,557.896z M278.294,563.404v-4.301h0.781v4.301H278.294z"/>
		<path d="M284.266,561.219c0,1.59-1.102,2.283-2.141,2.283c-1.164,0-2.061-0.854-2.061-2.213c0-1.439,0.941-2.283,2.131-2.283
			C283.43,559.006,284.266,559.902,284.266,561.219z M280.854,561.262c0,0.941,0.543,1.652,1.307,1.652
			c0.746,0,1.307-0.701,1.307-1.67c0-0.729-0.365-1.652-1.289-1.652S280.854,560.445,280.854,561.262z"/>
		<path d="M285.256,560.268c0-0.445-0.01-0.809-0.037-1.164h0.693l0.045,0.711h0.018c0.213-0.41,0.711-0.809,1.422-0.809
			c0.594,0,1.518,0.355,1.518,1.83v2.566h-0.781v-2.479c0-0.693-0.258-1.27-0.994-1.27c-0.516,0-0.916,0.365-1.049,0.799
			c-0.035,0.098-0.053,0.23-0.053,0.365v2.584h-0.781V560.268z"/>
	</g>
	<text transform="matrix(1 0 0 1 222.9272 655.8105)" font-family="'HelveticaNeue-Bold'" font-size="3.7037">Created by Dimitry Sunseifer</text>
	<text transform="matrix(1 0 0 1 222.9272 659.5146)" font-family="'HelveticaNeue-Bold'" font-size="3.7037">from the Noun Project</text>
</g>
<g>
	<g>
		<g>
			<g>
			</g>
		</g>
		<g>
		</g>
	</g>
	<path d="M640.199,387.185c-0.715,0-1.326,0.438-1.584,1.057h-27.518c-0.293-1.117-1.309-1.942-2.518-1.942
		s-2.225,0.824-2.518,1.942h-27.518c-0.258-0.619-0.869-1.057-1.584-1.057c-0.947,0-1.715,0.769-1.715,1.715
		c0,0.947,0.768,1.716,1.715,1.716c0.715,0,1.326-0.438,1.584-1.058h27.518c0.098,0.371,0.273,0.71,0.51,0.997
		c-13.619,1.023-24.355,12.39-24.377,26.268c-2.168,0.516-3.783,2.464-3.783,4.791c0,2.72,2.205,4.926,4.926,4.926
		s4.926-2.206,4.926-4.926c0-2.268-1.535-4.178-3.621-4.749h0.016c0-6.39,2.488-12.397,7.006-16.916
		c4.52-4.519,10.525-7.008,16.916-7.008s12.396,2.489,16.916,7.008c4.518,4.519,7.006,10.526,7.006,16.916h0.016
		c-2.086,0.571-3.621,2.481-3.621,4.749c0,2.72,2.205,4.926,4.926,4.926c2.719,0,4.924-2.206,4.924-4.926
		c0-2.327-1.613-4.274-3.781-4.791c-0.021-13.878-10.758-25.244-24.379-26.268c0.238-0.288,0.414-0.627,0.512-0.997h27.516
		c0.258,0.619,0.871,1.057,1.584,1.057c0.947,0,1.715-0.769,1.715-1.716C641.914,387.953,641.146,387.185,640.199,387.185z
		 M586.328,421.613c0,1.649-1.342,2.99-2.99,2.99s-2.99-1.342-2.99-2.99c0-1.649,1.342-2.991,2.99-2.991
		S586.328,419.964,586.328,421.613z M608.58,389.917c-0.562,0-1.018-0.457-1.018-1.019c0-0.561,0.455-1.018,1.018-1.018
		c0.561,0,1.018,0.457,1.018,1.018C609.598,389.46,609.141,389.917,608.58,389.917z M636.812,421.613c0,1.649-1.342,2.99-2.99,2.99
		c-1.65,0-2.992-1.342-2.992-2.99c0-1.649,1.344-2.991,2.992-2.991S636.812,419.964,636.812,421.613z"/>
	<text transform="matrix(1 0 0 1 571.543 455.2148)" font-family="'HelveticaNeue-Bold'" font-size="3.7037">Created by Mario Verduzco</text>
	<text transform="matrix(1 0 0 1 571.543 458.9189)" font-family="'HelveticaNeue-Bold'" font-size="3.7037">from the Noun Project</text>
</g>
<g>
	<g>
		<path fill="#008CDC" d="M331.11,39.839v4.707l-16.729-7.252v-4.023l16.729-7.25v4.739l-11.656,4.49L331.11,39.839z"/>
		<path fill="#008CDC" d="M341.455,25.919l-4.656,19.174c-0.156,0.633-0.29,1.131-0.407,1.497c-0.115,0.367-0.294,0.653-0.531,0.856
			c-0.239,0.207-0.586,0.308-1.04,0.308c-1.13,0-1.698-0.489-1.698-1.462c0-0.255,0.112-0.892,0.335-1.912l4.64-19.174
			c0.244-1.02,0.477-1.72,0.698-2.095c0.221-0.377,0.655-0.565,1.298-0.565c0.554,0,0.978,0.134,1.271,0.399s0.44,0.63,0.44,1.097
			C341.805,24.384,341.688,25.011,341.455,25.919z"/>
		<path fill="#008CDC" d="M360.53,37.294l-16.73,7.285v-4.705l11.691-4.589L343.8,30.76v-4.674l16.73,7.218V37.294z"/>
	</g>
	<path fill="#313741" d="M371.297-1h-67.684C301.066-1,299,1.066,299,3.616V62.07c0,2.547,2.066,4.613,4.613,4.613h67.684
		c2.549,0,4.615-2.066,4.615-4.613V3.616C375.912,1.066,373.846-1,371.297-1z M359.76,2.077c1.697,0,3.076,1.381,3.076,3.076
		c0,1.697-1.379,3.079-3.076,3.079c-1.695,0-3.076-1.381-3.076-3.079C356.684,3.458,358.064,2.077,359.76,2.077z M351.301,2.077
		c1.695,0,3.077,1.381,3.077,3.076c0,1.697-1.382,3.079-3.077,3.079c-1.697,0-3.078-1.381-3.078-3.079
		C348.223,3.458,349.604,2.077,351.301,2.077z M371.297,62.07h-67.684V11.308h67.684V62.07z M368.221,8.231
		c-1.695,0-3.076-1.381-3.076-3.079c0-1.695,1.381-3.076,3.076-3.076s3.076,1.381,3.076,3.076
		C371.297,6.85,369.916,8.231,368.221,8.231z"/>
	<text transform="matrix(1 0 0 1 298.999 84.7583)" font-family="'HelveticaNeue-Bold'" font-size="3.8456">Created by Simple Icons</text>
	<text transform="matrix(1 0 0 1 298.999 88.604)" font-family="'HelveticaNeue-Bold'" font-size="3.8456">from the Noun Project</text>
</g>
<g>
	<g>
		<g>
			<g>
				<path d="M766.078,369.87c0.385,0.384,0.385,1.008,0,1.392c-0.191,0.191-0.441,0.285-0.691,0.285s-0.502-0.094-0.697-0.285
					l-2.109-2.108l-2.107,2.108c-0.191,0.191-0.443,0.285-0.693,0.285c-0.256,0-0.506-0.094-0.697-0.285
					c-0.383-0.383-0.383-1.008,0-1.392l2.107-2.107l-2.107-2.108c-0.383-0.389-0.383-1.008,0-1.391s1.008-0.383,1.391,0l2.109,2.108
					l2.107-2.108c0.383-0.383,1.008-0.383,1.391,0s0.383,1.002,0,1.391l-2.109,2.108L766.078,369.87z"/>
			</g>
		</g>
		<g>
			<g>
				<path d="M776.479,360.98c0.383,0.383,0.383,1.007,0,1.391c-0.193,0.192-0.443,0.29-0.693,0.29s-0.502-0.099-0.693-0.29
					l-2.113-2.108l-2.107,2.108c-0.191,0.192-0.443,0.29-0.693,0.29s-0.506-0.099-0.697-0.29c-0.383-0.383-0.383-1.007,0-1.391
					l2.107-2.108l-2.107-2.108c-0.383-0.383-0.383-1.007,0-1.391c0.383-0.383,1.008-0.383,1.391,0l2.107,2.107l2.113-2.107
					c0.383-0.383,1.002-0.383,1.387,0c0.383,0.383,0.383,1.007,0,1.391l-2.107,2.108L776.479,360.98z"/>
			</g>
		</g>
		<g>
			<g>
				<path d="M795.314,374.372c0.383,0.383,0.383,1.007,0,1.391c-0.193,0.192-0.443,0.29-0.693,0.29c-0.256,0-0.506-0.099-0.697-0.29
					l-2.109-2.107l-2.107,2.107c-0.191,0.192-0.441,0.29-0.697,0.29c-0.25,0-0.502-0.099-0.693-0.29
					c-0.383-0.383-0.383-1.007,0-1.391l2.109-2.108l-2.109-2.108c-0.383-0.383-0.383-1.007,0-1.391c0.383-0.383,1.008-0.383,1.391,0
					l2.109,2.108l2.107-2.108c0.383-0.383,1.008-0.383,1.391,0s0.383,1.008,0,1.391l-2.107,2.108L795.314,374.372z"/>
			</g>
		</g>
		<g>
			<g>
				<path d="M789.244,353.791l-6.58-1.626c-0.525-0.133-1.061,0.187-1.188,0.718l-1.633,6.579c-0.127,0.526,0.191,1.062,0.719,1.189
					c0.078,0.02,0.156,0.029,0.234,0.029c0.443,0,0.846-0.3,0.953-0.746l1.062-4.28l0.418,0.692
					c1.631,2.707,2.113,5.892,1.352,8.964c-0.758,3.071-2.668,5.661-5.381,7.298c-0.418,0.25-0.852,0.477-1.293,0.673
					c-0.713-1.242-1.928-2.187-3.436-2.506c-0.354-0.074-0.713-0.107-1.07-0.107c-2.443,0-4.574,1.734-5.076,4.122
					c-0.59,2.801,1.209,5.559,4.01,6.147c0.354,0.073,0.719,0.113,1.076,0.113c2.438,0,4.57-1.734,5.076-4.122
					c0.127-0.601,0.143-1.199,0.061-1.779c0.574-0.246,1.135-0.536,1.67-0.86c3.16-1.902,5.387-4.925,6.275-8.507
					c0.885-3.578,0.324-7.292-1.582-10.447l-0.418-0.692l4.281,1.062c0.525,0.127,1.061-0.192,1.193-0.723
					C790.096,354.454,789.775,353.924,789.244,353.791z M776.561,376.52c-0.309,1.488-1.635,2.565-3.15,2.565
					c-0.225,0-0.447-0.024-0.668-0.069c-1.744-0.369-2.859-2.078-2.496-3.823c0.314-1.484,1.643-2.561,3.154-2.561
					c0.223,0,0.449,0.021,0.67,0.069C775.809,373.064,776.93,374.779,776.561,376.52z"/>
			</g>
		</g>
	</g>
	<g>
		<g>
			<path d="M778.08,386.039c-0.039,0-0.084,0.004-0.123,0.009c0.01-0.005,0.014-0.005,0.023-0.005
				C778.016,386.039,778.045,386.039,778.08,386.039z"/>
		</g>
		<g>
			<path d="M777.98,386.043c-0.01,0-0.014,0-0.023,0.005c0.039-0.005,0.084-0.009,0.123-0.009
				C778.045,386.039,778.016,386.039,777.98,386.043z"/>
			<path d="M810.43,344.788h-31.367v-3.946c0-0.541-0.438-0.983-0.982-0.983c-0.541,0-0.982,0.442-0.982,0.983v3.945h-31.369
				c-0.539,0.001-0.982,0.438-0.982,0.984c0,0.54,0.443,0.982,0.982,0.982h2.586v40.268c0,0.545,0.438,0.983,0.982,0.983h25.619
				l-19.855,13.558c-0.451,0.305-0.564,0.914-0.26,1.366c0.191,0.275,0.502,0.427,0.811,0.427c0.191,0,0.389-0.054,0.557-0.172
				l20.93-14.29v13.479c0,0.541,0.441,0.983,0.982,0.983c0.545,0,0.982-0.442,0.982-0.983v-13.494l20.949,14.305
				c0.172,0.118,0.365,0.172,0.557,0.172c0.309,0,0.619-0.152,0.811-0.427c0.305-0.452,0.191-1.062-0.256-1.366l-19.859-13.559
				h25.604c0.541,0,0.982-0.438,0.982-0.983v-40.267h2.58c0.545,0,0.984-0.442,0.984-0.983
				C811.414,345.226,810.977,344.788,810.43,344.788z M805.885,386.039H778.08c-0.039,0-0.084,0.004-0.123,0.009
				c0.01-0.005,0.014-0.005,0.023-0.005c0.035-0.004,0.064-0.004,0.1-0.004h-27.801v-39.285h55.605V386.039z"/>
		</g>
		<g>
			<path d="M778.08,386.039c-0.039,0-0.084,0.004-0.123,0.009c0.01-0.005,0.014-0.005,0.023-0.005
				C778.016,386.039,778.045,386.039,778.08,386.039z"/>
		</g>
	</g>
	<text transform="matrix(1 0 0 1 741.043 421.6074)" font-family="'HelveticaNeue-Bold'" font-size="3.7037">Created by Garrett Knoll</text>
	<text transform="matrix(1 0 0 1 741.043 425.3115)" font-family="'HelveticaNeue-Bold'" font-size="3.7037">from the Noun Project</text>
</g>
<g>
	<path d="M716.559,507.832l-4.062-1.764l-2.967-5.473l-0.037-0.604c-2.072,0.551-7.826,1.811-13.568,0.688l-0.123,2.143
		l-4.266,7.979l-8.441,0.928l-4.359-1.949l-2.598-3.152l-1.67-3.988l-0.092-7.516l4.359-7.234l9.09-0.648l3.246,0.648l4.746,7.854
		c2.176-0.424,7.514-1.307,13.357-1.107l-0.109-1.83l3.988-6.586l8.719-0.557l2.674,0.914c-0.137,3.547-0.148,7.408,0.182,10.412
		l-3.916,0.85l-4.398,4.66L716.559,507.832z M737.744,461.232l-15.396,0.156l-3.473,3.303l0.152,9.459l2.926,3.016l0.375,0.271
		l15.215,0.031l3.287-3.207l0.213-9.836L737.744,461.232z M737.617,499.361l-4.186-0.768l-7.424-0.158l-3.697,0.803l-3.557,3.768
		l0.428,9.27l3.857,3.369l2.422,0.611l10.018-0.162l1.932-0.959l2.838-2.271l0.387-10.488L737.617,499.361z M727.539,476.553
		c0,0-1.521,14.807-0.299,21.646c1.225,6.84,5.479,0.297,5.479,0.297s2.248-10.084,0.199-22.125"/>
	<text transform="matrix(1 0 0 1 670.6719 538.7441)" font-family="'HelveticaNeue-Bold'" font-size="3.7037">Created by Cris Dobbins</text>
	<text transform="matrix(1 0 0 1 670.6719 542.4473)" font-family="'HelveticaNeue-Bold'" font-size="3.7037">from the Noun Project</text>
</g>
<g>
	<path d="M564.961,274.049c1.803-1.003,3.17-2.54,3.186-4.503h0.002c-0.016-1.965-1.385-3.502-3.188-4.505
		c-1.826-1.019-4.225-1.602-6.859-1.604c-2.637,0.003-5.035,0.586-6.861,1.604c-1.803,1.003-3.17,2.54-3.188,4.505
		c0.016,1.962,1.385,3.5,3.188,4.503c1.477,0.823,3.33,1.356,5.379,1.534v1.451h-1.744l3.15,5.456l-6.699-0.001
		c-1.4,0.002-2.533,1.134-2.533,2.533l-0.002,3.34l-5.449-3.146v1.897c-6.162,0.335-11.061,5.423-11.061,11.67
		c0,6.463,5.238,11.702,11.705,11.702h5.043c0.115,0.214,0.252,0.42,0.432,0.601l0.047,0.046l6.852,5.369
		c0.104,0.098,0.215,0.179,0.33,0.258v1.408h-1.814l3.076,5.327c-2.576,0.024-4.92,0.603-6.711,1.6
		c-1.803,1.004-3.172,2.542-3.188,4.505c0.016,1.962,1.385,3.5,3.188,4.504c1.826,1.018,4.225,1.601,6.861,1.604
		c2.635-0.004,5.033-0.587,6.859-1.604c1.801-1.004,3.17-2.542,3.186-4.504c-0.016-1.963-1.385-3.501-3.186-4.505
		c-1.791-0.997-4.135-1.575-6.711-1.6l3.076-5.327h-1.676v-1.521c0.061-0.046,0.123-0.085,0.18-0.138l6.867-5.383l0.047-0.046
		c0.484-0.491,0.736-1.141,0.734-1.786c0.002-0.644-0.248-1.298-0.74-1.79l-0.051-0.052l-6.859-5.373
		c-0.467-0.436-1.066-0.661-1.662-0.677l3.16-5.472h-1.742v-1.531h5.293c1.398-0.002,2.531-1.135,2.533-2.534v-6.842
		c-0.004-1.399-1.135-2.532-2.535-2.532h-6.699l3.15-5.456h-1.742v-1.451C561.631,275.405,563.484,274.872,564.961,274.049z
		 M565.926,329.6c0.016,0.796-0.617,1.76-2.049,2.562c-1.406,0.791-3.477,1.326-5.775,1.322c-2.299,0.004-4.369-0.531-5.777-1.322
		c-1.434-0.803-2.066-1.767-2.049-2.562c-0.018-0.798,0.615-1.759,2.049-2.565c1.406-0.789,3.479-1.325,5.777-1.32
		c2.299-0.005,4.367,0.531,5.775,1.32C565.311,327.841,565.941,328.802,565.926,329.6z M558.369,303.758l6.828,5.351
		c0.041,0.055,0.061,0.116,0.062,0.187c-0.002,0.066-0.02,0.13-0.064,0.189l-6.826,5.348l-0.047,0.047
		c-0.062,0.062-0.139,0.09-0.223,0.091c-0.084-0.001-0.158-0.03-0.219-0.089l-0.051-0.051l-6.822-5.345
		c-0.045-0.056-0.064-0.121-0.066-0.19c0.002-0.073,0.02-0.134,0.062-0.187l6.832-5.353l0.045-0.046
		c0.064-0.062,0.135-0.09,0.221-0.091c0.08,0.001,0.156,0.028,0.221,0.094L558.369,303.758z M551.326,294.399h5.293v1.531h-1.744
		l3.16,5.472c-0.598,0.016-1.197,0.238-1.666,0.678l-6.854,5.369l-0.049,0.051c-0.23,0.226-0.398,0.487-0.521,0.764l-4.959-0.002
		c-5.236-0.009-9.471-4.244-9.482-9.479c0.01-5.019,3.904-9.107,8.84-9.447v2.331l5.449-3.147l-0.002,3.347
		c0.004,1.399,1.135,2.531,2.533,2.532 M565.188,285.025v6.841c0,0.171-0.141,0.31-0.311,0.31h-13.551
		c-0.17,0-0.312-0.142-0.312-0.312v-6.841c0-0.17,0.139-0.311,0.312-0.311h13.549C565.045,284.713,565.188,284.854,565.188,285.025z
		 M550.275,269.547c-0.016-0.798,0.617-1.76,2.049-2.564c1.408-0.792,3.479-1.326,5.777-1.322c2.299-0.003,4.369,0.53,5.777,1.322
		c1.432,0.805,2.064,1.767,2.047,2.564h0.002c0.016,0.796-0.617,1.758-2.049,2.564c-1.408,0.79-3.477,1.325-5.777,1.322
		c-2.299,0.003-4.367-0.532-5.777-1.322C550.893,271.304,550.26,270.342,550.275,269.547z"/>
	<text transform="matrix(1 0 0 1 520.7168 349.5938)" font-family="'HelveticaNeue-Bold'" font-size="3.7037">Created by Michael Wohlwend</text>
	<text transform="matrix(1 0 0 1 520.7168 353.2979)" font-family="'HelveticaNeue-Bold'" font-size="3.7037">from the Noun Project</text>
</g>
<g>
	<g>
		<path fill="#969CA8" d="M644.368,109.444h-7.852c-0.741,0-1.333,0.593-1.333,1.333v2.741h-31.704v-2.741
			c0-0.74-0.593-1.333-1.333-1.333h-7.778c-0.741,0-1.333,0.593-1.333,1.333v8.074c0,0.741,0.592,1.333,1.333,1.333h7.853
			c0.74,0,1.333-0.592,1.333-1.333v-2.74h14.593c-0.148,3.259-8.074,18.592-13.111,27.629c-0.297,0.519-0.148,1.186,0.296,1.63
			c4.519,3.852,5.63,7.63,5.927,9.556h-1.704c-0.741,0-1.333,0.593-1.333,1.333v6.519c0,0.741,0.592,1.334,1.333,1.334h19.704
			c0.74,0,1.333-0.593,1.333-1.334v-6.519c0-0.74-0.593-1.333-1.333-1.333h-1.704c0.296-1.926,1.407-5.704,5.926-9.556
			c0.444-0.37,0.593-1.111,0.296-1.63c-5.037-9.037-12.963-24.444-13.111-27.629h14.52v2.74c0,0.741,0.592,1.333,1.333,1.333h7.852
			c0.741,0,1.333-0.592,1.333-1.333v-8.074C645.701,110.037,645.109,109.444,644.368,109.444z M600.887,117.519h-5.26v-5.481h5.26
			V117.519z M619.405,139.222c0.963,0,1.704,0.741,1.704,1.704s-0.741,1.704-1.704,1.704s-1.704-0.741-1.704-1.704
			C617.701,140.037,618.517,139.222,619.405,139.222z M627.998,161.37h-17.111v-3.926h1.777h13.557h1.777V161.37z M624.961,154.852
			H613.85c-0.296-2.148-1.407-6.444-6.074-10.814c1.778-3.26,7.111-13.037,10.297-20.297v13.111
			c-1.704,0.519-2.963,2.148-2.963,4.074c0,2.37,1.926,4.296,4.296,4.296s4.296-1.926,4.296-4.296c0-1.926-1.259-3.481-2.963-4.074
			v-13.186c3.26,7.26,8.52,17.037,10.297,20.371C626.368,148.407,625.258,152.703,624.961,154.852z M643.109,117.519h-5.26v-2.444
			c0-0.074,0-0.148,0-0.223s0-0.148,0-0.222v-2.519h5.26V117.519z"/>
	</g>
	<text transform="matrix(1 0 0 1 582.2207 182.8516)" font-family="'HelveticaNeue-Bold'" font-size="3.7037">Created by Christelle Mozzati</text>
	<text transform="matrix(1 0 0 1 582.2207 186.5557)" font-family="'HelveticaNeue-Bold'" font-size="3.7037">from the Noun Project</text>
</g>
<g>
	<path fill="#313741" d="M232.513,130H200.92c-0.525,0-0.95,0.386-0.95,0.861v43.787c0,0.475,0.425,0.859,0.95,0.859h31.593
		c0.526,0,0.954-0.386,0.954-0.859v-43.786C233.467,130.386,233.039,130,232.513,130z M228.198,132.078
		c1.455,0,2.633,1.181,2.633,2.637c0,1.453-1.178,2.633-2.633,2.633c-1.457,0-2.636-1.182-2.636-2.633
		C225.562,133.258,226.742,132.078,228.198,132.078z M220.652,132.078c1.457,0,2.636,1.181,2.636,2.637
		c0,1.453-1.18,2.633-2.636,2.633c-1.453,0-2.634-1.182-2.634-2.633C218.018,133.258,219.198,132.078,220.652,132.078z
		 M212.783,132.078c1.455,0,2.633,1.181,2.633,2.637c0,1.453-1.179,2.633-2.633,2.633c-1.454,0-2.636-1.182-2.636-2.633
		C210.146,133.258,211.329,132.078,212.783,132.078z M205.235,132.078c1.457,0,2.636,1.181,2.636,2.637
		c0,1.453-1.179,2.633-2.636,2.633c-1.454,0-2.635-1.182-2.635-2.633C202.603,133.258,203.782,132.078,205.235,132.078z
		 M207.564,173.137c0,0.065-0.067,0.119-0.151,0.119h-5.375c-0.082,0-0.15-0.054-0.15-0.119v-3.121c0-0.064,0.068-0.119,0.15-0.119
		h5.375c0.084,0,0.151,0.054,0.151,0.119V173.137z M207.564,167.806c0,0.067-0.067,0.12-0.151,0.12h-5.375
		c-0.082,0-0.15-0.053-0.15-0.12v-3.122c0-0.063,0.068-0.118,0.15-0.118h5.375c0.084,0,0.151,0.054,0.151,0.118V167.806z
		 M215.041,173.137c0,0.065-0.069,0.119-0.149,0.119h-5.378c-0.083,0-0.149-0.054-0.149-0.119v-3.121
		c0-0.064,0.066-0.119,0.149-0.119h5.378c0.081,0,0.149,0.054,0.149,0.119V173.137z M222.799,173.137
		c0,0.065-0.066,0.119-0.149,0.119h-5.375c-0.085,0-0.153-0.054-0.153-0.119v-3.121c0-0.064,0.067-0.119,0.153-0.119h5.375
		c0.083,0,0.149,0.054,0.149,0.119V173.137z M216.637,162.414c-6.429,0-11.64-5.211-11.64-11.639c0-6.428,5.211-11.64,11.64-11.64
		c6.427,0,11.639,5.211,11.639,11.64C228.274,157.202,223.063,162.414,216.637,162.414z M230.691,158.09v6.136
		c0,0.095-0.028,0.17-0.064,0.17h-1.714c-0.036,0-0.063-0.075-0.063-0.17v-6.136c0-0.093,0.027-0.172,0.063-0.172h1.714
		C230.663,157.918,230.691,157.998,230.691,158.09z M230.691,173.126c0,0.071-0.028,0.13-0.064,0.13h-1.714
		c-0.036,0-0.063-0.059-0.063-0.13v-4.66c0-0.071,0.027-0.131,0.063-0.131h1.714c0.036,0,0.064,0.06,0.064,0.131V173.126z
		 M232.23,167.543c0,0.041-0.059,0.074-0.13,0.074h-4.661c-0.072,0-0.131-0.033-0.131-0.074v-1.942c0-0.042,0.059-0.074,0.131-0.074
		h4.661c0.071,0,0.13,0.032,0.13,0.074V167.543z M221.178,150.774c0,2.507-2.034,4.542-4.541,4.542
		c-2.509,0-4.542-2.035-4.542-4.542c0-2.509,2.033-4.542,4.542-4.542C219.144,146.232,221.178,148.266,221.178,150.774z
		 M143.194,130.862v43.786c0,0.476,0.427,0.861,0.953,0.861h31.591c0.526,0,0.953-0.386,0.953-0.861v-43.786
		c0-0.476-0.427-0.861-0.953-0.861h-31.591C143.621,130,143.194,130.386,143.194,130.862z M151.095,134.714
		c0,1.453-1.178,2.633-2.632,2.633s-2.634-1.182-2.634-2.633c0-1.456,1.181-2.637,2.634-2.637
		C149.917,132.078,151.095,133.258,151.095,134.714z M146.032,157.918h1.716c0.035,0,0.064,0.079,0.064,0.172v6.136
		c0,0.095-0.03,0.17-0.064,0.17h-1.716c-0.036,0-0.065-0.075-0.065-0.17v-6.136C145.967,157.998,145.997,157.918,146.032,157.918z
		 M158.642,134.714c0,1.453-1.178,2.633-2.635,2.633c-1.453,0-2.632-1.182-2.632-2.633c0-1.456,1.179-2.637,2.632-2.637
		C157.463,132.078,158.642,133.258,158.642,134.714z M166.513,134.714c0,1.453-1.179,2.633-2.634,2.633
		c-1.454,0-2.634-1.182-2.634-2.633c0-1.456,1.18-2.637,2.634-2.637C165.334,132.078,166.513,133.258,166.513,134.714z
		 M174.059,134.714c0,1.453-1.181,2.633-2.634,2.633c-1.455,0-2.633-1.182-2.633-2.633c0-1.456,1.178-2.637,2.633-2.637
		C172.878,132.078,174.059,133.258,174.059,134.714z M169.095,170.016c0-0.064,0.067-0.119,0.151-0.119h5.376
		c0.083,0,0.15,0.054,0.15,0.119v3.121c0,0.065-0.066,0.119-0.15,0.119h-5.376c-0.083,0-0.151-0.054-0.151-0.119V170.016z
		 M169.095,164.684c0-0.063,0.067-0.118,0.151-0.118h5.376c0.083,0,0.15,0.054,0.15,0.118v3.122c0,0.067-0.066,0.12-0.15,0.12
		h-5.376c-0.083,0-0.151-0.053-0.151-0.12V164.684z M161.621,170.016c0-0.064,0.066-0.119,0.149-0.119h5.376
		c0.082,0,0.15,0.054,0.15,0.119v3.121c0,0.065-0.068,0.119-0.15,0.119h-5.376c-0.083,0-0.149-0.054-0.149-0.119V170.016z
		 M153.861,170.016c0-0.064,0.067-0.119,0.151-0.119h5.375c0.084,0,0.152,0.054,0.152,0.119v3.121c0,0.065-0.068,0.119-0.152,0.119
		h-5.375c-0.084,0-0.151-0.054-0.151-0.119V170.016z M148.387,150.774c0-6.428,5.209-11.64,11.638-11.64
		c6.429,0,11.64,5.211,11.64,11.64c0,6.428-5.21,11.639-11.64,11.639C153.596,162.414,148.387,157.202,148.387,150.774z
		 M145.967,168.465c0-0.072,0.03-0.131,0.065-0.131h1.716c0.035,0,0.064,0.059,0.064,0.131v4.66c0,0.072-0.03,0.131-0.064,0.131
		h-1.716c-0.036,0-0.065-0.06-0.065-0.131V168.465z M144.429,165.601c0-0.042,0.058-0.074,0.13-0.074h4.66
		c0.072,0,0.13,0.032,0.13,0.074v1.944c0,0.041-0.059,0.074-0.13,0.074h-4.659c-0.073,0-0.13-0.033-0.13-0.074L144.429,165.601
		L144.429,165.601z M160.024,146.233c2.511,0,4.543,2.033,4.543,4.542c0,2.507-2.032,4.542-4.543,4.542
		c-2.508,0-4.543-2.035-4.543-4.542C155.481,148.266,157.516,146.233,160.024,146.233z M190.791,138.796
		c0,1.36-1.103,2.46-2.46,2.46c-1.358,0-2.46-1.1-2.46-2.46c0-1.359,1.1-2.459,2.46-2.459
		C189.689,136.337,190.791,137.437,190.791,138.796z M197.076,130h-17.492c-0.292,0-0.526,0.386-0.526,0.861v43.787
		c0,0.475,0.235,0.859,0.526,0.859h17.492c0.291,0,0.527-0.386,0.527-0.859v-43.786C197.604,130.386,197.367,130,197.076,130z
		 M193.227,157.902v6.135c0,0.095-0.029,0.172-0.066,0.172h-1.712c-0.036,0-0.064-0.077-0.064-0.172v-6.135
		c0-0.094,0.029-0.172,0.064-0.172h1.712C193.197,157.729,193.227,157.808,193.227,157.902z M184.924,134.253h6.812v9.084h-6.812
		V134.253z M184.924,145.231h6.812v9.083h-6.812V145.231z M183.434,157.902c0-0.094,0.029-0.172,0.064-0.172h1.713
		c0.037,0,0.066,0.078,0.066,0.172v6.135c0,0.095-0.029,0.172-0.066,0.172h-1.713c-0.037,0-0.064-0.077-0.064-0.172V157.902z
		 M185.279,172.936c0,0.072-0.029,0.129-0.066,0.129H183.5c-0.037,0-0.064-0.058-0.064-0.129v-4.66c0-0.072,0.029-0.13,0.064-0.13
		h1.713c0.038,0,0.066,0.058,0.066,0.13V172.936z M186.817,167.355c0,0.04-0.058,0.074-0.131,0.074h-4.66
		c-0.072,0-0.13-0.034-0.13-0.074v-1.944c0-0.041,0.059-0.074,0.13-0.074h4.66c0.073,0,0.131,0.033,0.131,0.074V167.355z
		 M193.227,172.936c0,0.072-0.029,0.129-0.066,0.129h-1.712c-0.036,0-0.064-0.058-0.064-0.129v-4.66c0-0.072,0.029-0.13,0.064-0.13
		h1.712c0.037,0,0.066,0.058,0.066,0.13V172.936z M194.766,167.355c0,0.04-0.059,0.074-0.132,0.074h-4.658
		c-0.072,0-0.134-0.034-0.134-0.074v-1.944c0-0.041,0.062-0.074,0.134-0.074h4.658c0.073,0,0.132,0.033,0.132,0.074V167.355z
		 M190.791,149.772c0,1.358-1.103,2.459-2.46,2.459c-1.358,0-2.46-1.1-2.46-2.459c0-1.359,1.1-2.459,2.46-2.459
		C189.689,147.312,190.791,148.413,190.791,149.772z"/>
	<text transform="matrix(1 0 0 1 138.1787 220.459)" fill="#313741" font-family="'HelveticaNeue-Bold'" font-size="5.0151">Created by Cris Dobbins</text>
	<text transform="matrix(1 0 0 1 138.1787 225.4761)" fill="#313741" font-family="'HelveticaNeue-Bold'" font-size="5.0151">from the Noun Project</text>
</g>
<g>
	<path d="M68.293,337.721c-7.649,0-13.847,6.199-13.847,13.846s6.198,13.846,13.847,13.846c7.648,0,13.844-6.199,13.844-13.846
		S75.941,337.721,68.293,337.721z M68.313,356.209c-2.573,0-4.662-2.09-4.662-4.666s2.089-4.666,4.662-4.666
		c2.579,0,4.667,2.088,4.667,4.666C72.98,354.119,70.893,356.209,68.313,356.209z M68.293,334.072c-9.662,0-17.5,7.832-17.5,17.494
		s7.838,17.496,17.5,17.496s17.495-7.834,17.495-17.496S77.956,334.072,68.293,334.072z M68.391,368.168
		c-9.116,0-16.504-7.391-16.504-16.506c0-9.117,7.39-16.502,16.504-16.502c9.114,0,16.502,7.385,16.502,16.502
		C84.893,360.777,77.504,368.168,68.391,368.168z M68.293,349.078c-1.375,0-2.49,1.113-2.49,2.488c0,1.373,1.114,2.486,2.49,2.486
		c1.373,0,2.487-1.113,2.487-2.486C70.78,350.191,69.666,349.078,68.293,349.078z M68.293,352.627c-0.589,0-1.061-0.475-1.061-1.061
		s0.472-1.061,1.061-1.061c0.583,0,1.058,0.475,1.058,1.061S68.876,352.627,68.293,352.627z M85.568,309.465H50.693
		c-0.54,0-0.94,0.068-0.94,0.811l0.062,2.332v0.098l0.659,13.062c0,0.713,0.312,0.846,0.626,0.842
		c3.161,0,17.458,0.031,17.458,0.031s13.705,0.066,16.457-0.031c0.816,0.064,0.94-0.715,0.94-0.715l0.53-13.189v-0.031l0.061-2.236
		C86.546,309.693,86.109,309.465,85.568,309.465z M83.529,323.867h-30.94l-0.356-11.4h31.563L83.529,323.867z M92.939,313.354
		h-5.464h-0.004v-0.031h-0.015v0.031l-0.562,13.42c0,0-0.131,0.791-0.988,0.727c-2.902,0.098-17.345,0.031-17.345,0.031
		S53.494,327.5,50.165,327.5c-0.328,0-0.656-0.131-0.656-0.859l-0.693-13.287h-5.488c-0.769,0-1.389,0.615-1.389,1.371v60.033
		c0,0.76,0.62,1.373,1.389,1.373c0,0,9.979,0,9.991,0c0.232,0,0.333-0.15,0.333-0.15l0.787-1.037
		c0.197-0.328,0.263-0.27,0.733-0.264h26.061c0.406,0,0.538,0.033,0.801,0.396c0,0,0.7,0.906,0.683,0.906
		c0.078,0.137,0.293,0.148,0.293,0.148h9.931c0.766,0,1.39-0.611,1.39-1.373v-60.033C94.329,313.969,93.705,313.354,92.939,313.354z
		 M43.539,329.602c0-0.057,0.051-0.1,0.124-0.1h4.088c0.068,0,0.123,0.043,0.123,0.1v1.836c0,0.057-0.055,0.102-0.123,0.102h-4.088
		c-0.072,0-0.124-0.045-0.124-0.102V329.602z M43.539,333.707c0-0.055,0.051-0.1,0.124-0.1h4.088c0.068,0,0.123,0.045,0.123,0.1
		v1.838c0,0.053-0.055,0.098-0.123,0.098h-4.088c-0.072,0-0.124-0.045-0.124-0.098V333.707z M43.539,337.861
		c0-0.057,0.051-0.104,0.124-0.104h4.088c0.068,0,0.123,0.047,0.123,0.104v1.836c0,0.053-0.055,0.098-0.123,0.098h-4.088
		c-0.072,0-0.124-0.045-0.124-0.098V337.861z M43.46,342.15c0-0.115,0.114-0.211,0.256-0.211h3.982c0.137,0,0.25,0.096,0.25,0.211
		v1.65c0,0.117-0.113,0.207-0.25,0.207h-3.982c-0.141,0-0.256-0.09-0.256-0.207V342.15z M45.891,372.279
		c-1.59,0-2.885-1.293-2.885-2.879c0-1.594,1.295-2.885,2.885-2.885c1.588,0,2.884,1.289,2.884,2.885
		C48.773,370.986,47.478,372.279,45.891,372.279z M45.891,365.363c-1.59,0-2.885-1.291-2.885-2.879c0-1.592,1.295-2.883,2.885-2.883
		c1.588,0,2.884,1.289,2.884,2.883C48.773,364.072,47.478,365.363,45.891,365.363z M86.665,372.436H50.083v-43.215h36.583V372.436z
		 M91.26,371.998c0,0.256-0.326,0.465-0.727,0.465c-0.4,0-0.73-0.209-0.73-0.465v-4.67h1.458L91.26,371.998L91.26,371.998z
		 M93.109,365.678c0,0.346-0.298,0.629-0.668,0.629h-4.003c-0.368,0-0.667-0.283-0.667-0.629v-0.594
		c0-0.346,0.298-0.627,0.667-0.627h4.003c0.37,0,0.668,0.281,0.668,0.627V365.678z M89.623,363.584v-15.488
		c0-0.258,0.349-0.465,0.77-0.465c0.424,0,0.77,0.207,0.77,0.465v15.488H89.623z M90.83,321.406c-1.318,0-2.383-1.066-2.383-2.381
		c0-1.318,1.065-2.385,2.383-2.385c1.312,0,2.382,1.066,2.382,2.385C93.211,320.34,92.142,321.406,90.83,321.406z M89.815,319.633
		l1.988-0.004v0.432l-1.988,0.002V319.633z M91.79,319.229l-1.957,0.002l0.958-1.617L91.79,319.229z M57.705,314.098v3.707h-0.751
		v-3.707c0-0.178,0.166-0.316,0.374-0.316C57.538,313.781,57.705,313.92,57.705,314.098z M56.312,314.299v3.506h-0.749v-3.506
		c0-0.172,0.165-0.309,0.375-0.309C56.147,313.99,56.312,314.127,56.312,314.299z M54.921,316.119v1.686h-0.75v-1.686
		c0-0.139,0.143-0.223,0.376-0.223C54.782,315.896,54.921,315.98,54.921,316.119z M59.112,314.197v3.607h-0.75v-3.607
		c0-0.174,0.166-0.312,0.375-0.312C58.948,313.885,59.112,314.023,59.112,314.197z M60.54,313.916v3.889h-0.749v-3.889
		c0-0.182,0.167-0.328,0.373-0.328C60.372,313.588,60.54,313.734,60.54,313.916z M61.93,314.865v2.939h-0.749v-2.939
		c0-0.158,0.162-0.281,0.375-0.281C61.77,314.586,61.93,314.707,61.93,314.865z M63.323,315.971v1.834h-0.75v-1.834
		c0-0.143,0.146-0.232,0.371-0.232C63.178,315.74,63.323,315.826,63.323,315.971z M64.729,316.805v1h-0.749v-1
		c0-0.189,0.261-0.189,0.374-0.189C64.466,316.615,64.729,316.615,64.729,316.805z M66.824,316.838v0.967h-0.749v-0.967
		c0-0.188,0.257-0.188,0.376-0.188C66.573,316.648,66.824,316.648,66.824,316.838z M68.18,315.885v1.92h-0.749v-1.92
		c0-0.141,0.146-0.232,0.375-0.232C68.033,315.652,68.18,315.744,68.18,315.885z M69.606,314.615v3.189h-0.75v-3.189
		c0-0.164,0.167-0.293,0.377-0.293C69.442,314.322,69.606,314.451,69.606,314.615z M70.979,313.514v4.291H70.23v-4.291
		c0-0.191,0.169-0.346,0.374-0.346C70.811,313.168,70.979,313.322,70.979,313.514z M72.408,314.049v3.756h-0.751v-3.756
		c0-0.18,0.165-0.32,0.376-0.32C72.242,313.729,72.408,313.869,72.408,314.049z M73.815,314.164v3.641h-0.751v-3.641
		c0-0.174,0.166-0.312,0.378-0.312C73.652,313.852,73.815,313.99,73.815,314.164z M75.207,314.482v3.322h-0.75v-3.322
		c0-0.17,0.166-0.299,0.376-0.299C75.043,314.184,75.207,314.312,75.207,314.482z M76.616,314.033v3.771h-0.749v-3.771
		c0-0.178,0.167-0.322,0.374-0.322C76.447,313.711,76.616,313.855,76.616,314.033z M78.007,315.717v2.088h-0.749v-2.088
		c0-0.145,0.15-0.24,0.372-0.24C77.856,315.477,78.007,315.574,78.007,315.717z M79.388,316.471v1.334h-0.75v-1.334
		c0-0.096,0.066-0.207,0.374-0.207C79.323,316.264,79.388,316.377,79.388,316.471z M80.807,316.537v1.268h-0.752v-1.268
		c0-0.135,0.127-0.201,0.377-0.201C80.681,316.334,80.807,316.402,80.807,316.537z M82.162,316.938v0.867h-0.753v-0.867
		c0-0.184,0.235-0.184,0.377-0.184C81.926,316.754,82.162,316.754,82.162,316.938z M57.328,322.555
		c-0.208,0-0.374-0.139-0.374-0.316v-3.707h0.751v3.707C57.705,322.416,57.538,322.555,57.328,322.555z M55.938,322.346
		c-0.21,0-0.375-0.135-0.375-0.309v-3.506h0.749v3.506C56.312,322.211,56.147,322.346,55.938,322.346z M54.547,320.439
		c-0.233,0-0.376-0.082-0.376-0.223v-1.686h0.75v1.686C54.921,320.357,54.782,320.439,54.547,320.439z M58.737,322.449
		c-0.21,0-0.375-0.137-0.375-0.311v-3.607h0.75v3.607C59.112,322.312,58.948,322.449,58.737,322.449z M60.164,322.75
		c-0.206,0-0.373-0.148-0.373-0.328v-3.889h0.749v3.889C60.54,322.602,60.372,322.75,60.164,322.75z M61.556,321.75
		c-0.213,0-0.375-0.119-0.375-0.279v-2.939h0.749v2.939C61.93,321.631,61.77,321.75,61.556,321.75z M62.944,320.598
		c-0.226,0-0.371-0.09-0.371-0.23v-1.836h0.75v1.836C63.323,320.51,63.178,320.598,62.944,320.598z M64.355,319.723
		c-0.113,0-0.374,0-0.374-0.189v-1.002h0.749v1.002C64.729,319.723,64.466,319.723,64.355,319.723z M66.451,319.688
		c-0.119,0-0.376,0-0.376-0.188v-0.969h0.75v0.969C66.824,319.688,66.573,319.688,66.451,319.688z M67.806,320.684
		c-0.229,0-0.375-0.092-0.375-0.232v-1.92h0.749v1.92C68.18,320.592,68.033,320.684,67.806,320.684z M69.233,322.014
		c-0.209,0-0.377-0.129-0.377-0.293v-3.189h0.75v3.189C69.606,321.885,69.442,322.014,69.233,322.014z M70.604,323.168
		c-0.205,0-0.374-0.154-0.374-0.346v-4.291h0.749v4.291C70.979,323.014,70.811,323.168,70.604,323.168z M72.033,322.607
		c-0.211,0-0.376-0.139-0.376-0.32v-3.756h0.751v3.756C72.408,322.469,72.242,322.607,72.033,322.607z M73.442,322.486
		c-0.212,0-0.378-0.139-0.378-0.314v-3.641h0.751v3.641C73.815,322.348,73.652,322.486,73.442,322.486z M74.833,322.154
		c-0.21,0-0.376-0.133-0.376-0.301v-3.322h0.75v3.322C75.207,322.021,75.043,322.154,74.833,322.154z M76.241,322.625
		c-0.208,0-0.374-0.143-0.374-0.32v-3.773h0.749v3.773C76.616,322.482,76.447,322.625,76.241,322.625z M77.63,320.859
		c-0.222,0-0.372-0.098-0.372-0.24v-2.088h0.749v2.088C78.007,320.762,77.856,320.859,77.63,320.859z M79.013,320.072
		c-0.308,0-0.374-0.111-0.374-0.205v-1.336h0.75v1.336C79.388,319.961,79.323,320.072,79.013,320.072z M80.433,320.002
		c-0.25,0-0.377-0.068-0.377-0.201v-1.268h0.752v1.268C80.807,319.934,80.681,320.002,80.433,320.002z M81.787,319.582
		c-0.141,0-0.377,0-0.377-0.184v-0.867h0.753v0.867C82.162,319.582,81.926,319.582,81.787,319.582z"/>
	<text transform="matrix(1 0 0 1 31.0972 392.7969)" font-family="'HelveticaNeue-Bold'" font-size="3.7037">Created by Cris Dobbins</text>
	<text transform="matrix(1 0 0 1 31.0972 396.502)" font-family="'HelveticaNeue-Bold'" font-size="3.7037">from the Noun Project</text>
</g>
<g>
	<g id="Layer_1_1_">
		<path d="M78.033,465.995c-7.333,0-13.333,6-13.333,13.333s6,13.333,13.333,13.333c7.333,0,13.333-6,13.333-13.333
			S85.366,465.995,78.033,465.995z M78.033,481.995c-1.481,0-2.667-1.186-2.667-2.667s1.186-2.667,2.667-2.667
			s2.667,1.186,2.667,2.667S79.514,481.995,78.033,481.995z"/>
		<path d="M36.551,465.995c-7.333,0-13.333,6-13.333,13.333s6,13.333,13.333,13.333c7.333,0,13.333-6,13.333-13.333
			S43.884,465.995,36.551,465.995z M36.551,481.995c-1.481,0-2.667-1.186-2.667-2.667s1.186-2.667,2.667-2.667
			s2.667,1.186,2.667,2.667S38.033,481.995,36.551,481.995z"/>
		<g>
			<path d="M55.07,464.143v1.111h-0.741v-1.111c-0.741,0.148-1.481,0.89-1.481,1.778c0,1.037,0.814,1.852,1.852,1.852
				s1.852-0.814,1.852-1.777C56.551,465.105,55.811,464.365,55.07,464.143z"/>
		</g>
		<g>
			<path d="M60.255,464.143v1.111h-0.741v-1.111c-0.741,0.148-1.481,0.89-1.481,1.778c0,1.037,0.815,1.852,1.852,1.852
				c1.037,0,1.852-0.814,1.852-1.777C61.736,465.105,60.996,464.365,60.255,464.143z"/>
		</g>
		<g>
			<path d="M55.07,469.328v1.111h-0.741v-1.111c-0.741,0.148-1.481,0.889-1.481,1.777c0,1.037,0.814,1.853,1.852,1.853
				s1.852-0.815,1.852-1.778C56.551,470.291,55.811,469.55,55.07,469.328z"/>
		</g>
		<g>
			<path d="M60.255,469.328v1.111h-0.741v-1.111c-0.741,0.148-1.481,0.889-1.481,1.777c0,1.037,0.815,1.853,1.852,1.853
				c1.037,0,1.852-0.815,1.852-1.778C61.736,470.291,60.996,469.55,60.255,469.328z"/>
		</g>
		<g>
			<path d="M55.07,474.514v1.11h-0.741v-1.11c-0.741,0.147-1.481,0.889-1.481,1.777c0,1.037,0.814,1.852,1.852,1.852
				s1.852-0.814,1.852-1.777C56.551,475.477,55.811,474.735,55.07,474.514z"/>
		</g>
		<g>
			<path d="M60.255,474.514v1.11h-0.741v-1.11c-0.741,0.147-1.481,0.889-1.481,1.777c0,1.037,0.815,1.852,1.852,1.852
				c1.037,0,1.852-0.814,1.852-1.777C61.736,475.477,60.996,474.735,60.255,474.514z"/>
		</g>
		<g>
			<path d="M55.07,479.698v1.111h-0.741v-1.111c-0.741,0.148-1.481,0.889-1.481,1.778c0,1.037,0.814,1.852,1.852,1.852
				s1.852-0.814,1.852-1.778C56.551,480.661,55.811,479.921,55.07,479.698z"/>
		</g>
		<g>
			<path d="M60.255,479.698v1.111h-0.741v-1.111c-0.741,0.148-1.481,0.889-1.481,1.778c0,1.037,0.815,1.852,1.852,1.852
				c1.037,0,1.852-0.814,1.852-1.778C61.736,480.661,60.996,479.921,60.255,479.698z"/>
		</g>
		<polygon points="56.551,490.439 55.07,490.439 55.07,485.254 54.329,485.254 54.329,490.439 52.848,490.439 52.848,491.18 
			54.329,491.18 54.329,492.661 55.07,492.661 55.07,491.18 56.551,491.18 		"/>
		<polygon points="61.736,486.735 60.255,486.735 60.255,485.254 59.514,485.254 59.514,486.735 58.033,486.735 58.033,487.477 
			59.514,487.477 59.514,492.661 60.255,492.661 60.255,487.477 61.736,487.477 		"/>
		<polygon points="64.699,497.847 58.773,497.847 58.773,495.624 55.811,495.624 55.811,497.847 49.884,497.847 49.884,499.328 
			55.811,499.328 55.811,501.549 58.773,501.549 58.773,499.328 64.699,499.328 		"/>
		<rect x="23.958" y="458.587" width="3.704" height="3.704"/>
		<rect x="29.144" y="458.587" width="3.704" height="3.704"/>
		<rect x="34.329" y="458.587" width="3.704" height="3.704"/>
		<rect x="39.514" y="458.587" width="3.704" height="3.704"/>
		<rect x="44.699" y="458.587" width="3.704" height="3.704"/>
		<rect x="66.181" y="458.587" width="3.704" height="3.704"/>
		<rect x="71.366" y="458.587" width="3.704" height="3.704"/>
		<rect x="76.551" y="458.587" width="3.704" height="3.704"/>
		<rect x="81.736" y="458.587" width="3.704" height="3.704"/>
		<rect x="86.921" y="458.587" width="3.704" height="3.704"/>
		<rect x="34.329" y="497.105" width="4.444" height="2.963"/>
		<rect x="28.403" y="497.105" width="4.445" height="2.963"/>
		<rect x="40.255" y="497.105" width="4.444" height="2.963"/>
		<rect x="75.811" y="497.105" width="4.444" height="2.963"/>
		<rect x="69.884" y="497.105" width="4.445" height="2.963"/>
		<rect x="81.736" y="497.105" width="4.444" height="2.963"/>
		<path d="M92.848,456.958v46.665H21.736v-46.665H92.848 M94.329,455.477H20.255v49.629h74.074V455.477L94.329,455.477z"/>
	</g>
	<g id="Layer_2">
	</g>
	<text transform="matrix(1 0 0 1 20.2549 536.7354)" font-family="'HelveticaNeue-Bold'" font-size="3.7037">Created by Adomas Tautkus</text>
	<text transform="matrix(1 0 0 1 20.2549 540.4395)" font-family="'HelveticaNeue-Bold'" font-size="3.7037">from the Noun Project</text>
</g>
<g>
	<g id="Capa_69_1_">
		<g>
			<circle fill="#008CDC" cx="40.471" cy="23.922" r="7.329"/>
			<circle fill="#313741" cx="5.333" cy="23.922" r="5.131"/>
			<circle fill="#313741" cx="5.333" cy="5.243" r="5.131"/>
			<circle fill="#313741" cx="5.333" cy="42.599" r="5.131"/>
			<path fill="#313741" d="M30.886,26.173h-3.167c-2.188,0-3.969,2.302-3.969,5.129v6.968c0,1.944-1.583,3.526-3.527,3.526h-5.01
				l1.696-1.696c0.314-0.313,0.314-0.823,0-1.134c-0.314-0.315-0.822-0.315-1.135,0l-3.066,3.068
				c-0.074,0.073-0.133,0.166-0.173,0.261c-0.082,0.199-0.082,0.42,0,0.614c0.041,0.096,0.099,0.188,0.173,0.261l3.066,3.068
				c0.157,0.159,0.362,0.236,0.567,0.236s0.411-0.078,0.567-0.236c0.314-0.314,0.314-0.822,0-1.134l-1.696-1.695h5.01
				c2.829,0,5.132-2.302,5.132-5.131V31.31c0-1.913,1.083-3.525,2.364-3.525h3.167c0.443,0,0.803-0.359,0.803-0.802
				C31.687,26.538,31.33,26.173,30.886,26.173z"/>
			<path fill="#313741" d="M30.886,23.118H15.212l1.696-1.697c0.314-0.313,0.314-0.821,0-1.134c-0.314-0.314-0.822-0.314-1.135,0
				l-3.066,3.065c-0.074,0.074-0.133,0.164-0.173,0.261c-0.082,0.197-0.082,0.417,0,0.614c0.041,0.097,0.099,0.188,0.173,0.261
				l3.066,3.068c0.157,0.157,0.362,0.235,0.567,0.235s0.411-0.078,0.567-0.235c0.314-0.315,0.314-0.823,0-1.135l-1.696-1.693h15.674
				c0.444,0,0.803-0.36,0.803-0.804C31.688,23.482,31.33,23.118,30.886,23.118z"/>
			<path fill="#313741" d="M30.886,20.064h-3.167c-1.281,0-2.364-1.616-2.364-3.526V9.571c0-2.829-2.302-5.131-5.132-5.131h-5.011
				l1.696-1.697c0.314-0.313,0.314-0.821,0-1.135c-0.314-0.314-0.822-0.314-1.135,0l-3.066,3.066
				c-0.074,0.074-0.133,0.163-0.173,0.261c-0.082,0.196-0.082,0.417,0,0.614c0.041,0.097,0.099,0.187,0.173,0.261l3.066,3.065
				c0.157,0.157,0.362,0.236,0.567,0.236s0.411-0.079,0.567-0.236c0.314-0.313,0.314-0.821,0-1.135l-1.696-1.696h5.01
				c1.944,0,3.526,1.583,3.526,3.525v6.967c0,2.829,1.781,5.131,3.97,5.131h3.167c0.443,0,0.803-0.359,0.803-0.803
				C31.688,20.423,31.33,20.064,30.886,20.064z"/>
			<circle fill="#313741" cx="75.38" cy="23.922" r="5.131"/>
			<circle fill="#313741" cx="75.38" cy="5.243" r="5.131"/>
			<circle fill="#313741" cx="75.38" cy="42.599" r="5.131"/>
			<path fill="#313741" d="M68.183,42.292c-0.042-0.097-0.101-0.188-0.172-0.261l-3.068-3.065c-0.314-0.317-0.822-0.317-1.135,0
				c-0.314,0.312-0.314,0.822,0,1.134l1.697,1.696h-5.01c-1.946,0-3.524-1.581-3.524-3.525v-6.968c0-2.829-1.781-5.131-3.97-5.131
				h-3.167c-0.443,0-0.803,0.359-0.803,0.802c0,0.443,0.36,0.802,0.803,0.802H53c1.284,0,2.361,1.617,2.361,3.525v6.968
				c0,2.829,2.303,5.131,5.133,5.131h5.01l-1.697,1.693c-0.314,0.316-0.314,0.824,0,1.136c0.16,0.159,0.362,0.236,0.57,0.236
				c0.208,0,0.411-0.077,0.568-0.236l3.068-3.068c0.073-0.073,0.132-0.164,0.174-0.262C68.262,42.71,68.262,42.489,68.183,42.292z"
				/>
			<path fill="#313741" d="M68.007,23.353l-3.067-3.065c-0.314-0.314-0.821-0.314-1.134,0c-0.316,0.312-0.316,0.821,0,1.134
				l1.696,1.697H49.828c-0.444,0-0.804,0.359-0.804,0.803s0.36,0.804,0.804,0.804h15.674l-1.697,1.695
				c-0.316,0.315-0.316,0.823,0,1.135c0.158,0.156,0.362,0.235,0.569,0.235s0.411-0.079,0.567-0.235l3.067-3.069
				c0.073-0.072,0.131-0.163,0.174-0.26c0.08-0.197,0.08-0.418,0-0.615C68.141,23.517,68.081,23.426,68.007,23.353z"/>
			<path fill="#313741" d="M68.007,4.675L64.94,1.61c-0.314-0.314-0.821-0.314-1.134,0c-0.316,0.313-0.316,0.822,0,1.135
				l1.696,1.697h-5.01c-2.831,0-5.133,2.302-5.133,5.131v6.966c0,1.912-1.083,3.526-2.363,3.526h-3.167
				c-0.444,0-0.803,0.358-0.803,0.802c0,0.444,0.359,0.804,0.803,0.804h3.167c2.189,0,3.97-2.302,3.97-5.131V9.573
				c0-1.944,1.581-3.526,3.526-3.526h5.01l-1.696,1.696c-0.316,0.313-0.316,0.822,0,1.135c0.158,0.157,0.362,0.235,0.568,0.235
				c0.207,0,0.411-0.078,0.567-0.235l3.067-3.065c0.074-0.075,0.132-0.164,0.174-0.262c0.081-0.195,0.081-0.418,0-0.613
				C68.141,4.838,68.081,4.75,68.007,4.675z"/>
		</g>
	</g>
	<text transform="matrix(1 0 0 1 -4.2583 84.1514)" fill="#969CA8" font-family="'HelveticaNeue-Bold'" font-size="4.4616">Created by Juan Pablo Bravo</text>
	<text transform="matrix(1 0 0 1 -4.2583 88.6138)" fill="#969CA8" font-family="'HelveticaNeue-Bold'" font-size="4.4616">from the Noun Project</text>
</g>
<text transform="matrix(1 0 0 1 412.2891 537.0498)" font-family="'HelveticaNeue-Bold'" font-size="3.7037">Created by Travis J. Lee</text>
<text transform="matrix(1 0 0 1 412.2891 540.7539)" font-family="'HelveticaNeue-Bold'" font-size="3.7037">from the Noun Project</text>
<g id="Capa_69">
	<g>
		<circle cx="575.113" cy="488.375" r="6.084"/>
		<circle cx="545.945" cy="488.375" r="4.26"/>
		<circle cx="545.945" cy="472.869" r="4.26"/>
		<circle cx="545.945" cy="503.88" r="4.259"/>
		<path d="M567.156,490.244h-2.629c-1.816,0-3.295,1.91-3.295,4.258v5.785c0,1.613-1.312,2.926-2.928,2.926h-4.16l1.408-1.408
			c0.262-0.26,0.262-0.682,0-0.941c-0.26-0.262-0.682-0.262-0.941,0l-2.545,2.547c-0.062,0.061-0.111,0.139-0.145,0.217
			c-0.068,0.166-0.068,0.35,0,0.51c0.033,0.08,0.082,0.156,0.145,0.217l2.545,2.547c0.131,0.133,0.301,0.197,0.471,0.197
			s0.342-0.064,0.471-0.197c0.262-0.26,0.262-0.682,0-0.941l-1.408-1.406h4.16c2.348,0,4.26-1.912,4.26-4.26v-5.785
			c0-1.588,0.898-2.926,1.963-2.926h2.629c0.367,0,0.666-0.297,0.666-0.666S567.525,490.244,567.156,490.244z"/>
		<path d="M567.156,487.707h-13.012l1.408-1.408c0.262-0.26,0.262-0.682,0-0.941c-0.26-0.26-0.682-0.26-0.941,0l-2.545,2.545
			c-0.062,0.062-0.111,0.137-0.145,0.217c-0.068,0.164-0.068,0.348,0,0.51c0.033,0.082,0.082,0.156,0.145,0.217l2.545,2.547
			c0.131,0.131,0.301,0.195,0.471,0.195s0.342-0.064,0.471-0.195c0.262-0.262,0.262-0.684,0-0.941l-1.408-1.406h13.012
			c0.369,0,0.668-0.299,0.668-0.666C567.824,488.01,567.525,487.707,567.156,487.707z"/>
		<path d="M567.156,485.172h-2.629c-1.062,0-1.961-1.34-1.961-2.926v-5.783c0-2.35-1.912-4.26-4.26-4.26h-4.162l1.408-1.408
			c0.262-0.26,0.262-0.682,0-0.943c-0.26-0.26-0.682-0.26-0.941,0l-2.545,2.547c-0.062,0.061-0.111,0.135-0.145,0.217
			c-0.068,0.162-0.068,0.346,0,0.51c0.033,0.08,0.082,0.154,0.145,0.217l2.545,2.545c0.131,0.131,0.301,0.195,0.471,0.195
			s0.342-0.064,0.471-0.195c0.262-0.26,0.262-0.682,0-0.943l-1.408-1.408h4.16c1.613,0,2.928,1.314,2.928,2.928v5.783
			c0,2.348,1.479,4.26,3.295,4.26h2.629c0.367,0,0.666-0.299,0.666-0.666C567.822,485.471,567.525,485.172,567.156,485.172z"/>
		<circle cx="604.094" cy="488.375" r="4.26"/>
		<circle cx="604.094" cy="472.869" r="4.26"/>
		<circle cx="604.094" cy="503.88" r="4.259"/>
		<path d="M598.119,503.625c-0.035-0.08-0.084-0.156-0.145-0.217l-2.545-2.545c-0.262-0.264-0.684-0.264-0.943,0
			c-0.26,0.26-0.26,0.682,0,0.941l1.408,1.408h-4.158c-1.615,0-2.926-1.312-2.926-2.928v-5.783c0-2.35-1.479-4.26-3.295-4.26h-2.629
			c-0.369,0-0.666,0.297-0.666,0.664c0,0.369,0.297,0.666,0.666,0.666h2.629c1.064,0,1.959,1.342,1.959,2.928v5.783
			c0,2.35,1.912,4.26,4.262,4.26h4.158l-1.408,1.406c-0.26,0.262-0.26,0.684,0,0.943c0.133,0.131,0.301,0.195,0.473,0.195
			c0.174,0,0.342-0.064,0.473-0.195l2.547-2.547c0.061-0.061,0.109-0.137,0.145-0.217
			C598.184,503.973,598.184,503.789,598.119,503.625z"/>
		<path d="M597.973,487.902l-2.547-2.545c-0.26-0.26-0.682-0.26-0.941,0c-0.262,0.26-0.262,0.682,0,0.941l1.41,1.408h-13.014
			c-0.367,0-0.666,0.299-0.666,0.668c0,0.367,0.299,0.666,0.666,0.666h13.012l-1.408,1.408c-0.262,0.262-0.262,0.684,0,0.941
			c0.131,0.131,0.301,0.195,0.473,0.195s0.34-0.064,0.471-0.195l2.547-2.547c0.059-0.061,0.107-0.135,0.143-0.217
			c0.066-0.162,0.066-0.346,0-0.51C598.084,488.039,598.033,487.965,597.973,487.902z"/>
		<path d="M597.973,472.398l-2.547-2.545c-0.26-0.262-0.682-0.262-0.941,0c-0.262,0.26-0.262,0.682,0,0.941l1.41,1.408h-4.16
			c-2.35,0-4.26,1.912-4.26,4.26v5.783c0,1.588-0.898,2.928-1.963,2.928h-2.629c-0.367,0-0.666,0.297-0.666,0.666
			c0,0.367,0.299,0.666,0.666,0.666h2.629c1.818,0,3.297-1.91,3.297-4.26v-5.783c0-1.613,1.311-2.926,2.926-2.926h4.16l-1.41,1.408
			c-0.262,0.26-0.262,0.682,0,0.941c0.133,0.131,0.301,0.195,0.473,0.195s0.34-0.064,0.471-0.195l2.547-2.545
			c0.061-0.061,0.109-0.135,0.145-0.217c0.066-0.162,0.066-0.348,0-0.51C598.084,472.533,598.033,472.459,597.973,472.398z"/>
	</g>
</g>
<text transform="matrix(1 0 0 1 537.9824 538.375)" font-family="'HelveticaNeue-Bold'" font-size="3.7037">Created by Juan Pablo Bravo</text>
<text transform="matrix(1 0 0 1 537.9824 542.0781)" font-family="'HelveticaNeue-Bold'" font-size="3.7037">from the Noun Project</text>
<rect x="-245" y="-63" fill="#008CDC" width="71" height="71"/>
<rect x="-245" y="8" fill="#74187F" width="71" height="72"/>
<rect x="-157" y="-64" fill="#F1F4F6" width="71" height="71"/>
<rect x="-245" y="79" fill="#3A1940" width="71" height="71"/>
<rect x="-157" y="6" fill="#E9E9E9" width="71" height="71"/>
<rect x="-157" y="77" fill="#969CA8" width="71" height="71"/>
<rect x="-157" y="148" fill="#4C5464" width="71" height="71"/>
<path fill="#313741" d="M241.548,57.813h-9.811V15.316c0-1.144-0.514-2.167-1.326-2.854c-0.683-0.827-1.72-1.354-2.883-1.354
	h-77.529c-2.069,0-3.734,1.672-3.734,3.735v42.505c0,0.16,0.013,0.312,0.032,0.464h-9.847v1.866c0,1.007,0.492,1.92,1.289,2.591
	c0.828,0.982,2.214,1.624,3.787,1.624h95.426c2.543,0,4.601-1.671,4.601-3.741v-1.865 M149.531,14.841h78.463v40.173h-78.463V14.841
	z M188.761,12.044c0.522,0,0.937,0.419,0.937,0.93c0,0.516-0.414,0.943-0.937,0.943c-0.51,0-0.931-0.427-0.931-0.943
	C187.83,12.465,188.251,12.044,188.761,12.044z M181.757,59.313v-1.127h14.01v1.127H181.757z"/>
<text transform="matrix(1 0 0 1 134.1699 76.2637)" font-family="'HelveticaNeue-Bold'" font-size="2.8417">Created by Wilson Joseph</text>
<text transform="matrix(1 0 0 1 134.1699 79.1055)" font-family="'HelveticaNeue-Bold'" font-size="2.8417">from the Noun Project</text>
<g>
	<path fill="#008CDC" d="M203.429,21.644h-3.982c-0.375,0-0.676,0.301-0.676,0.676v1.391h-16.077V22.32
		c0-0.375-0.3-0.676-0.676-0.676h-3.944c-0.376,0-0.676,0.301-0.676,0.676v4.095c0,0.376,0.3,0.676,0.676,0.676h3.982
		c0.375,0,0.676-0.3,0.676-0.676v-1.39h7.399c-0.075,1.652-4.094,9.428-6.649,14.01c-0.15,0.263-0.075,0.601,0.15,0.826
		c2.292,1.953,2.855,3.87,3.005,4.846h-0.864c-0.376,0-0.676,0.3-0.676,0.676v3.305c0,0.375,0.3,0.676,0.676,0.676h9.992
		c0.375,0,0.676-0.301,0.676-0.676v-3.305c0-0.376-0.301-0.676-0.676-0.676h-0.864c0.149-0.977,0.713-2.893,3.004-4.846
		c0.225-0.187,0.301-0.563,0.15-0.826c-2.555-4.583-6.573-12.395-6.649-14.01h7.363v1.39c0,0.376,0.3,0.676,0.676,0.676h3.982
		c0.375,0,0.676-0.3,0.676-0.676V22.32C204.104,21.945,203.804,21.644,203.429,21.644z M181.379,25.738h-2.667v-2.779h2.667V25.738z
		 M190.77,36.744c0.489,0,0.864,0.376,0.864,0.864s-0.375,0.864-0.864,0.864c-0.488,0-0.864-0.376-0.864-0.864
		C189.906,37.158,190.319,36.744,190.77,36.744z M195.127,47.975h-8.677v-1.991h0.901h6.874h0.902V47.975z M193.587,44.669h-5.634
		c-0.15-1.09-0.714-3.268-3.081-5.484c0.902-1.653,3.606-6.611,5.222-10.292v6.649c-0.864,0.263-1.502,1.089-1.502,2.066
		c0,1.202,0.977,2.179,2.178,2.179s2.178-0.977,2.178-2.179c0-0.977-0.638-1.765-1.502-2.066v-6.686
		c1.653,3.681,4.321,8.639,5.222,10.33C194.301,41.401,193.738,43.58,193.587,44.669z M202.79,25.738h-2.667v-1.239
		c0-0.038,0-0.076,0-0.113c0-0.038,0-0.076,0-0.112v-1.277h2.667V25.738z"/>
</g>
<g>
	<g>
		<path fill="#313741" d="M360.95,157.924c0.785,2.902-0.547,6.231-3.014,7.219c-15.289,6.133-31.559,6.322-46.986,0.546
			c-2.49-0.931-3.898-4.229-3.18-7.147l0,0c0.72-2.924,3.072-4.467,5.285-3.643c13.963,5.228,28.688,5.057,42.527-0.494
			C357.774,153.529,360.161,155.019,360.95,157.924L360.95,157.924z"/>
		<g>
			<path fill="#313741" d="M308.802,146.872c1.056,0.502,0.936,1.401,0.853,2.009c-0.086,0.639,1.294,0.747,1.708,0.582
				c1.137-0.456,2.408-0.966,3.504-0.712c0.887,0.206,1.253,0.968,1.613,1.719c0.169,0.352,0.658,1.434,2.151,0.529
				c0.979-0.594,2.132-1.161,3.229-1.022c0.998,0.125,1.506,0.927,2.13,1.613c1.052,1.157,1.914,0.542,2.298,0.271
				c0.887-0.629,1.874-1.331,2.993-1.285c1.048,0.041,1.79,0.748,2.521,1.443c1.267,1.206,1.628,0.863,2.656-0.022
				c0.8-0.688,1.612-1.387,2.692-1.431c1.137-0.046,2.154,0.633,3.068,1.242c1.516,1.012,1.861,0.668,2.681-0.289
				c0.628-0.735,1.267-1.48,2.298-1.606c1.126-0.137,2.278,0.458,3.309,0.989c1.136,0.586,1.996,0.378,2.541-0.556
				c0.436-0.745,0.877-1.5,1.805-1.696c1.14-0.24,2.438,0.273,3.596,0.73c0.438,0.172,2.191,0.582,2.098-0.621
				c-0.047-0.604-0.012-1.505,1.17-1.948c0.152-0.058,0.329-0.074,0.51-0.056c-1.094-1.758-2.928-2.521-4.645-1.836
				c-13.84,5.551-28.564,5.722-42.527,0.494c-1.564-0.583-3.197,0.018-4.275,1.451C308.787,146.867,308.794,146.869,308.802,146.872
				z"/>
			<path fill="#008CDC" d="M369.439,150.205c-1.026-2.8-4.171-4.226-7.067-3.373c-0.409,0.121-1.188,0.3-1.076,0.539
				c-0.023-0.002-0.046-0.004-0.066-0.004c-0.416,0.028-0.511,1.235-0.511,1.235c-0.03,0.123-0.03,0.294-0.021,0.551
				c0.027,0.737,0.066,1.878-1.74,2.384c-0.9,0.252-2.027-0.202-3.107-0.638c-1.686-0.68-2.202-0.682-2.802,0.409
				c-0.471,0.85-1.015,1.835-2.235,2.048c-1.082,0.187-2.203-0.408-3.273-0.972c-1.37-0.725-2.021-0.695-2.818,0.271
				c-0.654,0.797-1.413,1.72-2.654,1.827c-1.164,0.098-2.185-0.602-3.156-1.269c-1.501-1.032-1.805-0.882-2.876,0.071
				c-0.827,0.735-1.784,1.585-3.032,1.585c-1.226,0-2.104-0.864-2.863-1.613c-0.318-0.312-1.141-1.088-2.507-0.036
				c-0.915,0.705-1.915,1.396-3.041,1.302c-1.22-0.104-1.901-1.041-2.491-1.85c-0.238-0.328-0.787-1.064-2.463-0.221
				c-1.062,0.535-2.127,1.187-3.175,0.995c-1.194-0.22-1.647-1.225-2.037-2.093c-0.145-0.321-0.812-1.173-2.462-0.375
				c-1.031,0.499-2.168,0.889-3.031,0.61c-1.729-0.558-1.533-1.765-1.42-2.469c0.072-0.446,0.025-0.838-0.072-0.942
				c0.034-0.14-0.565-0.363-0.556-0.467c-0.423-0.108-0.22-0.113-0.643-0.227c-2.916-0.786-6.027,0.711-6.988,3.536
				c-0.961,2.818,0.885,5.994,4.168,6.881c0.963,0.261,1.928,0.509,2.896,0.744c0.035-0.232,0.082-0.465,0.139-0.696
				c0.72-2.926,2.886-4.892,5.391-4.892c0.568,0,1.132,0.103,1.677,0.305c6.582,2.465,13.567,4.399,20.373,4.399
				c0,0,0.001,0,0.002,0c7.241,0,14.237-2.097,21.178-4.881c0.576-0.23,1.174-0.347,1.779-0.347c2.453,0,4.621,1.916,5.395,4.767
				c0.064,0.241,0.118,0.484,0.159,0.728c1.01-0.268,2.017-0.551,3.021-0.849C368.694,156.218,370.466,153.001,369.439,150.205z"/>
		</g>
	</g>
	<g>
		<path fill="#313741" d="M326.922,132.464c0.779-1.753,0.974-3.701,0.39-5.649c-0.39-1.559-2.143-2.728-3.701-1.948
			c0,0-0.194,0.194-0.194,0.389c0.194,1.559,0.974,2.922,0.585,4.48c-0.585,1.948-1.947,3.312-2.532,5.259
			c-0.585,1.753-0.39,3.702,0.389,5.26c0.537,0.895,1.114,1.646,3.015,1.646c0.469,0,0.848-0.38,0.848-0.848
			c0-0.131-1.434-3.417-0.551-5.279C325.753,134.606,326.532,133.633,326.922,132.464z"/>
		<path fill="#313741" d="M346.874,132.464c0.78-1.753,0.974-3.701,0.389-5.649c-0.389-1.559-2.143-2.728-3.7-1.948
			c0,0-0.194,0.194-0.194,0.389c0.194,1.559,0.974,2.922,0.585,4.48c-0.585,1.948-1.949,3.312-2.533,5.259
			c-0.585,1.753-0.39,3.702,0.39,5.26c0.537,0.895,1.115,1.646,3.014,1.646c0.469,0,0.848-0.38,0.848-0.848
			c0-0.131-1.434-3.417-0.551-5.279C345.707,134.606,346.485,133.633,346.874,132.464z"/>
		<path fill="#313741" d="M337.829,131.295c0.391-1.169,0.197-2.338,0.197-3.506c0-0.779-0.197-1.364-0.391-2.143
			c-0.018-0.076-0.069-0.155-0.103-0.226c-0.035-0.075-0.071-0.149-0.107-0.223c-0.075-0.147-0.156-0.292-0.246-0.431
			c-0.185-0.284-0.409-0.54-0.659-0.769c-0.251-0.231-0.527-0.441-0.826-0.604c-0.289-0.156-0.607-0.264-0.936-0.278
			c-0.263-0.011-0.527,0.023-0.784,0.078c-0.252,0.054-0.522,0.104-0.726,0.276c-0.049,0.042-0.095,0.093-0.129,0.149
			c-0.076,0.122-0.055,0.238-0.014,0.368c0.025,0.082,0.035,0.167,0.058,0.249c0.026,0.103,0.053,0.204,0.08,0.306
			c0.055,0.207,0.111,0.412,0.169,0.618c0.116,0.418,0.235,0.835,0.346,1.254c0.108,0.408,0.211,0.819,0.283,1.235
			c0.072,0.41,0.109,0.826,0.069,1.241c-0.041,0.439-0.171,0.861-0.317,1.275c-0.018,0.05-0.032,0.105-0.055,0.154
			c-0.974,2.143-2.338,3.896-2.922,6.233c-0.584,2.338-0.584,5.064,0.975,7.013c0.779,0.778,2.143,1.559,3.312,0.778
			c0.194-0.194,0.39-0.39,0.39-0.584c0-0.39,0-0.584-0.195-0.974c-0.779-1.753-0.974-3.702-0.391-5.454
			C335.882,135.191,337.247,133.438,337.829,131.295z"/>
	</g>
</g>
<text transform="matrix(1 0 0 1 309.4805 203.1113)" font-family="'HelveticaNeue-Bold'" font-size="3.7037">Created by Andrew Cameron</text>
<text transform="matrix(1 0 0 1 314.0391 192.8145)" font-family="'HelveticaNeue-Bold'" font-size="3.7037">from the Noun Project</text>
<g>
	<circle fill="#008CDC" cx="216.637" cy="150.776" r="4.542"/>
	<circle fill="#008CDC" cx="160.024" cy="150.778" r="4.542"/>
</g>
</svg>
