<?xml version="1.0" encoding="utf-8"?>
<!-- Generator: Adobe Illustrator 16.0.0, SVG Export Plug-In . SVG Version: 6.00 Build 0)  -->
<!DOCTYPE svg PUBLIC "-//W3C//DTD SVG 1.1//EN" "http://www.w3.org/Graphics/SVG/1.1/DTD/svg11.dtd">
<svg version="1.1" id="Layer_1" xmlns="http://www.w3.org/2000/svg" xmlns:xlink="http://www.w3.org/1999/xlink" x="0px" y="0px"
	 width="106px" height="53px" viewBox="0 0 106 53" enable-background="new 0 0 106 53" xml:space="preserve">
<path fill="#98A5AF" d="M337.418,475.309h-0.422c-0.934,0-1.691,0.681-1.691,1.522v21.489c0,0.842,0.758,1.521,1.691,1.521h0.422
	c0.934,0,1.689-0.68,1.689-1.521v-21.489C339.107,475.989,338.352,475.309,337.418,475.309z"/>
<path fill="#98A5AF" d="M343.102,477.02h-0.951c-0.84,0-1.52,0.681-1.52,1.521v17.117c0,0.84,0.68,1.521,1.52,1.521h0.951
	c0.84,0,1.523-0.682,1.523-1.521v-17.117C344.623,477.701,343.941,477.02,343.102,477.02z"/>
<polygon fill="#98A5AF" points="347.287,485.674 347.287,483.154 345.701,483.154 345.701,483.866 345.701,490.762 347.256,490.762 
	347.256,488.764 351.852,488.764 351.852,485.674 "/>
<path fill="#98A5AF" d="M297.67,475.309h-0.424c-0.934,0-1.689,0.681-1.689,1.522v21.489c0,0.842,0.756,1.521,1.689,1.521h0.424
	c0.932,0,1.691-0.68,1.691-1.521v-21.489C299.359,475.989,298.602,475.309,297.67,475.309z"/>
<path fill="#98A5AF" d="M292.514,477.971h-0.951c-0.84,0-1.521,0.682-1.521,1.521v17.117c0,0.842,0.68,1.521,1.521,1.521h0.951
	c0.838,0,1.521-0.68,1.521-1.521v-17.117C294.033,478.652,293.352,477.971,292.514,477.971z"/>
<polygon fill="#98A5AF" points="287.41,485.674 282.814,485.674 282.814,488.764 287.379,488.764 287.379,490.762 288.961,490.762 
	288.961,483.154 287.41,483.154 "/>
<polygon fill="#0E84E5" points="332.799,485.642 306.207,485.642 305.381,485.642 301.643,485.642 301.643,483.17 300.057,483.17 
	300.057,483.486 300.057,490.84 301.611,490.84 301.611,488.748 305.381,488.748 306.207,488.748 332.768,488.748 332.768,490.762 
	334.354,490.762 334.354,483.154 332.799,483.154 "/>
<path stroke="#000000" stroke-width="2.4236" stroke-miterlimit="10" d="M289.504,431.356"/>
<path fill="none" d="M275.066,395.346v1.328h-4.938v-2.021h-14.576v2.021h-2.02v14.936h2.02v2.078h14.574v-2.078h4.939v1.371
	c1.107-0.374,2.053-0.889,2.807-1.559c1.443-1.283,2.27-3.309,2.475-6.023h-1.916v-4.936h1.541c-0.406-1.518-1.102-2.724-2.094-3.59
	C277.123,396.217,276.176,395.713,275.066,395.346z"/>
<path d="M289.682,422.361c1.209,1.051,2.207,2.309,2.971,3.739c0.77,1.438,1.336,3.051,1.691,4.786
	c0.355,1.754,0.604,3.535,0.734,5.291c0.066,1.125,0.131,2.442,0.199,3.96c0.062,1.522,0.18,3.103,0.348,4.689
	c0.168,1.601,0.438,3.14,0.805,4.575c0.094,0.36,0.201,0.703,0.316,1.039h0.957c-0.15-0.402-0.289-0.818-0.4-1.262
	c-0.359-1.393-0.623-2.888-0.783-4.446c-0.166-1.57-0.283-3.129-0.346-4.636c-0.068-1.521-0.133-2.844-0.201-3.979
	c-0.133-1.801-0.385-3.622-0.75-5.41c-0.371-1.822-0.971-3.514-1.779-5.03c-0.814-1.527-1.881-2.871-3.176-3.995
	c-0.742-0.646-1.615-1.193-2.586-1.652v0.992C288.426,421.408,289.096,421.852,289.682,422.361z"/>
<path d="M284.102,384.061c1.842,0.742,3.498,1.699,4.951,2.848v-0.434h0.875c-1.598-1.321-3.43-2.417-5.488-3.247
	c-1.25-0.503-2.582-0.882-3.988-1.144V383C281.736,383.25,282.959,383.601,284.102,384.061z"/>
<path d="M293.402,412.228c-1.279,2.221-3.197,4.059-5.721,5.488v1.022c2.881-1.541,5.064-3.57,6.498-6.062
	c1.234-2.14,2.037-4.581,2.42-7.277h-0.906C295.318,407.932,294.559,410.222,293.402,412.228z"/>
<rect x="239.986" y="381.659" width="35.527" height="0.897"/>
<rect x="237.068" y="384.576" width="0.896" height="65.865"/>
<path d="M281.795,444.849c-0.197-3.09-0.498-6.103-0.895-8.959c-0.223-1.546-0.557-2.921-0.988-4.14h-0.955
	c0.465,1.23,0.82,2.646,1.055,4.265c0.393,2.832,0.691,5.823,0.887,8.892c0.129,2.014,0.4,3.863,0.809,5.535h0.934
	C282.215,448.765,281.926,446.901,281.795,444.849z"/>
<rect x="252.637" y="427.711" width="0.896" height="22.73"/>
<path d="M276.58,426.812c-1.82-1.338-4.477-2.019-7.926-2.019h-13.102v0.898h13.1c2.926,0,5.219,0.505,6.861,1.493v-0.373H276.58z"
	/>
<rect x="239.986" y="452.461" width="10.631" height="0.898"/>
<rect x="285.389" y="452.461" width="10.645" height="0.898"/>
<path d="M277.879,396.873c0.992,0.865,1.688,2.072,2.096,3.59h0.936c-0.443-1.805-1.258-3.234-2.441-4.266
	c-0.91-0.793-2.051-1.391-3.402-1.799v0.948C276.176,395.713,277.123,396.217,277.879,396.873z"/>
<rect x="255.553" y="413.688" width="14.574" height="0.896"/>
<rect x="255.553" y="393.756" width="14.574" height="0.896"/>
<rect x="252.637" y="396.674" width="0.896" height="14.936"/>
<path d="M277.875,411.422c-0.754,0.67-1.699,1.185-2.809,1.559v0.949c1.354-0.416,2.494-1.027,3.406-1.837
	c1.633-1.454,2.564-3.703,2.779-6.694h-0.904C280.143,408.113,279.316,410.139,277.875,411.422z"/>
<rect x="235.945" y="380.536" width="3.143" height="3.144"/>
<rect x="276.412" y="380.536" width="3.141" height="3.144"/>
<rect x="251.514" y="392.636" width="3.143" height="3.142"/>
<rect x="251.514" y="412.506" width="3.143" height="3.143"/>
<rect x="251.514" y="423.673" width="3.143" height="3.14"/>
<rect x="276.412" y="427.711" width="3.141" height="3.141"/>
<rect x="251.514" y="451.338" width="3.143" height="3.144"/>
<rect x="235.945" y="451.338" width="3.143" height="3.144"/>
<rect x="281.35" y="451.338" width="3.141" height="3.144"/>
<rect x="296.93" y="451.338" width="3.143" height="3.144"/>
<rect x="283.643" y="418.02" width="3.141" height="3.141"/>
<rect x="279.332" y="401.361" width="3.139" height="3.141"/>
<rect x="271.027" y="392.636" width="3.139" height="3.142"/>
<rect x="271.027" y="412.506" width="3.139" height="3.143"/>
<rect x="289.951" y="387.373" width="3.143" height="3.141"/>
<path d="M309.279,525.346v-3.141h-1.201v-18.008c0.652-0.193,1.131-0.791,1.131-1.506c0-0.875-0.709-1.58-1.582-1.58
	s-1.58,0.705-1.58,1.58c0,0.715,0.479,1.312,1.131,1.506v12.09c-0.162-0.527-0.348-1.047-0.555-1.557
	c-0.391-0.953-0.873-1.854-1.406-2.721v0.246h-0.896c0.566,0.893,1.066,1.826,1.471,2.814c0.793,1.943,1.25,4.037,1.371,6.236h0.016
	v0.898h-1.039v3.141h1.039v17.906c-0.652,0.191-1.131,0.791-1.131,1.506c0,0.873,0.709,1.58,1.58,1.58
	c0.875,0,1.582-0.707,1.582-1.58c0-0.715-0.479-1.314-1.131-1.508v-17.904H309.279z"/>
<text transform="matrix(1 0 0 1 230.582 467.4443)" font-family="'HelveticaNeue-Bold'" font-size="3.7037">Created by Andrew J. Young</text>
<text transform="matrix(1 0 0 1 230.582 471.1475)" font-family="'HelveticaNeue-Bold'" font-size="3.7037">from the Noun Project</text>
<g>
	<g>
		<path d="M237.465,319.69c0.83,0,1.775-0.475,1.775-1.187h-3.555C235.686,319.216,236.635,319.69,237.465,319.69z"/>
		<path d="M225.52,289.245c-0.924-1.039-2.062-0.027-1.141,1.014c0.219,0.243,5.758,6.481,5.758,6.481l1.141-1.012
			C231.277,295.729,225.736,289.489,225.52,289.245z"/>
		<path d="M239.834,317.042h-4.74c-0.197,0-0.357,0.159-0.357,0.356v0.236c0,0.195,0.16,0.354,0.357,0.354h4.74
			c0.197,0,0.355-0.16,0.355-0.354v-0.236C240.189,317.201,240.031,317.042,239.834,317.042z"/>
		<path d="M238.283,285.093c0-1.391-1.525-1.391-1.525,0c0,0.327,0,8.671,0,8.671h1.525
			C238.283,293.763,238.283,285.419,238.283,285.093z"/>
		<path d="M218.268,302.013c0.322,0.05,8.568,1.321,8.568,1.321l0.232-1.508c0,0-8.246-1.271-8.568-1.32
			C217.123,300.294,216.893,301.801,218.268,302.013z"/>
		<path d="M256.562,300.686c-0.322,0.05-8.568,1.322-8.568,1.322l0.232,1.507c0,0,8.246-1.271,8.568-1.32
			C258.17,301.981,257.938,300.475,256.562,300.686z"/>
		<path d="M239.834,315.62h-4.74c-0.197,0-0.357,0.158-0.357,0.354v0.236c0,0.198,0.16,0.356,0.357,0.356h4.74
			c0.197,0,0.355-0.159,0.355-0.356v-0.236C240.189,315.778,240.031,315.62,239.834,315.62z"/>
		<path d="M249.543,289.245c-0.217,0.244-5.758,6.483-5.758,6.483l1.139,1.012c0,0,5.543-6.238,5.758-6.481
			C251.605,289.218,250.467,288.205,249.543,289.245z"/>
		<path d="M272.143,320.793l-5.92-14.906c0,0-0.611-6.175-1.17-8.539c-2.465-10.636-14.32-20.287-27.178-20.287
			c-15.639,0-28.322,12.688-28.322,28.34c0,9.041,4.234,17.099,10.828,22.285v18.261h0.004c0.031,2.162,1.793,3.904,3.967,3.904
			h22.299c2.15,0,3.896-1.709,3.961-3.841c0-4.14,0-9.007,0-9.008c0,1.217,8.51,1.604,11.203,1.233
			c3.127-0.432,4.408-3.228,4.408-6.35v-7.921h3.799c1.262,0,2.291-1.025,2.291-2.283
			C272.312,321.363,272.256,321.062,272.143,320.793z M253.477,305.575c-0.086,1.359-0.318,2.728-0.742,4.052l4.139,4.642
			c-0.48,0.951-0.994,1.9-1.615,2.795l-6.127-1.366c-0.959,1.022-2.012,1.916-3.174,2.675l0.178,6.225
			c-0.992,0.446-1.99,0.805-3.027,1.088l-3.793-4.959c-1.359,0.16-2.75,0.159-4.133-0.017l-3.836,4.86
			c-1.041-0.289-2.047-0.663-3.023-1.132l0.271-6.15c-0.602-0.398-1.201-0.821-1.77-1.306c-0.525-0.446-1.002-0.927-1.451-1.428
			l-5.996,1.242c-0.605-0.901-1.141-1.838-1.598-2.806l4.113-4.484c-0.436-1.379-0.678-2.809-0.732-4.244l-5.344-2.892
			c0.104-1.055,0.318-2.115,0.594-3.16l5.965-0.783c0.547-1.316,1.295-2.578,2.217-3.754l-2.242-5.622
			c0.789-0.758,1.633-1.424,2.504-2.041l5.074,3.237c1.307-0.672,2.688-1.146,4.104-1.438l1.898-5.753
			c1.074-0.07,2.156-0.056,3.232,0.033l1.826,5.799c1.379,0.318,2.727,0.816,4.01,1.506l5.184-3.203
			c0.438,0.316,0.869,0.629,1.287,0.984c0.416,0.356,0.795,0.735,1.178,1.115l-2.361,5.677c0.859,1.145,1.547,2.373,2.062,3.658
			l6.107,0.891c0.264,1.051,0.457,2.119,0.555,3.186L253.477,305.575z"/>
		<path d="M237.465,297.367c-3.666,0-6.637,2.972-6.637,6.636c0,1.205,0.34,2.327,0.885,3.312c1.631,2.936,2.061,4.583,2.328,6.178
			c0.223,1.338,0.531,1.647,1.541,1.647c0.428,0,1.133,0,1.883,0c0.748,0,1.449,0,1.879,0c1.01,0,1.32-0.311,1.543-1.647
			c0.266-1.595,0.697-3.242,2.326-6.178c0.545-0.985,0.885-2.106,0.885-3.312C244.1,300.339,241.129,297.367,237.465,297.367z"/>
	</g>
	<text transform="matrix(1 0 0 1 208.8125 363.668)" font-family="'HelveticaNeue-Bold'" font-size="3.7037">Created by Dirk Rowe</text>
	<text transform="matrix(1 0 0 1 208.8125 367.3721)" font-family="'HelveticaNeue-Bold'" font-size="3.7037">from the Noun Project</text>
</g>
<g>
	<g id="Capa_21">
		<g>
			<path fill="#313741" d="M116.671,351.764H42.597V298.4h74.075V351.764z M44.331,350.031h70.606v-49.896H44.331V350.031z"/>
			<g>
				<path fill="#313741" d="M49.968,303.404c0-1.102-0.915-1.998-2.043-1.998c-1.126,0-2.039,0.896-2.039,1.998
					s0.913,1.996,2.039,1.996C49.053,305.4,49.968,304.508,49.968,303.404z"/>
				<rect x="47.739" y="345.98" fill="#313741" width="11.127" height="2.41"/>
				<path fill="#313741" d="M104.853,304.311c-3.48,0-6.303,2.762-6.303,6.168c0,3.033,2.238,5.551,5.191,6.066v19.059l-1.453,1.42
					l-0.785-0.768l-6.754,6.607l1.281,1.25l1.08,1.061l0.002-0.002l0.785,0.77l6.756-6.607l-0.787-0.77l2.102-2.055v-19.965
					c2.947-0.516,5.189-3.033,5.189-6.066C111.158,307.072,108.333,304.311,104.853,304.311z M105.968,313.869v-3.389h-2.227v3.389
					c-1.473-0.463-2.545-1.797-2.545-3.391c0-1.979,1.637-3.578,3.656-3.578s3.658,1.6,3.658,3.578
					C108.509,312.072,107.437,313.406,105.968,313.869z"/>
				<path fill="#313741" d="M111.421,344.721c-1.127,0-2.043,0.895-2.043,1.998c0,1.102,0.916,1.996,2.043,1.996
					c1.125,0,2.041-0.895,2.041-1.996C113.462,345.615,112.55,344.721,111.421,344.721z"/>
			</g>
			<g>
				<g>
					<path fill="#008CDC" d="M70.631,302.463c-12.532,0-22.692,9.939-22.692,22.199s10.16,22.201,22.692,22.201
						c12.533,0,22.693-9.941,22.693-22.201S83.166,302.463,70.631,302.463z M62.551,324.662c0-4.367,3.616-7.906,8.08-7.906
						c4.462,0,8.081,3.541,8.081,7.906c0,4.367-3.618,7.906-8.081,7.906C66.168,332.566,62.551,329.029,62.551,324.662z
						 M74.419,334.223c2.562-0.816,4.642-2.684,5.695-5.084l0.334,0.152c-1.094,2.486-3.244,4.426-5.895,5.275L74.419,334.223z
						 M75.233,336.305c3.077-1.078,5.577-3.342,6.926-6.229l0.355,0.164c-1.39,2.979-3.967,5.314-7.14,6.432L75.233,336.305z
						 M76.048,338.387c3.595-1.336,6.52-3.994,8.157-7.371l0.379,0.174c-1.682,3.475-4.688,6.211-8.383,7.586L76.048,338.387z
						 M76.862,340.469c4.114-1.588,7.463-4.646,9.387-8.512l0.4,0.184c-1.971,3.969-5.407,7.111-9.627,8.738L76.862,340.469z
						 M77.849,342.99l-0.169-0.432c4.634-1.838,8.425-5.293,10.63-9.652l0.422,0.193C86.476,337.566,82.595,341.109,77.849,342.99z"
						/>
				</g>
				<path fill="#313741" d="M70.631,322.74c-1.085,0-1.963,0.861-1.963,1.922c0,1.059,0.878,1.92,1.963,1.92
					c1.081,0,1.964-0.859,1.964-1.92C72.595,323.6,71.713,322.74,70.631,322.74z M70.631,325.783c-0.634,0-1.147-0.5-1.147-1.121
					s0.513-1.123,1.147-1.123s1.149,0.502,1.149,1.123S71.266,325.783,70.631,325.783z"/>
			</g>
		</g>
	</g>
	<text transform="matrix(1 0 0 1 42.5967 375.082)" fill="#313741" font-family="'HelveticaNeue-Bold'" font-size="3.7037">Created by Juan Pablo Bravo</text>
	<text transform="matrix(1 0 0 1 42.5967 378.7871)" fill="#313741" font-family="'HelveticaNeue-Bold'" font-size="3.7037">from the Noun Project</text>
</g>
<g>
	<g>
		<path d="M391.836,361.018v-1.481h-2.223v1.481h-1.48v-1.481h-2.223v1.481h-1.48v-1.481h-2.223v1.481h-1.482v-1.481h-2.963v1.481
			h-1.48v-1.481h-2.223v1.481h-1.48v-1.481h-2.223v1.481h-1.482v-1.481h-2.223v1.481h-1.48v-1.481h-2.223v1.481h-40.74v55.556
			h74.074v-55.556H391.836z M388.133,365.463c1.432,0,2.592,1.16,2.592,2.592c0,1.433-1.16,2.593-2.592,2.593
			c-1.434,0-2.592-1.16-2.592-2.593C385.541,366.623,386.699,365.463,388.133,365.463z M385.17,372.129h2.223v0.741h-2.223V372.129z
			 M385.17,374.352h2.223v2.222h-2.223V374.352z M378.504,372.87v-0.741h2.221v0.741H378.504z M380.725,374.352v2.222h-2.221v-2.222
			H380.725z M377.762,365.463c1.434,0,2.594,1.16,2.594,2.592c0,1.433-1.16,2.593-2.594,2.593c-1.432,0-2.592-1.16-2.592-2.593
			C375.17,366.623,376.33,365.463,377.762,365.463z M374.799,372.129h2.223v0.741h-2.223V372.129z M374.799,374.352h2.223v2.222
			h-2.223V374.352z M374.799,378.055h5.926v2.223h-5.926V378.055z M374.799,400.277h2.223v1.481h-2.223V400.277z M374.799,403.981
			h2.223v1.481h-2.223V403.981z M374.799,406.944h2.963v2.222h-2.963V406.944z M339.244,365.463h31.111v14.814h-31.111V365.463z
			 M363.688,402.499v-5.185h6.668v5.185H363.688z M370.355,403.981v5.185h-6.668v-5.185H370.355z M363.688,395.833v-5.186h6.668
			v5.186H363.688z M363.688,389.166v-5.185h6.668v5.185H363.688z M355.541,402.499v-5.185h6.666v5.185H355.541z M362.207,403.981
			v5.185h-6.666v-5.185H362.207z M355.541,395.833v-5.186h6.666v5.186H355.541z M355.541,389.166v-5.185h6.666v5.185H355.541z
			 M347.393,402.499v-5.185h6.666v5.185H347.393z M354.059,403.981v5.185h-6.666v-5.185H354.059z M347.393,395.833v-5.186h6.666
			v5.186H347.393z M347.393,389.166v-5.185h6.666v5.185H347.393z M339.244,383.981h6.666v5.185h-6.666V383.981z M339.244,390.647
			h6.666v5.186h-6.666V390.647z M339.244,397.314h6.666v5.185h-6.666V397.314z M339.244,403.981h6.666v5.185h-6.666V403.981z
			 M326.65,365.463h8.148v18.519h-8.148V365.463z M331.836,399.536v-2.222h2.963v2.222H331.836z M334.799,403.981v2.222h-2.963
			v-2.222H334.799z M331.836,392.87v-2.223h2.963v2.223H331.836z M326.65,390.647h2.963v2.223h-2.963V390.647z M326.65,397.314
			h2.963v2.222h-2.963V397.314z M326.65,403.981h2.963v2.222h-2.963V403.981z M391.096,413.61H326.65v-0.74h64.445V413.61z
			 M380.725,403.981v1.481h-2.221v-1.481H380.725z M378.504,401.759v-0.741h2.221v0.741H378.504z M380.725,406.944v2.222h-2.221
			v-2.222H380.725z M387.393,403.981v1.481h-2.223v-1.481H387.393z M385.17,401.759v-0.741h2.223v0.741H385.17z M387.393,406.944
			v2.222h-2.223v-2.222H387.393z M391.096,409.166h-2.963v-2.222h2.963V409.166z M391.096,405.463h-2.223v-1.481h2.223V405.463z
			 M391.096,401.759h-2.223v-1.481h2.223V401.759z M391.096,397.314h-16.297v-13.333h16.297V397.314z M391.096,380.277h-5.926
			v-2.223h5.926V380.277z M391.096,376.573h-2.223v-2.222h2.223V376.573z M391.096,372.87h-2.223v-0.741h2.223V372.87z"/>
		<path d="M327.393,383.24h6.666v-17.037h-6.666V383.24z M329.613,372.129h0.742v-4.444h0.74v4.444h0.74v5.186h-0.74v4.444h-0.74
			v-4.444h-0.742V372.129z"/>
		<path d="M382.947,395.833c2.863,0,5.186-2.321,5.186-5.186c0-2.863-2.322-5.185-5.186-5.185s-5.186,2.321-5.186,5.185
			C377.762,393.512,380.084,395.833,382.947,395.833z M382.947,385.833c2.654,0,4.814,2.16,4.814,4.814
			c0,2.655-2.16,4.815-4.814,4.815s-4.814-2.16-4.814-4.815C378.133,387.993,380.293,385.833,382.947,385.833z"/>
		<path d="M382.947,394.722c2.246,0,4.074-1.828,4.074-4.074s-1.828-4.074-4.074-4.074s-4.074,1.828-4.074,4.074
			S380.701,394.722,382.947,394.722z"/>
		<path d="M377.762,370.277c1.227,0,2.223-0.997,2.223-2.223c0-1.225-0.996-2.222-2.223-2.222c-1.225,0-2.221,0.997-2.221,2.222
			C375.541,369.28,376.537,370.277,377.762,370.277z M377.762,366.573c0.818,0,1.482,0.665,1.482,1.481
			c0,0.817-0.664,1.481-1.482,1.481c-0.816,0-1.48-0.664-1.48-1.481C376.281,367.238,376.945,366.573,377.762,366.573z"/>
		<path d="M388.133,370.277c1.225,0,2.223-0.997,2.223-2.223c0-1.225-0.998-2.222-2.223-2.222s-2.223,0.997-2.223,2.222
			C385.91,369.28,386.908,370.277,388.133,370.277z M388.133,366.573c0.818,0,1.48,0.665,1.48,1.481c0,0.817-0.662,1.481-1.48,1.481
			s-1.482-0.664-1.482-1.481C386.65,367.238,387.314,366.573,388.133,366.573z"/>
	</g>
	<text transform="matrix(1 0 0 1 322.207 437.6846)" font-family="'HelveticaNeue-Bold'" font-size="3.7037">Created by ascowalls</text>
	<text transform="matrix(1 0 0 1 322.207 441.3887)" font-family="'HelveticaNeue-Bold'" font-size="3.7037">from the Noun Project</text>
</g>
<g>
	<g>
		<path fill="#313741" d="M-54.808,148.554c0.962-2.145,1.652-4.927,0.518-7.419c-1.323-2.907-4.717-4.528-10.085-4.817
			l-1.185-0.003l-0.092,0.003c-1.026,0.055-1.957,0.174-2.839,0.326c-0.042,1.147-0.221,2.332-0.532,3.548
			c1.141-0.285,2.382-0.428,3.509-0.491h1.001c2.745,0.153,6.194,0.769,7.137,2.832c0.466,1.021,0.307,2.305-0.104,3.54
			c-2.166-1.524-4.807-2.419-7.657-2.419c-1.189,0-2.34,0.163-3.438,0.455c1.859,3.297,2.87,7.042,2.87,10.861
			c0,5.348-1.913,10.257-5.088,14.081c1.72,0.808,3.63,1.272,5.656,1.272c7.365,0,13.334-5.968,13.334-13.334
			C-51.802,153.788-52.93,150.852-54.808,148.554z"/>
		<path fill="#313741" d="M-106.935,144.005c-0.977-0.229-1.996-0.352-3.044-0.352c-2.762,0-5.328,0.839-7.456,2.275
			c-0.375-1.19-0.508-2.414-0.058-3.396c0.942-2.062,4.391-2.68,7.137-2.832h1.001c1.003,0.055,2.101,0.174,3.134,0.403
			c-0.3-1.208-0.467-2.383-0.505-3.519c-0.784-0.122-1.601-0.221-2.494-0.268l-1.185-0.003l-0.091,0.003
			c-5.369,0.29-8.761,1.911-10.084,4.817c-1.102,2.419-0.484,5.108,0.435,7.226c-1.977,2.327-3.171,5.337-3.171,8.628
			c0,7.366,5.971,13.334,13.335,13.334c1.897,0,3.698-0.402,5.333-1.115c-3.255-3.848-5.223-8.815-5.223-14.238
			C-109.87,151.103-108.834,147.326-106.935,144.005z"/>
	</g>
	<path fill="#008CDC" d="M-72.814,142.743c1.395-3.11,2.396-7.142,0.751-10.754c-1.92-4.216-6.839-6.566-14.62-6.985L-88.401,125
		l-0.131,0.003c-7.783,0.419-12.701,2.769-14.619,6.985c-1.597,3.505-0.702,7.404,0.628,10.474
		c-2.863,3.371-4.596,7.736-4.596,12.506c0,10.675,8.655,19.331,19.332,19.331c10.677,0,19.331-8.655,19.331-19.331
		C-68.457,150.331-70.092,146.074-72.814,142.743z M-98.595,138.938c-0.543-1.726-0.736-3.5-0.085-4.921
		c1.366-2.993,6.365-3.885,10.346-4.107h1.453c3.98,0.222,8.979,1.114,10.348,4.107c0.675,1.479,0.445,3.34-0.152,5.13
		c-3.142-2.208-6.968-3.509-11.101-3.509C-91.79,135.638-95.509,136.854-98.595,138.938z"/>
	<text transform="matrix(1 0 0 1 -132.8447 211.2188)" font-family="'HelveticaNeue-Bold'" font-size="4.5861">Created by She3t, llc</text>
	<text transform="matrix(1 0 0 1 -132.8447 215.8057)" font-family="'HelveticaNeue-Bold'" font-size="4.5861">from the Noun Project</text>
</g>
<g>
	<g>
		<g>
			<path d="M243.393,561.432c7.605,0,13.791,6.186,13.791,13.789v39.182c0,7.604-6.186,13.789-13.791,13.789h-39.18
				c-7.604,0-13.789-6.186-13.789-13.789v-39.182c0-7.604,6.186-13.789,13.789-13.789H243.393 M243.393,559.209h-39.18
				c-8.844,0-16.012,7.168-16.012,16.012v39.182c0,8.842,7.168,16.012,16.012,16.012h39.18c8.844,0,16.012-7.17,16.012-16.012
				v-39.182C259.404,566.377,252.236,559.209,243.393,559.209L243.393,559.209z"/>
		</g>
		
			<line fill="none" stroke="#000000" stroke-width="0.25" stroke-miterlimit="10" x1="187.691" y1="630.922" x2="259.914" y2="558.699"/>
		
			<line fill="none" stroke="#000000" stroke-width="0.25" stroke-miterlimit="10" x1="187.691" y1="558.699" x2="259.914" y2="630.922"/>
		<g>
			
				<line fill="none" stroke="#000000" stroke-width="0.25" stroke-miterlimit="10" x1="188.885" y1="607.959" x2="258.723" y2="607.959"/>
			
				<line fill="none" stroke="#000000" stroke-width="0.25" stroke-miterlimit="10" x1="188.885" y1="594.811" x2="258.723" y2="594.811"/>
			
				<line fill="none" stroke="#000000" stroke-width="0.25" stroke-miterlimit="10" x1="188.885" y1="581.662" x2="258.723" y2="581.662"/>
		</g>
		<g>
			
				<line fill="none" stroke="#000000" stroke-width="0.25" stroke-miterlimit="10" x1="236.951" y1="629.73" x2="236.951" y2="559.893"/>
			
				<line fill="none" stroke="#000000" stroke-width="0.25" stroke-miterlimit="10" x1="223.803" y1="629.73" x2="223.803" y2="559.893"/>
			
				<line fill="none" stroke="#000000" stroke-width="0.25" stroke-miterlimit="10" x1="210.654" y1="629.73" x2="210.654" y2="559.893"/>
		</g>
		<g>
			
				<line fill="none" stroke="#000000" stroke-width="0.25" stroke-miterlimit="10" x1="254.729" y1="630.414" x2="254.729" y2="559.209"/>
			
				<line fill="none" stroke="#000000" stroke-width="0.25" stroke-miterlimit="10" x1="192.877" y1="630.414" x2="192.877" y2="559.209"/>
		</g>
		<g>
			
				<line fill="none" stroke="#000000" stroke-width="0.25" stroke-miterlimit="10" x1="259.404" y1="563.885" x2="188.201" y2="563.885"/>
			
				<line fill="none" stroke="#000000" stroke-width="0.25" stroke-miterlimit="10" x1="259.404" y1="625.736" x2="188.201" y2="625.736"/>
		</g>
		<circle fill="none" stroke="#000000" stroke-width="0.25" stroke-miterlimit="10" cx="223.803" cy="594.811" r="30.889"/>
		<circle fill="none" stroke="#000000" stroke-width="0.25" stroke-miterlimit="10" cx="223.803" cy="594.811" r="18.639"/>
		<circle fill="none" stroke="#000000" stroke-width="0.25" stroke-miterlimit="10" cx="223.803" cy="594.811" r="13.148"/>
	</g>
	<g>
		<path d="M142.042,563.326c7.394,0,13.408,6.014,13.408,13.408v36.154c0,7.393-6.014,13.408-13.408,13.408h-36.154
			c-7.394,0-13.408-6.016-13.408-13.408v-36.154c0-7.395,6.015-13.408,13.408-13.408H142.042 M142.042,561.959h-36.154
			c-8.16,0-14.774,6.615-14.774,14.775v36.154c0,8.16,6.614,14.773,14.774,14.773h36.154c8.16,0,14.775-6.613,14.775-14.773v-36.154
			C156.816,568.574,150.201,561.959,142.042,561.959L142.042,561.959z"/>
	</g>
	<g>
		
			<rect x="123.862" y="547.773" transform="matrix(-0.7071 -0.7071 0.7071 -0.7071 -208.9721 1103.062)" width="0.207" height="94.075"/>
	</g>
	<g>
		
			<rect x="76.927" y="594.708" transform="matrix(-0.7071 -0.7071 0.7071 -0.7071 -208.969 1103.0647)" width="94.074" height="0.204"/>
	</g>
	<g>
		<g>
			<rect x="91.801" y="606.818" width="64.326" height="0.205"/>
		</g>
		<g>
			<rect x="91.801" y="594.709" width="64.326" height="0.205"/>
		</g>
		<g>
			<rect x="91.801" y="582.598" width="64.326" height="0.205"/>
		</g>
	</g>
	<g>
		<g>
			<rect x="135.972" y="562.648" width="0.205" height="64.326"/>
		</g>
		<g>
			<rect x="123.861" y="562.648" width="0.205" height="64.326"/>
		</g>
		<g>
			<rect x="111.751" y="562.648" width="0.205" height="64.326"/>
		</g>
	</g>
	<g>
		<g>
			<rect x="152.348" y="562.02" width="0.205" height="65.584"/>
		</g>
		<g>
			<rect x="95.376" y="562.02" width="0.205" height="65.584"/>
		</g>
	</g>
	<g>
		<g>
			<rect x="91.171" y="566.225" width="65.584" height="0.203"/>
		</g>
		<g>
			<rect x="91.171" y="623.193" width="65.584" height="0.205"/>
		</g>
	</g>
	<g>
		<path d="M123.964,623.365c-15.744,0-28.553-12.811-28.553-28.555c0-15.742,12.809-28.553,28.553-28.553
			s28.553,12.809,28.553,28.553S139.708,623.365,123.964,623.365z M123.964,566.463c-15.632,0-28.348,12.717-28.348,28.348
			s12.717,28.348,28.348,28.348s28.348-12.715,28.348-28.348C152.312,579.18,139.596,566.463,123.964,566.463z"/>
	</g>
	<g>
		<path d="M123.964,612.08c-9.522,0-17.271-7.746-17.271-17.27s7.747-17.27,17.271-17.27s17.27,7.748,17.27,17.27
			C141.234,604.334,133.486,612.08,123.964,612.08z M123.964,577.746c-9.41,0-17.065,7.656-17.065,17.064
			c0,9.41,7.655,17.066,17.065,17.066s17.064-7.656,17.064-17.066C141.029,585.402,133.375,577.746,123.964,577.746z"/>
	</g>
	<g>
		<path d="M123.964,607.023c-6.734,0-12.213-5.479-12.213-12.213s5.479-12.213,12.213-12.213s12.213,5.479,12.213,12.213
			S130.699,607.023,123.964,607.023z M123.964,582.803c-6.621,0-12.008,5.387-12.008,12.008c0,6.623,5.387,12.008,12.008,12.008
			s12.008-5.385,12.008-12.008C135.972,588.189,130.585,582.803,123.964,582.803z"/>
	</g>
	<g>
		<path d="M188.275,551.463c0.348,0.213,0.854,0.391,1.387,0.391c0.789,0,1.252-0.418,1.252-1.021c0-0.559-0.32-0.879-1.129-1.191
			c-0.977-0.346-1.58-0.852-1.58-1.695c0-0.934,0.771-1.627,1.936-1.627c0.613,0,1.059,0.143,1.324,0.293l-0.213,0.631
			c-0.197-0.105-0.596-0.283-1.139-0.283c-0.816,0-1.127,0.488-1.127,0.896c0,0.559,0.363,0.834,1.189,1.154
			c1.014,0.393,1.529,0.881,1.529,1.76c0,0.924-0.686,1.725-2.098,1.725c-0.576,0-1.209-0.17-1.527-0.383L188.275,551.463z"/>
		<path d="M193.652,546.869v1.234h1.121v0.596h-1.121v2.318c0,0.533,0.152,0.834,0.588,0.834c0.203,0,0.354-0.025,0.451-0.053
			l0.035,0.586c-0.15,0.062-0.389,0.107-0.693,0.107c-0.363,0-0.656-0.115-0.842-0.33c-0.223-0.23-0.303-0.613-0.303-1.119v-2.346
			h-0.666v-0.594h0.666v-1.031L193.652,546.869z"/>
		<path d="M195.654,549.445c0-0.506-0.01-0.941-0.037-1.342h0.684l0.027,0.844h0.035c0.195-0.576,0.666-0.941,1.191-0.941
			c0.088,0,0.15,0.01,0.223,0.027v0.736c-0.08-0.018-0.16-0.025-0.268-0.025c-0.551,0-0.941,0.418-1.049,1.004
			c-0.016,0.105-0.035,0.23-0.035,0.363v2.293h-0.771V549.445z"/>
		<path d="M202.363,550.219c0,1.59-1.102,2.283-2.143,2.283c-1.162,0-2.061-0.854-2.061-2.213c0-1.439,0.941-2.283,2.133-2.283
			C201.527,548.006,202.363,548.902,202.363,550.219z M198.951,550.262c0,0.941,0.541,1.652,1.307,1.652
			c0.746,0,1.305-0.701,1.305-1.67c0-0.729-0.363-1.652-1.287-1.652C199.35,548.592,198.951,549.445,198.951,550.262z"/>
		<path d="M204.125,550.076h0.018c0.105-0.15,0.258-0.338,0.383-0.488l1.26-1.484h0.941l-1.66,1.768l1.893,2.533h-0.949
			l-1.484-2.061l-0.4,0.443v1.617h-0.771v-6.307h0.771V550.076L204.125,550.076z"/>
		<path d="M207.955,550.396c0.018,1.057,0.693,1.492,1.475,1.492c0.561,0,0.898-0.098,1.191-0.223l0.133,0.561
			c-0.275,0.125-0.746,0.268-1.43,0.268c-1.324,0-2.115-0.871-2.115-2.168c0-1.299,0.764-2.32,2.018-2.32
			c1.404,0,1.777,1.236,1.777,2.025c0,0.16-0.02,0.285-0.027,0.365H207.955z M210.248,549.836c0.008-0.496-0.205-1.27-1.084-1.27
			c-0.791,0-1.137,0.729-1.199,1.27H210.248z"/>
		<path d="M216.924,552.244c-0.205,0.105-0.658,0.248-1.236,0.248c-1.297,0-2.141-0.879-2.141-2.193
			c0-1.324,0.906-2.283,2.309-2.283c0.463,0,0.871,0.115,1.084,0.221l-0.178,0.604c-0.186-0.105-0.479-0.203-0.906-0.203
			c-0.984,0-1.518,0.729-1.518,1.625c0,0.996,0.639,1.609,1.492,1.609c0.443,0,0.736-0.117,0.959-0.215L216.924,552.244z"/>
		<path d="M221.678,550.219c0,1.59-1.102,2.283-2.141,2.283c-1.164,0-2.061-0.854-2.061-2.213c0-1.439,0.941-2.283,2.131-2.283
			C220.842,548.006,221.678,548.902,221.678,550.219z M218.266,550.262c0,0.941,0.541,1.652,1.307,1.652
			c0.746,0,1.305-0.701,1.305-1.67c0-0.729-0.363-1.652-1.287-1.652S218.266,549.445,218.266,550.262z"/>
		<path d="M222.666,549.268c0-0.445-0.01-0.809-0.035-1.164h0.693l0.045,0.711h0.018c0.213-0.41,0.711-0.809,1.42-0.809
			c0.596,0,1.52,0.355,1.52,1.83v2.566h-0.781v-2.479c0-0.693-0.258-1.27-0.996-1.27c-0.514,0-0.914,0.365-1.047,0.799
			c-0.035,0.098-0.053,0.23-0.053,0.365v2.584h-0.783V549.268z"/>
		<path d="M227.494,551.604c0.23,0.15,0.639,0.311,1.031,0.311c0.568,0,0.834-0.283,0.834-0.639c0-0.373-0.223-0.578-0.799-0.791
			c-0.773-0.275-1.137-0.701-1.137-1.217c0-0.693,0.559-1.262,1.482-1.262c0.436,0,0.818,0.123,1.057,0.266l-0.195,0.568
			c-0.168-0.105-0.479-0.248-0.879-0.248c-0.463,0-0.719,0.268-0.719,0.588c0,0.354,0.258,0.514,0.816,0.729
			c0.746,0.283,1.127,0.656,1.127,1.297c0,0.756-0.586,1.287-1.607,1.287c-0.471,0-0.906-0.115-1.207-0.293L227.494,551.604z"/>
		<path d="M232.062,546.869v1.234h1.119v0.596h-1.119v2.318c0,0.533,0.15,0.834,0.586,0.834c0.203,0,0.355-0.025,0.453-0.053
			l0.035,0.586c-0.15,0.062-0.391,0.107-0.693,0.107c-0.363,0-0.658-0.115-0.844-0.33c-0.223-0.23-0.303-0.613-0.303-1.119v-2.346
			h-0.666v-0.594h0.666v-1.031L232.062,546.869z"/>
		<path d="M234.062,549.445c0-0.506-0.01-0.941-0.037-1.342h0.686l0.025,0.844h0.037c0.195-0.576,0.666-0.941,1.189-0.941
			c0.09,0,0.15,0.01,0.223,0.027v0.736c-0.08-0.018-0.16-0.025-0.268-0.025c-0.549,0-0.941,0.418-1.047,1.004
			c-0.018,0.105-0.037,0.23-0.037,0.363v2.293h-0.771V549.445z"/>
		<path d="M240.566,551.23c0,0.445,0.01,0.836,0.035,1.174h-0.693l-0.045-0.701h-0.016c-0.205,0.346-0.658,0.799-1.422,0.799
			c-0.676,0-1.484-0.373-1.484-1.883v-2.516h0.781v2.381c0,0.818,0.25,1.369,0.961,1.369c0.523,0,0.887-0.365,1.029-0.711
			c0.045-0.115,0.072-0.258,0.072-0.4v-2.639h0.781V551.23L240.566,551.23z"/>
		<path d="M244.932,552.244c-0.205,0.105-0.658,0.248-1.234,0.248c-1.299,0-2.143-0.879-2.143-2.193
			c0-1.324,0.906-2.283,2.311-2.283c0.461,0,0.871,0.115,1.084,0.221l-0.178,0.604c-0.186-0.105-0.48-0.203-0.906-0.203
			c-0.986,0-1.52,0.729-1.52,1.625c0,0.996,0.639,1.609,1.492,1.609c0.445,0,0.738-0.117,0.961-0.215L244.932,552.244z"/>
		<path d="M246.906,546.869v1.234h1.119v0.596h-1.119v2.318c0,0.533,0.15,0.834,0.586,0.834c0.205,0,0.355-0.025,0.453-0.053
			l0.035,0.586c-0.15,0.062-0.391,0.107-0.693,0.107c-0.363,0-0.656-0.115-0.844-0.33c-0.223-0.23-0.303-0.613-0.303-1.119v-2.346
			h-0.664v-0.594h0.664v-1.031L246.906,546.869z"/>
		<path d="M249.777,546.896c0.008,0.266-0.188,0.479-0.498,0.479c-0.275,0-0.471-0.213-0.471-0.479c0-0.277,0.203-0.49,0.488-0.49
			C249.59,546.406,249.777,546.619,249.777,546.896z M248.906,552.404v-4.301h0.781v4.301H248.906z"/>
		<path d="M254.877,550.219c0,1.59-1.102,2.283-2.141,2.283c-1.164,0-2.061-0.854-2.061-2.213c0-1.439,0.941-2.283,2.131-2.283
			C254.041,548.006,254.877,548.902,254.877,550.219z M251.467,550.262c0,0.941,0.541,1.652,1.305,1.652
			c0.748,0,1.307-0.701,1.307-1.67c0-0.729-0.363-1.652-1.287-1.652C251.865,548.592,251.467,549.445,251.467,550.262z"/>
		<path d="M255.865,549.268c0-0.445-0.01-0.809-0.035-1.164h0.693l0.045,0.711h0.018c0.213-0.41,0.711-0.809,1.42-0.809
			c0.596,0,1.52,0.355,1.52,1.83v2.566h-0.781v-2.479c0-0.693-0.258-1.27-0.996-1.27c-0.514,0-0.914,0.365-1.047,0.799
			c-0.035,0.098-0.053,0.23-0.053,0.365v2.584h-0.783V549.268L255.865,549.268z"/>
	</g>
	<g>
		<path d="M95.015,546.416h3.225v0.648h-2.451v1.99h2.266v0.639h-2.266v2.711h-0.773V546.416z"/>
		<path d="M99.957,546.896c0.01,0.266-0.187,0.479-0.498,0.479c-0.274,0-0.471-0.213-0.471-0.479c0-0.277,0.205-0.49,0.489-0.49
			C99.77,546.406,99.957,546.619,99.957,546.896z M99.086,552.404v-4.301h0.782v4.301H99.086z"/>
		<path d="M101.167,546.096h0.781v6.309h-0.781V546.096z"/>
		<path d="M103.264,546.096h0.782v6.309h-0.782V546.096z"/>
		<path d="M110.311,552.244c-0.204,0.105-0.657,0.248-1.235,0.248c-1.297,0-2.141-0.879-2.141-2.193
			c0-1.324,0.905-2.283,2.309-2.283c0.462,0,0.871,0.115,1.084,0.221l-0.177,0.604c-0.187-0.105-0.479-0.203-0.907-0.203
			c-0.985,0-1.519,0.729-1.519,1.625c0,0.996,0.64,1.609,1.493,1.609c0.443,0,0.736-0.117,0.959-0.215L110.311,552.244z"/>
		<path d="M115.066,550.219c0,1.59-1.102,2.283-2.142,2.283c-1.163,0-2.062-0.854-2.062-2.213c0-1.439,0.942-2.283,2.133-2.283
			C114.23,548.006,115.066,548.902,115.066,550.219z M111.655,550.262c0,0.941,0.542,1.652,1.306,1.652
			c0.746,0,1.307-0.701,1.307-1.67c0-0.729-0.364-1.652-1.288-1.652C112.054,548.592,111.655,549.445,111.655,550.262z"/>
		<path d="M116.054,549.268c0-0.445-0.01-0.809-0.035-1.164h0.693l0.045,0.711h0.017c0.214-0.41,0.711-0.809,1.421-0.809
			c0.596,0,1.52,0.355,1.52,1.83v2.566h-0.781v-2.479c0-0.693-0.258-1.27-0.996-1.27c-0.514,0-0.914,0.365-1.047,0.799
			c-0.036,0.098-0.055,0.23-0.055,0.365v2.584h-0.781V549.268z"/>
		<path d="M120.881,551.604c0.231,0.15,0.64,0.311,1.031,0.311c0.569,0,0.835-0.283,0.835-0.639c0-0.373-0.223-0.578-0.8-0.791
			c-0.772-0.275-1.137-0.701-1.137-1.217c0-0.693,0.56-1.262,1.483-1.262c0.436,0,0.818,0.123,1.057,0.266l-0.195,0.568
			c-0.168-0.105-0.479-0.248-0.879-0.248c-0.463,0-0.721,0.268-0.721,0.588c0,0.354,0.258,0.514,0.818,0.729
			c0.746,0.283,1.127,0.656,1.127,1.297c0,0.756-0.586,1.287-1.607,1.287c-0.471,0-0.906-0.115-1.209-0.293L120.881,551.604z"/>
		<path d="M125.449,546.869v1.234h1.121v0.596h-1.121v2.318c0,0.533,0.152,0.834,0.588,0.834c0.203,0,0.354-0.025,0.452-0.053
			l0.036,0.586c-0.15,0.062-0.391,0.107-0.693,0.107c-0.363,0-0.656-0.115-0.844-0.328c-0.223-0.23-0.303-0.613-0.303-1.119v-2.346
			h-0.665v-0.596h0.665v-1.031L125.449,546.869z"/>
		<path d="M127.451,549.445c0-0.506-0.01-0.941-0.037-1.342h0.685l0.026,0.844h0.036c0.195-0.576,0.666-0.941,1.19-0.941
			c0.089,0,0.15,0.01,0.223,0.027v0.736c-0.08-0.018-0.16-0.025-0.268-0.025c-0.551,0-0.941,0.418-1.048,1.004
			c-0.017,0.105-0.036,0.23-0.036,0.363v2.293h-0.771V549.445z"/>
		<path d="M133.955,551.23c0,0.445,0.009,0.836,0.035,1.174h-0.691l-0.046-0.701h-0.017c-0.205,0.346-0.658,0.799-1.422,0.799
			c-0.676,0-1.484-0.373-1.484-1.883v-2.516h0.782v2.381c0,0.818,0.249,1.369,0.96,1.369c0.523,0,0.889-0.365,1.03-0.711
			c0.046-0.115,0.071-0.258,0.071-0.4v-2.639h0.782L133.955,551.23L133.955,551.23z"/>
		<path d="M138.32,552.244c-0.205,0.105-0.658,0.248-1.235,0.248c-1.298,0-2.142-0.879-2.142-2.193c0-1.324,0.906-2.283,2.311-2.283
			c0.461,0,0.87,0.115,1.084,0.221l-0.178,0.604c-0.187-0.105-0.48-0.203-0.906-0.203c-0.986,0-1.52,0.729-1.52,1.625
			c0,0.996,0.639,1.609,1.492,1.609c0.445,0,0.737-0.117,0.959-0.215L138.32,552.244z"/>
		<path d="M140.294,546.869v1.234h1.119v0.596h-1.119v2.318c0,0.533,0.15,0.834,0.586,0.834c0.204,0,0.355-0.025,0.453-0.053
			l0.035,0.586c-0.15,0.062-0.391,0.107-0.692,0.107c-0.364,0-0.657-0.115-0.844-0.328c-0.222-0.23-0.302-0.613-0.302-1.119v-2.346
			h-0.666v-0.596h0.666v-1.031L140.294,546.869z"/>
		<path d="M143.166,546.896c0.008,0.266-0.188,0.479-0.498,0.479c-0.275,0-0.471-0.213-0.471-0.479c0-0.277,0.203-0.49,0.488-0.49
			C142.978,546.406,143.166,546.619,143.166,546.896z M142.294,552.404v-4.301h0.781v4.301H142.294z"/>
		<path d="M148.266,550.219c0,1.59-1.102,2.283-2.141,2.283c-1.164,0-2.061-0.854-2.061-2.213c0-1.439,0.941-2.283,2.131-2.283
			C147.43,548.006,148.266,548.902,148.266,550.219z M144.854,550.262c0,0.941,0.543,1.652,1.307,1.652
			c0.746,0,1.307-0.701,1.307-1.67c0-0.729-0.365-1.652-1.289-1.652S144.854,549.445,144.854,550.262z"/>
		<path d="M149.256,549.268c0-0.445-0.01-0.809-0.037-1.164h0.693l0.045,0.711h0.018c0.213-0.41,0.711-0.809,1.422-0.809
			c0.594,0,1.518,0.355,1.518,1.83v2.566h-0.781v-2.479c0-0.693-0.258-1.27-0.994-1.27c-0.516,0-0.916,0.365-1.049,0.799
			c-0.035,0.098-0.053,0.23-0.053,0.365v2.584h-0.781V549.268z"/>
	</g>
	<text transform="matrix(1 0 0 1 86.9272 644.8105)" font-family="'HelveticaNeue-Bold'" font-size="3.7037">Created by Dimitry Sunseifer</text>
	<text transform="matrix(1 0 0 1 86.9272 648.5146)" font-family="'HelveticaNeue-Bold'" font-size="3.7037">from the Noun Project</text>
</g>
<g>
	<g>
		<g>
			<g>
			</g>
		</g>
		<g>
		</g>
	</g>
	<path d="M504.199,376.185c-0.715,0-1.326,0.438-1.584,1.057h-27.518c-0.293-1.117-1.309-1.942-2.518-1.942
		s-2.225,0.824-2.518,1.942h-27.518c-0.258-0.619-0.869-1.057-1.584-1.057c-0.947,0-1.715,0.769-1.715,1.715
		c0,0.947,0.768,1.716,1.715,1.716c0.715,0,1.326-0.438,1.584-1.058h27.518c0.098,0.371,0.273,0.71,0.51,0.997
		c-13.619,1.023-24.355,12.39-24.377,26.268c-2.168,0.516-3.783,2.464-3.783,4.791c0,2.72,2.205,4.926,4.926,4.926
		s4.926-2.206,4.926-4.926c0-2.268-1.535-4.178-3.621-4.749h0.016c0-6.39,2.488-12.397,7.006-16.916
		c4.52-4.519,10.525-7.008,16.916-7.008s12.396,2.489,16.916,7.008c4.518,4.519,7.006,10.526,7.006,16.916h0.016
		c-2.086,0.571-3.621,2.481-3.621,4.749c0,2.72,2.205,4.926,4.926,4.926c2.719,0,4.924-2.206,4.924-4.926
		c0-2.327-1.613-4.274-3.781-4.791c-0.021-13.878-10.758-25.244-24.379-26.268c0.238-0.288,0.414-0.627,0.512-0.997h27.516
		c0.258,0.619,0.871,1.057,1.584,1.057c0.947,0,1.715-0.769,1.715-1.716C505.914,376.953,505.146,376.185,504.199,376.185z
		 M450.328,410.613c0,1.649-1.342,2.99-2.99,2.99s-2.99-1.342-2.99-2.99c0-1.649,1.342-2.991,2.99-2.991
		S450.328,408.964,450.328,410.613z M472.58,378.917c-0.562,0-1.018-0.457-1.018-1.019c0-0.561,0.455-1.018,1.018-1.018
		c0.561,0,1.018,0.457,1.018,1.018C473.598,378.46,473.141,378.917,472.58,378.917z M500.812,410.613c0,1.649-1.342,2.99-2.99,2.99
		c-1.65,0-2.992-1.342-2.992-2.99c0-1.649,1.344-2.991,2.992-2.991S500.812,408.964,500.812,410.613z"/>
	<text transform="matrix(1 0 0 1 435.543 444.2148)" font-family="'HelveticaNeue-Bold'" font-size="3.7037">Created by Mario Verduzco</text>
	<text transform="matrix(1 0 0 1 435.543 447.9189)" font-family="'HelveticaNeue-Bold'" font-size="3.7037">from the Noun Project</text>
</g>
<g>
	<g>
		<path fill="#008CDC" d="M195.11,28.839v4.707l-16.729-7.252v-4.023l16.729-7.25v4.739l-11.656,4.49L195.11,28.839z"/>
		<path fill="#008CDC" d="M205.455,14.919l-4.656,19.174c-0.156,0.633-0.29,1.131-0.407,1.497c-0.115,0.367-0.294,0.653-0.531,0.856
			c-0.239,0.207-0.586,0.308-1.04,0.308c-1.13,0-1.698-0.489-1.698-1.462c0-0.255,0.112-0.892,0.335-1.912l4.64-19.174
			c0.244-1.02,0.477-1.72,0.698-2.095c0.221-0.377,0.655-0.565,1.298-0.565c0.554,0,0.978,0.134,1.271,0.399s0.44,0.63,0.44,1.097
			C205.805,13.384,205.688,14.011,205.455,14.919z"/>
		<path fill="#008CDC" d="M224.53,26.294l-16.73,7.285v-4.705l11.691-4.589L207.8,19.76v-4.674l16.73,7.218V26.294z"/>
	</g>
	<path fill="#313741" d="M235.297-12h-67.684C165.066-12,163-9.934,163-7.384V51.07c0,2.547,2.066,4.613,4.613,4.613h67.684
		c2.549,0,4.615-2.066,4.615-4.613V-7.384C239.912-9.934,237.846-12,235.297-12z M223.76-8.923c1.697,0,3.076,1.381,3.076,3.076
		c0,1.697-1.379,3.079-3.076,3.079c-1.695,0-3.076-1.381-3.076-3.079C220.684-7.542,222.064-8.923,223.76-8.923z M215.301-8.923
		c1.695,0,3.077,1.381,3.077,3.076c0,1.697-1.382,3.079-3.077,3.079c-1.697,0-3.078-1.381-3.078-3.079
		C212.223-7.542,213.604-8.923,215.301-8.923z M235.297,51.07h-67.684V0.308h67.684V51.07z M232.221-2.769
		c-1.695,0-3.076-1.381-3.076-3.079c0-1.695,1.381-3.076,3.076-3.076s3.076,1.381,3.076,3.076
		C235.297-4.15,233.916-2.769,232.221-2.769z"/>
	<text transform="matrix(1 0 0 1 162.999 73.7583)" font-family="'HelveticaNeue-Bold'" font-size="3.8456">Created by Simple Icons</text>
	<text transform="matrix(1 0 0 1 162.999 77.604)" font-family="'HelveticaNeue-Bold'" font-size="3.8456">from the Noun Project</text>
</g>
<g>
	<g>
		<g>
			<g>
				<path d="M630.078,358.87c0.385,0.384,0.385,1.008,0,1.392c-0.191,0.191-0.441,0.285-0.691,0.285s-0.502-0.094-0.697-0.285
					l-2.109-2.108l-2.107,2.108c-0.191,0.191-0.443,0.285-0.693,0.285c-0.256,0-0.506-0.094-0.697-0.285
					c-0.383-0.383-0.383-1.008,0-1.392l2.107-2.107l-2.107-2.108c-0.383-0.389-0.383-1.008,0-1.391s1.008-0.383,1.391,0l2.109,2.108
					l2.107-2.108c0.383-0.383,1.008-0.383,1.391,0s0.383,1.002,0,1.391l-2.109,2.108L630.078,358.87z"/>
			</g>
		</g>
		<g>
			<g>
				<path d="M640.479,349.98c0.383,0.383,0.383,1.007,0,1.391c-0.193,0.192-0.443,0.29-0.693,0.29s-0.502-0.099-0.693-0.29
					l-2.113-2.108l-2.107,2.108c-0.191,0.192-0.443,0.29-0.693,0.29s-0.506-0.099-0.697-0.29c-0.383-0.383-0.383-1.007,0-1.391
					l2.107-2.108l-2.107-2.108c-0.383-0.383-0.383-1.007,0-1.391c0.383-0.383,1.008-0.383,1.391,0l2.107,2.107l2.113-2.107
					c0.383-0.383,1.002-0.383,1.387,0c0.383,0.383,0.383,1.007,0,1.391l-2.107,2.108L640.479,349.98z"/>
			</g>
		</g>
		<g>
			<g>
				<path d="M659.314,363.372c0.383,0.383,0.383,1.007,0,1.391c-0.193,0.192-0.443,0.29-0.693,0.29c-0.256,0-0.506-0.099-0.697-0.29
					l-2.109-2.107l-2.107,2.107c-0.191,0.192-0.441,0.29-0.697,0.29c-0.25,0-0.502-0.099-0.693-0.29
					c-0.383-0.383-0.383-1.007,0-1.391l2.109-2.108l-2.109-2.108c-0.383-0.383-0.383-1.007,0-1.391c0.383-0.383,1.008-0.383,1.391,0
					l2.109,2.108l2.107-2.108c0.383-0.383,1.008-0.383,1.391,0s0.383,1.008,0,1.391l-2.107,2.108L659.314,363.372z"/>
			</g>
		</g>
		<g>
			<g>
				<path d="M653.244,342.791l-6.58-1.626c-0.525-0.133-1.061,0.187-1.188,0.718l-1.633,6.579c-0.127,0.526,0.191,1.062,0.719,1.189
					c0.078,0.02,0.156,0.029,0.234,0.029c0.443,0,0.846-0.3,0.953-0.746l1.062-4.28l0.418,0.692
					c1.631,2.707,2.113,5.892,1.352,8.964c-0.758,3.071-2.668,5.661-5.381,7.298c-0.418,0.25-0.852,0.477-1.293,0.673
					c-0.713-1.242-1.928-2.187-3.436-2.506c-0.354-0.074-0.713-0.107-1.07-0.107c-2.443,0-4.574,1.734-5.076,4.122
					c-0.59,2.801,1.209,5.559,4.01,6.147c0.354,0.073,0.719,0.113,1.076,0.113c2.438,0,4.57-1.734,5.076-4.122
					c0.127-0.601,0.143-1.199,0.061-1.779c0.574-0.246,1.135-0.536,1.67-0.86c3.16-1.902,5.387-4.925,6.275-8.507
					c0.885-3.578,0.324-7.292-1.582-10.447l-0.418-0.692l4.281,1.062c0.525,0.127,1.061-0.192,1.193-0.723
					C654.096,343.454,653.775,342.924,653.244,342.791z M640.561,365.52c-0.309,1.488-1.635,2.565-3.15,2.565
					c-0.225,0-0.447-0.024-0.668-0.069c-1.744-0.369-2.859-2.078-2.496-3.823c0.314-1.484,1.643-2.561,3.154-2.561
					c0.223,0,0.449,0.021,0.67,0.069C639.809,362.064,640.93,363.779,640.561,365.52z"/>
			</g>
		</g>
	</g>
	<g>
		<g>
			<path d="M642.08,375.039c-0.039,0-0.084,0.004-0.123,0.009c0.01-0.005,0.014-0.005,0.023-0.005
				C642.016,375.039,642.045,375.039,642.08,375.039z"/>
		</g>
		<g>
			<path d="M641.98,375.043c-0.01,0-0.014,0-0.023,0.005c0.039-0.005,0.084-0.009,0.123-0.009
				C642.045,375.039,642.016,375.039,641.98,375.043z"/>
			<path d="M674.43,333.788h-31.367v-3.946c0-0.541-0.438-0.983-0.982-0.983c-0.541,0-0.982,0.442-0.982,0.983v3.945h-31.369
				c-0.539,0.001-0.982,0.438-0.982,0.984c0,0.54,0.443,0.982,0.982,0.982h2.586v40.268c0,0.545,0.438,0.983,0.982,0.983h25.619
				l-19.855,13.558c-0.451,0.305-0.564,0.914-0.26,1.366c0.191,0.275,0.502,0.427,0.811,0.427c0.191,0,0.389-0.054,0.557-0.172
				l20.93-14.29v13.479c0,0.541,0.441,0.983,0.982,0.983c0.545,0,0.982-0.442,0.982-0.983v-13.494l20.949,14.305
				c0.172,0.118,0.365,0.172,0.557,0.172c0.309,0,0.619-0.152,0.811-0.427c0.305-0.452,0.191-1.062-0.256-1.366l-19.859-13.559
				h25.604c0.541,0,0.982-0.438,0.982-0.983v-40.267h2.58c0.545,0,0.984-0.442,0.984-0.983
				C675.414,334.226,674.977,333.788,674.43,333.788z M669.885,375.039H642.08c-0.039,0-0.084,0.004-0.123,0.009
				c0.01-0.005,0.014-0.005,0.023-0.005c0.035-0.004,0.064-0.004,0.1-0.004h-27.801v-39.285h55.605V375.039z"/>
		</g>
		<g>
			<path d="M642.08,375.039c-0.039,0-0.084,0.004-0.123,0.009c0.01-0.005,0.014-0.005,0.023-0.005
				C642.016,375.039,642.045,375.039,642.08,375.039z"/>
		</g>
	</g>
	<text transform="matrix(1 0 0 1 605.043 410.6074)" font-family="'HelveticaNeue-Bold'" font-size="3.7037">Created by Garrett Knoll</text>
	<text transform="matrix(1 0 0 1 605.043 414.3115)" font-family="'HelveticaNeue-Bold'" font-size="3.7037">from the Noun Project</text>
</g>
<g>
	<path d="M580.559,496.832l-4.062-1.764l-2.967-5.473l-0.037-0.604c-2.072,0.551-7.826,1.811-13.568,0.688l-0.123,2.143
		l-4.266,7.979l-8.441,0.928l-4.359-1.949l-2.598-3.152l-1.67-3.988l-0.092-7.516l4.359-7.234l9.09-0.648l3.246,0.648l4.746,7.854
		c2.176-0.424,7.514-1.307,13.357-1.107l-0.109-1.83l3.988-6.586l8.719-0.557l2.674,0.914c-0.137,3.547-0.148,7.408,0.182,10.412
		l-3.916,0.85l-4.398,4.66L580.559,496.832z M601.744,450.232l-15.396,0.156l-3.473,3.303l0.152,9.459l2.926,3.016l0.375,0.271
		l15.215,0.031l3.287-3.207l0.213-9.836L601.744,450.232z M601.617,488.361l-4.186-0.768l-7.424-0.158l-3.697,0.803l-3.557,3.768
		l0.428,9.27l3.857,3.369l2.422,0.611l10.018-0.162l1.932-0.959l2.838-2.271l0.387-10.488L601.617,488.361z M591.539,465.553
		c0,0-1.521,14.807-0.299,21.646c1.225,6.84,5.479,0.297,5.479,0.297s2.248-10.084,0.199-22.125"/>
	<text transform="matrix(1 0 0 1 534.6719 527.7441)" font-family="'HelveticaNeue-Bold'" font-size="3.7037">Created by Cris Dobbins</text>
	<text transform="matrix(1 0 0 1 534.6719 531.4473)" font-family="'HelveticaNeue-Bold'" font-size="3.7037">from the Noun Project</text>
</g>
<g>
	<path d="M428.961,263.049c1.803-1.003,3.17-2.54,3.186-4.503h0.002c-0.016-1.965-1.385-3.502-3.188-4.505
		c-1.826-1.019-4.225-1.602-6.859-1.604c-2.637,0.003-5.035,0.586-6.861,1.604c-1.803,1.003-3.17,2.54-3.188,4.505
		c0.016,1.962,1.385,3.5,3.188,4.503c1.477,0.823,3.33,1.356,5.379,1.534v1.451h-1.744l3.15,5.456l-6.699-0.001
		c-1.4,0.002-2.533,1.134-2.533,2.533l-0.002,3.34l-5.449-3.146v1.897c-6.162,0.335-11.061,5.423-11.061,11.67
		c0,6.463,5.238,11.702,11.705,11.702h5.043c0.115,0.214,0.252,0.42,0.432,0.601l0.047,0.046l6.852,5.369
		c0.104,0.098,0.215,0.179,0.33,0.258v1.408h-1.814l3.076,5.327c-2.576,0.024-4.92,0.603-6.711,1.6
		c-1.803,1.004-3.172,2.542-3.188,4.505c0.016,1.962,1.385,3.5,3.188,4.504c1.826,1.018,4.225,1.601,6.861,1.604
		c2.635-0.004,5.033-0.587,6.859-1.604c1.801-1.004,3.17-2.542,3.186-4.504c-0.016-1.963-1.385-3.501-3.186-4.505
		c-1.791-0.997-4.135-1.575-6.711-1.6l3.076-5.327h-1.676v-1.521c0.061-0.046,0.123-0.085,0.18-0.138l6.867-5.383l0.047-0.046
		c0.484-0.491,0.736-1.141,0.734-1.786c0.002-0.644-0.248-1.298-0.74-1.79l-0.051-0.052l-6.859-5.373
		c-0.467-0.436-1.066-0.661-1.662-0.677l3.16-5.472h-1.742v-1.531h5.293c1.398-0.002,2.531-1.135,2.533-2.534v-6.842
		c-0.004-1.399-1.135-2.532-2.535-2.532h-6.699l3.15-5.456h-1.742v-1.451C425.631,264.405,427.484,263.872,428.961,263.049z
		 M429.926,318.6c0.016,0.796-0.617,1.76-2.049,2.562c-1.406,0.791-3.477,1.326-5.775,1.322c-2.299,0.004-4.369-0.531-5.777-1.322
		c-1.434-0.803-2.066-1.767-2.049-2.562c-0.018-0.798,0.615-1.759,2.049-2.565c1.406-0.789,3.479-1.325,5.777-1.32
		c2.299-0.005,4.367,0.531,5.775,1.32C429.311,316.841,429.941,317.802,429.926,318.6z M422.369,292.758l6.828,5.351
		c0.041,0.055,0.061,0.116,0.062,0.187c-0.002,0.066-0.02,0.13-0.064,0.189l-6.826,5.348l-0.047,0.047
		c-0.062,0.062-0.139,0.09-0.223,0.091c-0.084-0.001-0.158-0.03-0.219-0.089l-0.051-0.051l-6.822-5.345
		c-0.045-0.056-0.064-0.121-0.066-0.19c0.002-0.073,0.02-0.134,0.062-0.187l6.832-5.353l0.045-0.046
		c0.064-0.062,0.135-0.09,0.221-0.091c0.08,0.001,0.156,0.028,0.221,0.094L422.369,292.758z M415.326,283.399h5.293v1.531h-1.744
		l3.16,5.472c-0.598,0.016-1.197,0.238-1.666,0.678l-6.854,5.369l-0.049,0.051c-0.23,0.226-0.398,0.487-0.521,0.764l-4.959-0.002
		c-5.236-0.009-9.471-4.244-9.482-9.479c0.01-5.019,3.904-9.107,8.84-9.447v2.331l5.449-3.147l-0.002,3.347
		c0.004,1.399,1.135,2.531,2.533,2.532 M429.188,274.025v6.841c0,0.171-0.141,0.31-0.311,0.31h-13.551
		c-0.17,0-0.312-0.142-0.312-0.312v-6.841c0-0.17,0.139-0.311,0.312-0.311h13.549C429.045,273.713,429.188,273.854,429.188,274.025z
		 M414.275,258.547c-0.016-0.798,0.617-1.76,2.049-2.564c1.408-0.792,3.479-1.326,5.777-1.322c2.299-0.003,4.369,0.53,5.777,1.322
		c1.432,0.805,2.064,1.767,2.047,2.564h0.002c0.016,0.796-0.617,1.758-2.049,2.564c-1.408,0.79-3.477,1.325-5.777,1.322
		c-2.299,0.003-4.367-0.532-5.777-1.322C414.893,260.304,414.26,259.342,414.275,258.547z"/>
	<text transform="matrix(1 0 0 1 384.7168 338.5938)" font-family="'HelveticaNeue-Bold'" font-size="3.7037">Created by Michael Wohlwend</text>
	<text transform="matrix(1 0 0 1 384.7168 342.2979)" font-family="'HelveticaNeue-Bold'" font-size="3.7037">from the Noun Project</text>
</g>
<g>
	<g>
		<path fill="#969CA8" d="M508.368,98.444h-7.852c-0.741,0-1.333,0.593-1.333,1.333v2.741h-31.704v-2.741
			c0-0.74-0.593-1.333-1.333-1.333h-7.778c-0.741,0-1.333,0.593-1.333,1.333v8.074c0,0.741,0.592,1.333,1.333,1.333h7.853
			c0.74,0,1.333-0.592,1.333-1.333v-2.74h14.593c-0.148,3.259-8.074,18.592-13.111,27.629c-0.297,0.519-0.148,1.186,0.296,1.63
			c4.519,3.852,5.63,7.63,5.927,9.556h-1.704c-0.741,0-1.333,0.593-1.333,1.333v6.519c0,0.741,0.592,1.334,1.333,1.334h19.704
			c0.74,0,1.333-0.593,1.333-1.334v-6.519c0-0.74-0.593-1.333-1.333-1.333h-1.704c0.296-1.926,1.407-5.704,5.926-9.556
			c0.444-0.37,0.593-1.111,0.296-1.63c-5.037-9.037-12.963-24.444-13.111-27.629h14.52v2.74c0,0.741,0.592,1.333,1.333,1.333h7.852
			c0.741,0,1.333-0.592,1.333-1.333v-8.074C509.701,99.037,509.109,98.444,508.368,98.444z M464.887,106.519h-5.26v-5.481h5.26
			V106.519z M483.405,128.222c0.963,0,1.704,0.741,1.704,1.704s-0.741,1.704-1.704,1.704s-1.704-0.741-1.704-1.704
			C481.701,129.037,482.517,128.222,483.405,128.222z M491.998,150.37h-17.111v-3.926h1.777h13.557h1.777V150.37z M488.961,143.852
			H477.85c-0.296-2.148-1.407-6.444-6.074-10.814c1.778-3.26,7.111-13.037,10.297-20.297v13.111
			c-1.704,0.519-2.963,2.148-2.963,4.074c0,2.37,1.926,4.296,4.296,4.296s4.296-1.926,4.296-4.296c0-1.926-1.259-3.481-2.963-4.074
			v-13.186c3.26,7.26,8.52,17.037,10.297,20.371C490.368,137.407,489.258,141.703,488.961,143.852z M507.109,106.519h-5.26v-2.444
			c0-0.074,0-0.148,0-0.223s0-0.148,0-0.222v-2.519h5.26V106.519z"/>
	</g>
	<text transform="matrix(1 0 0 1 446.2207 171.8516)" font-family="'HelveticaNeue-Bold'" font-size="3.7037">Created by Christelle Mozzati</text>
	<text transform="matrix(1 0 0 1 446.2207 175.5557)" font-family="'HelveticaNeue-Bold'" font-size="3.7037">from the Noun Project</text>
</g>
<g>
	<path fill="#313741" d="M96.513,119H64.92c-0.525,0-0.95,0.386-0.95,0.861v43.787c0,0.475,0.425,0.859,0.95,0.859h31.593
		c0.526,0,0.954-0.386,0.954-0.859v-43.786C97.467,119.386,97.039,119,96.513,119z M92.198,121.078c1.455,0,2.633,1.181,2.633,2.637
		c0,1.453-1.178,2.633-2.633,2.633c-1.457,0-2.636-1.182-2.636-2.633C89.562,122.258,90.742,121.078,92.198,121.078z
		 M84.652,121.078c1.457,0,2.636,1.181,2.636,2.637c0,1.453-1.18,2.633-2.636,2.633c-1.453,0-2.634-1.182-2.634-2.633
		C82.018,122.258,83.198,121.078,84.652,121.078z M76.783,121.078c1.455,0,2.633,1.181,2.633,2.637c0,1.453-1.179,2.633-2.633,2.633
		c-1.454,0-2.636-1.182-2.636-2.633C74.146,122.258,75.329,121.078,76.783,121.078z M69.235,121.078
		c1.457,0,2.636,1.181,2.636,2.637c0,1.453-1.179,2.633-2.636,2.633c-1.454,0-2.635-1.182-2.635-2.633
		C66.603,122.258,67.782,121.078,69.235,121.078z M71.564,162.137c0,0.065-0.067,0.119-0.151,0.119h-5.375
		c-0.082,0-0.15-0.054-0.15-0.119v-3.121c0-0.064,0.068-0.119,0.15-0.119h5.375c0.084,0,0.151,0.054,0.151,0.119V162.137z
		 M71.564,156.806c0,0.067-0.067,0.12-0.151,0.12h-5.375c-0.082,0-0.15-0.053-0.15-0.12v-3.122c0-0.063,0.068-0.118,0.15-0.118
		h5.375c0.084,0,0.151,0.054,0.151,0.118V156.806z M79.041,162.137c0,0.065-0.069,0.119-0.149,0.119h-5.378
		c-0.083,0-0.149-0.054-0.149-0.119v-3.121c0-0.064,0.066-0.119,0.149-0.119h5.378c0.081,0,0.149,0.054,0.149,0.119V162.137z
		 M86.799,162.137c0,0.065-0.066,0.119-0.149,0.119h-5.375c-0.085,0-0.153-0.054-0.153-0.119v-3.121
		c0-0.064,0.067-0.119,0.153-0.119h5.375c0.083,0,0.149,0.054,0.149,0.119V162.137z M80.637,151.414
		c-6.429,0-11.64-5.211-11.64-11.639c0-6.428,5.211-11.64,11.64-11.64c6.427,0,11.639,5.211,11.639,11.64
		C92.274,146.202,87.063,151.414,80.637,151.414z M94.691,147.09v6.136c0,0.095-0.028,0.17-0.064,0.17h-1.714
		c-0.036,0-0.063-0.075-0.063-0.17v-6.136c0-0.093,0.027-0.172,0.063-0.172h1.714C94.663,146.918,94.691,146.998,94.691,147.09z
		 M94.691,162.126c0,0.071-0.028,0.13-0.064,0.13h-1.714c-0.036,0-0.063-0.059-0.063-0.13v-4.66c0-0.071,0.027-0.131,0.063-0.131
		h1.714c0.036,0,0.064,0.06,0.064,0.131V162.126z M96.23,156.543c0,0.041-0.059,0.074-0.13,0.074h-4.661
		c-0.072,0-0.131-0.033-0.131-0.074v-1.942c0-0.042,0.059-0.074,0.131-0.074H96.1c0.071,0,0.13,0.032,0.13,0.074V156.543z
		 M85.178,139.774c0,2.507-2.034,4.542-4.541,4.542c-2.509,0-4.542-2.035-4.542-4.542c0-2.509,2.033-4.542,4.542-4.542
		C83.144,135.232,85.178,137.266,85.178,139.774z M7.194,119.862v43.786c0,0.476,0.427,0.861,0.953,0.861h31.591
		c0.526,0,0.953-0.386,0.953-0.861v-43.786c0-0.476-0.427-0.861-0.953-0.861H8.147C7.621,119,7.194,119.386,7.194,119.862z
		 M15.095,123.714c0,1.453-1.178,2.633-2.632,2.633s-2.634-1.182-2.634-2.633c0-1.456,1.181-2.637,2.634-2.637
		C13.917,121.078,15.095,122.258,15.095,123.714z M10.032,146.918h1.716c0.035,0,0.064,0.079,0.064,0.172v6.136
		c0,0.095-0.03,0.17-0.064,0.17h-1.716c-0.036,0-0.065-0.075-0.065-0.17v-6.136C9.967,146.998,9.997,146.918,10.032,146.918z
		 M22.642,123.714c0,1.453-1.178,2.633-2.635,2.633c-1.453,0-2.632-1.182-2.632-2.633c0-1.456,1.179-2.637,2.632-2.637
		C21.463,121.078,22.642,122.258,22.642,123.714z M30.513,123.714c0,1.453-1.179,2.633-2.634,2.633
		c-1.454,0-2.634-1.182-2.634-2.633c0-1.456,1.18-2.637,2.634-2.637C29.334,121.078,30.513,122.258,30.513,123.714z M38.059,123.714
		c0,1.453-1.181,2.633-2.634,2.633c-1.455,0-2.633-1.182-2.633-2.633c0-1.456,1.178-2.637,2.633-2.637
		C36.878,121.078,38.059,122.258,38.059,123.714z M33.095,159.016c0-0.064,0.067-0.119,0.151-0.119h5.376
		c0.083,0,0.15,0.054,0.15,0.119v3.121c0,0.065-0.066,0.119-0.15,0.119h-5.376c-0.083,0-0.151-0.054-0.151-0.119V159.016z
		 M33.095,153.684c0-0.063,0.067-0.118,0.151-0.118h5.376c0.083,0,0.15,0.054,0.15,0.118v3.122c0,0.067-0.066,0.12-0.15,0.12h-5.376
		c-0.083,0-0.151-0.053-0.151-0.12V153.684z M25.621,159.016c0-0.064,0.066-0.119,0.149-0.119h5.376c0.082,0,0.15,0.054,0.15,0.119
		v3.121c0,0.065-0.068,0.119-0.15,0.119H25.77c-0.083,0-0.149-0.054-0.149-0.119V159.016z M17.861,159.016
		c0-0.064,0.067-0.119,0.151-0.119h5.375c0.084,0,0.152,0.054,0.152,0.119v3.121c0,0.065-0.068,0.119-0.152,0.119h-5.375
		c-0.084,0-0.151-0.054-0.151-0.119V159.016z M12.387,139.774c0-6.428,5.209-11.64,11.638-11.64c6.429,0,11.64,5.211,11.64,11.64
		c0,6.428-5.21,11.639-11.64,11.639C17.596,151.414,12.387,146.202,12.387,139.774z M9.967,157.465c0-0.072,0.03-0.131,0.065-0.131
		h1.716c0.035,0,0.064,0.059,0.064,0.131v4.66c0,0.072-0.03,0.131-0.064,0.131h-1.716c-0.036,0-0.065-0.06-0.065-0.131V157.465z
		 M8.429,154.601c0-0.042,0.058-0.074,0.13-0.074h4.66c0.072,0,0.13,0.032,0.13,0.074v1.944c0,0.041-0.059,0.074-0.13,0.074H8.56
		c-0.073,0-0.13-0.033-0.13-0.074L8.429,154.601L8.429,154.601z M24.024,135.233c2.511,0,4.543,2.033,4.543,4.542
		c0,2.507-2.032,4.542-4.543,4.542c-2.508,0-4.543-2.035-4.543-4.542C19.481,137.266,21.516,135.233,24.024,135.233z
		 M54.791,127.796c0,1.36-1.103,2.46-2.46,2.46c-1.358,0-2.46-1.1-2.46-2.46c0-1.359,1.1-2.459,2.46-2.459
		C53.689,125.337,54.791,126.437,54.791,127.796z M61.076,119H43.584c-0.292,0-0.526,0.386-0.526,0.861v43.787
		c0,0.475,0.235,0.859,0.526,0.859h17.492c0.291,0,0.527-0.386,0.527-0.859v-43.786C61.604,119.386,61.367,119,61.076,119z
		 M57.227,146.902v6.135c0,0.095-0.029,0.172-0.066,0.172h-1.712c-0.036,0-0.064-0.077-0.064-0.172v-6.135
		c0-0.094,0.029-0.172,0.064-0.172h1.712C57.197,146.729,57.227,146.808,57.227,146.902z M48.924,123.253h6.812v9.084h-6.812
		V123.253z M48.924,134.231h6.812v9.083h-6.812V134.231z M47.434,146.902c0-0.094,0.029-0.172,0.064-0.172h1.713
		c0.037,0,0.066,0.078,0.066,0.172v6.135c0,0.095-0.029,0.172-0.066,0.172h-1.713c-0.037,0-0.064-0.077-0.064-0.172V146.902z
		 M49.279,161.936c0,0.072-0.029,0.129-0.066,0.129H47.5c-0.037,0-0.064-0.058-0.064-0.129v-4.66c0-0.072,0.029-0.13,0.064-0.13
		h1.713c0.038,0,0.066,0.058,0.066,0.13V161.936z M50.817,156.355c0,0.04-0.058,0.074-0.131,0.074h-4.66
		c-0.072,0-0.13-0.034-0.13-0.074v-1.944c0-0.041,0.059-0.074,0.13-0.074h4.66c0.073,0,0.131,0.033,0.131,0.074V156.355z
		 M57.227,161.936c0,0.072-0.029,0.129-0.066,0.129h-1.712c-0.036,0-0.064-0.058-0.064-0.129v-4.66c0-0.072,0.029-0.13,0.064-0.13
		h1.712c0.037,0,0.066,0.058,0.066,0.13V161.936z M58.766,156.355c0,0.04-0.059,0.074-0.132,0.074h-4.658
		c-0.072,0-0.134-0.034-0.134-0.074v-1.944c0-0.041,0.062-0.074,0.134-0.074h4.658c0.073,0,0.132,0.033,0.132,0.074V156.355z
		 M54.791,138.772c0,1.358-1.103,2.459-2.46,2.459c-1.358,0-2.46-1.1-2.46-2.459c0-1.359,1.1-2.459,2.46-2.459
		C53.689,136.312,54.791,137.413,54.791,138.772z"/>
	<text transform="matrix(1 0 0 1 2.1787 209.459)" fill="#313741" font-family="'HelveticaNeue-Bold'" font-size="5.0151">Created by Cris Dobbins</text>
	<text transform="matrix(1 0 0 1 2.1787 214.4761)" fill="#313741" font-family="'HelveticaNeue-Bold'" font-size="5.0151">from the Noun Project</text>
</g>
<g>
	<path d="M-67.707,326.721c-7.649,0-13.847,6.199-13.847,13.846s6.198,13.846,13.847,13.846c7.648,0,13.844-6.199,13.844-13.846
		S-60.059,326.721-67.707,326.721z M-67.687,345.209c-2.573,0-4.662-2.09-4.662-4.666s2.089-4.666,4.662-4.666
		c2.579,0,4.667,2.088,4.667,4.666C-63.02,343.119-65.107,345.209-67.687,345.209z M-67.707,323.072
		c-9.662,0-17.5,7.832-17.5,17.494s7.838,17.496,17.5,17.496s17.495-7.834,17.495-17.496S-58.044,323.072-67.707,323.072z
		 M-67.609,357.168c-9.116,0-16.504-7.391-16.504-16.506c0-9.117,7.39-16.502,16.504-16.502c9.114,0,16.502,7.385,16.502,16.502
		C-51.107,349.777-58.496,357.168-67.609,357.168z M-67.707,338.078c-1.375,0-2.49,1.113-2.49,2.488c0,1.373,1.114,2.486,2.49,2.486
		c1.373,0,2.487-1.113,2.487-2.486C-65.22,339.191-66.334,338.078-67.707,338.078z M-67.707,341.627
		c-0.589,0-1.061-0.475-1.061-1.061s0.472-1.061,1.061-1.061c0.583,0,1.058,0.475,1.058,1.061S-67.124,341.627-67.707,341.627z
		 M-50.432,298.465h-34.875c-0.54,0-0.94,0.068-0.94,0.811l0.062,2.332v0.098l0.659,13.062c0,0.713,0.312,0.846,0.626,0.842
		c3.161,0,17.458,0.031,17.458,0.031s13.705,0.066,16.457-0.031c0.816,0.064,0.94-0.715,0.94-0.715l0.53-13.189v-0.031l0.061-2.236
		C-49.454,298.693-49.891,298.465-50.432,298.465z M-52.471,312.867h-30.94l-0.356-11.4h31.563L-52.471,312.867z M-43.061,302.354
		h-5.464h-0.004v-0.031h-0.015v0.031l-0.562,13.42c0,0-0.131,0.791-0.988,0.727c-2.902,0.098-17.345,0.031-17.345,0.031
		s-15.067-0.031-18.397-0.031c-0.328,0-0.656-0.131-0.656-0.859l-0.693-13.287h-5.488c-0.769,0-1.389,0.615-1.389,1.371v60.033
		c0,0.76,0.62,1.373,1.389,1.373c0,0,9.979,0,9.991,0c0.232,0,0.333-0.15,0.333-0.15l0.787-1.037
		c0.197-0.328,0.263-0.27,0.733-0.264h26.061c0.406,0,0.538,0.033,0.801,0.396c0,0,0.7,0.906,0.683,0.906
		c0.078,0.137,0.293,0.148,0.293,0.148h9.931c0.766,0,1.39-0.611,1.39-1.373v-60.033C-41.671,302.969-42.295,302.354-43.061,302.354
		z M-92.461,318.602c0-0.057,0.051-0.1,0.124-0.1h4.088c0.068,0,0.123,0.043,0.123,0.1v1.836c0,0.057-0.055,0.102-0.123,0.102
		h-4.088c-0.072,0-0.124-0.045-0.124-0.102V318.602z M-92.461,322.707c0-0.055,0.051-0.1,0.124-0.1h4.088
		c0.068,0,0.123,0.045,0.123,0.1v1.838c0,0.053-0.055,0.098-0.123,0.098h-4.088c-0.072,0-0.124-0.045-0.124-0.098V322.707z
		 M-92.461,326.861c0-0.057,0.051-0.104,0.124-0.104h4.088c0.068,0,0.123,0.047,0.123,0.104v1.836c0,0.053-0.055,0.098-0.123,0.098
		h-4.088c-0.072,0-0.124-0.045-0.124-0.098V326.861z M-92.54,331.15c0-0.115,0.114-0.211,0.256-0.211h3.982
		c0.137,0,0.25,0.096,0.25,0.211v1.65c0,0.117-0.113,0.207-0.25,0.207h-3.982c-0.141,0-0.256-0.09-0.256-0.207V331.15z
		 M-90.109,361.279c-1.59,0-2.885-1.293-2.885-2.879c0-1.594,1.295-2.885,2.885-2.885c1.588,0,2.884,1.289,2.884,2.885
		C-87.227,359.986-88.522,361.279-90.109,361.279z M-90.109,354.363c-1.59,0-2.885-1.291-2.885-2.879
		c0-1.592,1.295-2.883,2.885-2.883c1.588,0,2.884,1.289,2.884,2.883C-87.227,353.072-88.522,354.363-90.109,354.363z
		 M-49.335,361.436h-36.583v-43.215h36.583V361.436z M-44.74,360.998c0,0.256-0.326,0.465-0.727,0.465c-0.4,0-0.73-0.209-0.73-0.465
		v-4.67h1.458L-44.74,360.998L-44.74,360.998z M-42.891,354.678c0,0.346-0.298,0.629-0.668,0.629h-4.003
		c-0.368,0-0.667-0.283-0.667-0.629v-0.594c0-0.346,0.298-0.627,0.667-0.627h4.003c0.37,0,0.668,0.281,0.668,0.627V354.678z
		 M-46.377,352.584v-15.488c0-0.258,0.349-0.465,0.77-0.465c0.424,0,0.77,0.207,0.77,0.465v15.488H-46.377z M-45.17,310.406
		c-1.318,0-2.383-1.066-2.383-2.381c0-1.318,1.065-2.385,2.383-2.385c1.312,0,2.382,1.066,2.382,2.385
		C-42.789,309.34-43.858,310.406-45.17,310.406z M-46.185,308.633l1.988-0.004v0.432l-1.988,0.002V308.633z M-44.21,308.229
		l-1.957,0.002l0.958-1.617L-44.21,308.229z M-78.295,303.098v3.707h-0.751v-3.707c0-0.178,0.166-0.316,0.374-0.316
		C-78.462,302.781-78.295,302.92-78.295,303.098z M-79.688,303.299v3.506h-0.749v-3.506c0-0.172,0.165-0.309,0.375-0.309
		C-79.853,302.99-79.688,303.127-79.688,303.299z M-81.079,305.119v1.686h-0.75v-1.686c0-0.139,0.143-0.223,0.376-0.223
		C-81.218,304.896-81.079,304.98-81.079,305.119z M-76.888,303.197v3.607h-0.75v-3.607c0-0.174,0.166-0.312,0.375-0.312
		C-77.052,302.885-76.888,303.023-76.888,303.197z M-75.46,302.916v3.889h-0.749v-3.889c0-0.182,0.167-0.328,0.373-0.328
		C-75.628,302.588-75.46,302.734-75.46,302.916z M-74.07,303.865v2.939h-0.749v-2.939c0-0.158,0.162-0.281,0.375-0.281
		C-74.23,303.586-74.07,303.707-74.07,303.865z M-72.677,304.971v1.834h-0.75v-1.834c0-0.143,0.146-0.232,0.371-0.232
		C-72.822,304.74-72.677,304.826-72.677,304.971z M-71.271,305.805v1h-0.749v-1c0-0.189,0.261-0.189,0.374-0.189
		C-71.534,305.615-71.271,305.615-71.271,305.805z M-69.176,305.838v0.967h-0.749v-0.967c0-0.188,0.257-0.188,0.376-0.188
		C-69.427,305.648-69.176,305.648-69.176,305.838z M-67.82,304.885v1.92h-0.749v-1.92c0-0.141,0.146-0.232,0.375-0.232
		C-67.967,304.652-67.82,304.744-67.82,304.885z M-66.394,303.615v3.189h-0.75v-3.189c0-0.164,0.167-0.293,0.377-0.293
		C-66.558,303.322-66.394,303.451-66.394,303.615z M-65.021,302.514v4.291h-0.749v-4.291c0-0.191,0.169-0.346,0.374-0.346
		C-65.189,302.168-65.021,302.322-65.021,302.514z M-63.592,303.049v3.756h-0.751v-3.756c0-0.18,0.165-0.32,0.376-0.32
		C-63.758,302.729-63.592,302.869-63.592,303.049z M-62.185,303.164v3.641h-0.751v-3.641c0-0.174,0.166-0.312,0.378-0.312
		C-62.348,302.852-62.185,302.99-62.185,303.164z M-60.793,303.482v3.322h-0.75v-3.322c0-0.17,0.166-0.299,0.376-0.299
		C-60.957,303.184-60.793,303.312-60.793,303.482z M-59.384,303.033v3.771h-0.749v-3.771c0-0.178,0.167-0.322,0.374-0.322
		C-59.553,302.711-59.384,302.855-59.384,303.033z M-57.993,304.717v2.088h-0.749v-2.088c0-0.145,0.15-0.24,0.372-0.24
		C-58.144,304.477-57.993,304.574-57.993,304.717z M-56.612,305.471v1.334h-0.75v-1.334c0-0.096,0.066-0.207,0.374-0.207
		C-56.677,305.264-56.612,305.377-56.612,305.471z M-55.193,305.537v1.268h-0.752v-1.268c0-0.135,0.127-0.201,0.377-0.201
		C-55.319,305.334-55.193,305.402-55.193,305.537z M-53.838,305.938v0.867h-0.753v-0.867c0-0.184,0.235-0.184,0.377-0.184
		C-54.074,305.754-53.838,305.754-53.838,305.938z M-78.672,311.555c-0.208,0-0.374-0.139-0.374-0.316v-3.707h0.751v3.707
		C-78.295,311.416-78.462,311.555-78.672,311.555z M-80.062,311.346c-0.21,0-0.375-0.135-0.375-0.309v-3.506h0.749v3.506
		C-79.688,311.211-79.853,311.346-80.062,311.346z M-81.453,309.439c-0.233,0-0.376-0.082-0.376-0.223v-1.686h0.75v1.686
		C-81.079,309.357-81.218,309.439-81.453,309.439z M-77.263,311.449c-0.21,0-0.375-0.137-0.375-0.311v-3.607h0.75v3.607
		C-76.888,311.312-77.052,311.449-77.263,311.449z M-75.836,311.75c-0.206,0-0.373-0.148-0.373-0.328v-3.889h0.749v3.889
		C-75.46,311.602-75.628,311.75-75.836,311.75z M-74.444,310.75c-0.213,0-0.375-0.119-0.375-0.279v-2.939h0.749v2.939
		C-74.07,310.631-74.23,310.75-74.444,310.75z M-73.056,309.598c-0.226,0-0.371-0.09-0.371-0.23v-1.836h0.75v1.836
		C-72.677,309.51-72.822,309.598-73.056,309.598z M-71.645,308.723c-0.113,0-0.374,0-0.374-0.189v-1.002h0.749v1.002
		C-71.271,308.723-71.534,308.723-71.645,308.723z M-69.549,308.688c-0.119,0-0.376,0-0.376-0.188v-0.969h0.75v0.969
		C-69.176,308.688-69.427,308.688-69.549,308.688z M-68.194,309.684c-0.229,0-0.375-0.092-0.375-0.232v-1.92h0.749v1.92
		C-67.82,309.592-67.967,309.684-68.194,309.684z M-66.767,311.014c-0.209,0-0.377-0.129-0.377-0.293v-3.189h0.75v3.189
		C-66.394,310.885-66.558,311.014-66.767,311.014z M-65.396,312.168c-0.205,0-0.374-0.154-0.374-0.346v-4.291h0.749v4.291
		C-65.021,312.014-65.189,312.168-65.396,312.168z M-63.967,311.607c-0.211,0-0.376-0.139-0.376-0.32v-3.756h0.751v3.756
		C-63.592,311.469-63.758,311.607-63.967,311.607z M-62.558,311.486c-0.212,0-0.378-0.139-0.378-0.314v-3.641h0.751v3.641
		C-62.185,311.348-62.348,311.486-62.558,311.486z M-61.167,311.154c-0.21,0-0.376-0.133-0.376-0.301v-3.322h0.75v3.322
		C-60.793,311.021-60.957,311.154-61.167,311.154z M-59.759,311.625c-0.208,0-0.374-0.143-0.374-0.32v-3.773h0.749v3.773
		C-59.384,311.482-59.553,311.625-59.759,311.625z M-58.37,309.859c-0.222,0-0.372-0.098-0.372-0.24v-2.088h0.749v2.088
		C-57.993,309.762-58.144,309.859-58.37,309.859z M-56.987,309.072c-0.308,0-0.374-0.111-0.374-0.205v-1.336h0.75v1.336
		C-56.612,308.961-56.677,309.072-56.987,309.072z M-55.567,309.002c-0.25,0-0.377-0.068-0.377-0.201v-1.268h0.752v1.268
		C-55.193,308.934-55.319,309.002-55.567,309.002z M-54.213,308.582c-0.141,0-0.377,0-0.377-0.184v-0.867h0.753v0.867
		C-53.838,308.582-54.074,308.582-54.213,308.582z"/>
	<text transform="matrix(1 0 0 1 -104.9028 381.7969)" font-family="'HelveticaNeue-Bold'" font-size="3.7037">Created by Cris Dobbins</text>
	<text transform="matrix(1 0 0 1 -104.9028 385.502)" font-family="'HelveticaNeue-Bold'" font-size="3.7037">from the Noun Project</text>
</g>
<g>
	<g id="Layer_1_1_">
		<path d="M-57.967,454.995c-7.333,0-13.333,6-13.333,13.333s6,13.333,13.333,13.333c7.333,0,13.333-6,13.333-13.333
			S-50.634,454.995-57.967,454.995z M-57.967,470.995c-1.481,0-2.667-1.186-2.667-2.667s1.186-2.667,2.667-2.667
			s2.667,1.186,2.667,2.667S-56.486,470.995-57.967,470.995z"/>
		<path d="M-99.449,454.995c-7.333,0-13.333,6-13.333,13.333s6,13.333,13.333,13.333c7.333,0,13.333-6,13.333-13.333
			S-92.116,454.995-99.449,454.995z M-99.449,470.995c-1.481,0-2.667-1.186-2.667-2.667s1.186-2.667,2.667-2.667
			s2.667,1.186,2.667,2.667S-97.967,470.995-99.449,470.995z"/>
		<g>
			<path d="M-80.93,453.143v1.111h-0.741v-1.111c-0.741,0.148-1.481,0.89-1.481,1.778c0,1.037,0.814,1.852,1.852,1.852
				s1.852-0.814,1.852-1.777C-79.449,454.105-80.189,453.365-80.93,453.143z"/>
		</g>
		<g>
			<path d="M-75.745,453.143v1.111h-0.741v-1.111c-0.741,0.148-1.481,0.89-1.481,1.778c0,1.037,0.815,1.852,1.852,1.852
				c1.037,0,1.852-0.814,1.852-1.777C-74.264,454.105-75.004,453.365-75.745,453.143z"/>
		</g>
		<g>
			<path d="M-80.93,458.328v1.111h-0.741v-1.111c-0.741,0.148-1.481,0.889-1.481,1.777c0,1.037,0.814,1.853,1.852,1.853
				s1.852-0.815,1.852-1.778C-79.449,459.291-80.189,458.55-80.93,458.328z"/>
		</g>
		<g>
			<path d="M-75.745,458.328v1.111h-0.741v-1.111c-0.741,0.148-1.481,0.889-1.481,1.777c0,1.037,0.815,1.853,1.852,1.853
				c1.037,0,1.852-0.815,1.852-1.778C-74.264,459.291-75.004,458.55-75.745,458.328z"/>
		</g>
		<g>
			<path d="M-80.93,463.514v1.11h-0.741v-1.11c-0.741,0.147-1.481,0.889-1.481,1.777c0,1.037,0.814,1.852,1.852,1.852
				s1.852-0.814,1.852-1.777C-79.449,464.477-80.189,463.735-80.93,463.514z"/>
		</g>
		<g>
			<path d="M-75.745,463.514v1.11h-0.741v-1.11c-0.741,0.147-1.481,0.889-1.481,1.777c0,1.037,0.815,1.852,1.852,1.852
				c1.037,0,1.852-0.814,1.852-1.777C-74.264,464.477-75.004,463.735-75.745,463.514z"/>
		</g>
		<g>
			<path d="M-80.93,468.698v1.111h-0.741v-1.111c-0.741,0.148-1.481,0.889-1.481,1.778c0,1.037,0.814,1.852,1.852,1.852
				s1.852-0.814,1.852-1.778C-79.449,469.661-80.189,468.921-80.93,468.698z"/>
		</g>
		<g>
			<path d="M-75.745,468.698v1.111h-0.741v-1.111c-0.741,0.148-1.481,0.889-1.481,1.778c0,1.037,0.815,1.852,1.852,1.852
				c1.037,0,1.852-0.814,1.852-1.778C-74.264,469.661-75.004,468.921-75.745,468.698z"/>
		</g>
		<polygon points="-79.449,479.439 -80.93,479.439 -80.93,474.254 -81.671,474.254 -81.671,479.439 -83.152,479.439 -83.152,480.18 
			-81.671,480.18 -81.671,481.661 -80.93,481.661 -80.93,480.18 -79.449,480.18 		"/>
		<polygon points="-74.264,475.735 -75.745,475.735 -75.745,474.254 -76.486,474.254 -76.486,475.735 -77.967,475.735 
			-77.967,476.477 -76.486,476.477 -76.486,481.661 -75.745,481.661 -75.745,476.477 -74.264,476.477 		"/>
		<polygon points="-71.301,486.847 -77.227,486.847 -77.227,484.624 -80.189,484.624 -80.189,486.847 -86.116,486.847 
			-86.116,488.328 -80.189,488.328 -80.189,490.549 -77.227,490.549 -77.227,488.328 -71.301,488.328 		"/>
		<rect x="-112.042" y="447.587" width="3.704" height="3.704"/>
		<rect x="-106.856" y="447.587" width="3.704" height="3.704"/>
		<rect x="-101.671" y="447.587" width="3.704" height="3.704"/>
		<rect x="-96.486" y="447.587" width="3.704" height="3.704"/>
		<rect x="-91.301" y="447.587" width="3.704" height="3.704"/>
		<rect x="-69.819" y="447.587" width="3.704" height="3.704"/>
		<rect x="-64.634" y="447.587" width="3.704" height="3.704"/>
		<rect x="-59.449" y="447.587" width="3.704" height="3.704"/>
		<rect x="-54.264" y="447.587" width="3.704" height="3.704"/>
		<rect x="-49.079" y="447.587" width="3.704" height="3.704"/>
		<rect x="-101.671" y="486.105" width="4.444" height="2.963"/>
		<rect x="-107.597" y="486.105" width="4.445" height="2.963"/>
		<rect x="-95.745" y="486.105" width="4.444" height="2.963"/>
		<rect x="-60.189" y="486.105" width="4.444" height="2.963"/>
		<rect x="-66.116" y="486.105" width="4.445" height="2.963"/>
		<rect x="-54.264" y="486.105" width="4.444" height="2.963"/>
		<path d="M-43.152,445.958v46.665h-71.111v-46.665H-43.152 M-41.671,444.477h-74.074v49.629h74.074V444.477L-41.671,444.477z"/>
	</g>
	<g id="Layer_2">
	</g>
	<text transform="matrix(1 0 0 1 -115.7451 525.7354)" font-family="'HelveticaNeue-Bold'" font-size="3.7037">Created by Adomas Tautkus</text>
	<text transform="matrix(1 0 0 1 -115.7451 529.4395)" font-family="'HelveticaNeue-Bold'" font-size="3.7037">from the Noun Project</text>
</g>
<g>
	<g id="Capa_69_1_">
		<g>
			<circle fill="#008CDC" cx="-95.529" cy="12.922" r="7.329"/>
			<circle fill="#313741" cx="-130.667" cy="12.922" r="5.131"/>
			<circle fill="#313741" cx="-130.667" cy="-5.757" r="5.131"/>
			<circle fill="#313741" cx="-130.667" cy="31.599" r="5.131"/>
			<path fill="#313741" d="M-105.114,15.173h-3.167c-2.188,0-3.969,2.302-3.969,5.129v6.968c0,1.944-1.583,3.526-3.527,3.526h-5.01
				l1.696-1.696c0.314-0.313,0.314-0.823,0-1.134c-0.314-0.315-0.822-0.315-1.135,0l-3.066,3.068
				c-0.074,0.073-0.133,0.166-0.173,0.261c-0.082,0.199-0.082,0.42,0,0.614c0.041,0.096,0.099,0.188,0.173,0.261l3.066,3.068
				c0.157,0.159,0.362,0.236,0.567,0.236s0.411-0.078,0.567-0.236c0.314-0.314,0.314-0.822,0-1.134l-1.696-1.695h5.01
				c2.829,0,5.132-2.302,5.132-5.131V20.31c0-1.913,1.083-3.525,2.364-3.525h3.167c0.443,0,0.803-0.359,0.803-0.802
				C-104.313,15.538-104.67,15.173-105.114,15.173z"/>
			<path fill="#313741" d="M-105.114,12.118h-15.674l1.696-1.697c0.314-0.313,0.314-0.821,0-1.134c-0.314-0.314-0.822-0.314-1.135,0
				l-3.066,3.065c-0.074,0.074-0.133,0.164-0.173,0.261c-0.082,0.197-0.082,0.417,0,0.614c0.041,0.097,0.099,0.188,0.173,0.261
				l3.066,3.068c0.157,0.157,0.362,0.235,0.567,0.235s0.411-0.078,0.567-0.235c0.314-0.315,0.314-0.823,0-1.135l-1.696-1.693h15.674
				c0.444,0,0.803-0.36,0.803-0.804C-104.312,12.482-104.67,12.118-105.114,12.118z"/>
			<path fill="#313741" d="M-105.114,9.064h-3.167c-1.281,0-2.364-1.616-2.364-3.526v-6.967c0-2.829-2.302-5.131-5.132-5.131h-5.011
				l1.696-1.697c0.314-0.313,0.314-0.821,0-1.135c-0.314-0.314-0.822-0.314-1.135,0l-3.066,3.066
				c-0.074,0.074-0.133,0.163-0.173,0.261c-0.082,0.196-0.082,0.417,0,0.614c0.041,0.097,0.099,0.187,0.173,0.261l3.066,3.065
				c0.157,0.157,0.362,0.236,0.567,0.236s0.411-0.079,0.567-0.236c0.314-0.313,0.314-0.821,0-1.135l-1.696-1.696h5.01
				c1.944,0,3.526,1.583,3.526,3.525v6.967c0,2.829,1.781,5.131,3.97,5.131h3.167c0.443,0,0.803-0.359,0.803-0.803
				C-104.312,9.423-104.67,9.064-105.114,9.064z"/>
			<circle fill="#313741" cx="-60.62" cy="12.922" r="5.131"/>
			<circle fill="#313741" cx="-60.62" cy="-5.757" r="5.131"/>
			<circle fill="#313741" cx="-60.62" cy="31.599" r="5.131"/>
			<path fill="#313741" d="M-67.817,31.292c-0.042-0.097-0.101-0.188-0.172-0.261l-3.068-3.065c-0.314-0.317-0.822-0.317-1.135,0
				c-0.314,0.312-0.314,0.822,0,1.134l1.697,1.696h-5.01c-1.946,0-3.524-1.581-3.524-3.525v-6.968c0-2.829-1.781-5.131-3.97-5.131
				h-3.167c-0.443,0-0.803,0.359-0.803,0.802c0,0.443,0.36,0.802,0.803,0.802H-83c1.284,0,2.361,1.617,2.361,3.525v6.968
				c0,2.829,2.303,5.131,5.133,5.131h5.01l-1.697,1.693c-0.314,0.316-0.314,0.824,0,1.136c0.16,0.159,0.362,0.236,0.57,0.236
				c0.208,0,0.411-0.077,0.568-0.236l3.068-3.068c0.073-0.073,0.132-0.164,0.174-0.262C-67.738,31.71-67.738,31.489-67.817,31.292z"
				/>
			<path fill="#313741" d="M-67.993,12.353l-3.067-3.065c-0.314-0.314-0.821-0.314-1.134,0c-0.316,0.312-0.316,0.821,0,1.134
				l1.696,1.697h-15.674c-0.444,0-0.804,0.359-0.804,0.803s0.36,0.804,0.804,0.804h15.674l-1.697,1.695
				c-0.316,0.315-0.316,0.823,0,1.135c0.158,0.156,0.362,0.235,0.569,0.235s0.411-0.079,0.567-0.235l3.067-3.069
				c0.073-0.072,0.131-0.163,0.174-0.26c0.08-0.197,0.08-0.418,0-0.615C-67.859,12.517-67.919,12.426-67.993,12.353z"/>
			<path fill="#313741" d="M-67.993-6.325L-71.06-9.39c-0.314-0.314-0.821-0.314-1.134,0c-0.316,0.313-0.316,0.822,0,1.135
				l1.696,1.697h-5.01c-2.831,0-5.133,2.302-5.133,5.131v6.966c0,1.912-1.083,3.526-2.363,3.526h-3.167
				c-0.444,0-0.803,0.358-0.803,0.802c0,0.444,0.359,0.804,0.803,0.804h3.167c2.189,0,3.97-2.302,3.97-5.131v-6.966
				c0-1.944,1.581-3.526,3.526-3.526h5.01l-1.696,1.696c-0.316,0.313-0.316,0.822,0,1.135c0.158,0.157,0.362,0.235,0.568,0.235
				c0.207,0,0.411-0.078,0.567-0.235l3.067-3.065c0.074-0.075,0.132-0.164,0.174-0.262c0.081-0.195,0.081-0.418,0-0.613
				C-67.859-6.162-67.919-6.25-67.993-6.325z"/>
		</g>
	</g>
	<text transform="matrix(1 0 0 1 -140.2583 73.1514)" fill="#969CA8" font-family="'HelveticaNeue-Bold'" font-size="4.4616">Created by Juan Pablo Bravo</text>
	<text transform="matrix(1 0 0 1 -140.2583 77.6138)" fill="#969CA8" font-family="'HelveticaNeue-Bold'" font-size="4.4616">from the Noun Project</text>
</g>
<text transform="matrix(1 0 0 1 276.2891 526.0498)" font-family="'HelveticaNeue-Bold'" font-size="3.7037">Created by Travis J. Lee</text>
<text transform="matrix(1 0 0 1 276.2891 529.7539)" font-family="'HelveticaNeue-Bold'" font-size="3.7037">from the Noun Project</text>
<g id="Capa_69">
	<g>
		<circle cx="439.113" cy="477.375" r="6.084"/>
		<circle cx="409.945" cy="477.375" r="4.26"/>
		<circle cx="409.945" cy="461.869" r="4.26"/>
		<circle cx="409.945" cy="492.88" r="4.259"/>
		<path d="M431.156,479.244h-2.629c-1.816,0-3.295,1.91-3.295,4.258v5.785c0,1.613-1.312,2.926-2.928,2.926h-4.16l1.408-1.408
			c0.262-0.26,0.262-0.682,0-0.941c-0.26-0.262-0.682-0.262-0.941,0l-2.545,2.547c-0.062,0.061-0.111,0.139-0.145,0.217
			c-0.068,0.166-0.068,0.35,0,0.51c0.033,0.08,0.082,0.156,0.145,0.217l2.545,2.547c0.131,0.133,0.301,0.197,0.471,0.197
			s0.342-0.064,0.471-0.197c0.262-0.26,0.262-0.682,0-0.941l-1.408-1.406h4.16c2.348,0,4.26-1.912,4.26-4.26v-5.785
			c0-1.588,0.898-2.926,1.963-2.926h2.629c0.367,0,0.666-0.297,0.666-0.666S431.525,479.244,431.156,479.244z"/>
		<path d="M431.156,476.707h-13.012l1.408-1.408c0.262-0.26,0.262-0.682,0-0.941c-0.26-0.26-0.682-0.26-0.941,0l-2.545,2.545
			c-0.062,0.062-0.111,0.137-0.145,0.217c-0.068,0.164-0.068,0.348,0,0.51c0.033,0.082,0.082,0.156,0.145,0.217l2.545,2.547
			c0.131,0.131,0.301,0.195,0.471,0.195s0.342-0.064,0.471-0.195c0.262-0.262,0.262-0.684,0-0.941l-1.408-1.406h13.012
			c0.369,0,0.668-0.299,0.668-0.666C431.824,477.01,431.525,476.707,431.156,476.707z"/>
		<path d="M431.156,474.172h-2.629c-1.062,0-1.961-1.34-1.961-2.926v-5.783c0-2.35-1.912-4.26-4.26-4.26h-4.162l1.408-1.408
			c0.262-0.26,0.262-0.682,0-0.943c-0.26-0.26-0.682-0.26-0.941,0l-2.545,2.547c-0.062,0.061-0.111,0.135-0.145,0.217
			c-0.068,0.162-0.068,0.346,0,0.51c0.033,0.08,0.082,0.154,0.145,0.217l2.545,2.545c0.131,0.131,0.301,0.195,0.471,0.195
			s0.342-0.064,0.471-0.195c0.262-0.26,0.262-0.682,0-0.943l-1.408-1.408h4.16c1.613,0,2.928,1.314,2.928,2.928v5.783
			c0,2.348,1.479,4.26,3.295,4.26h2.629c0.367,0,0.666-0.299,0.666-0.666C431.822,474.471,431.525,474.172,431.156,474.172z"/>
		<circle cx="468.094" cy="477.375" r="4.26"/>
		<circle cx="468.094" cy="461.869" r="4.26"/>
		<circle cx="468.094" cy="492.88" r="4.259"/>
		<path d="M462.119,492.625c-0.035-0.08-0.084-0.156-0.145-0.217l-2.545-2.545c-0.262-0.264-0.684-0.264-0.943,0
			c-0.26,0.26-0.26,0.682,0,0.941l1.408,1.408h-4.158c-1.615,0-2.926-1.312-2.926-2.928v-5.783c0-2.35-1.479-4.26-3.295-4.26h-2.629
			c-0.369,0-0.666,0.297-0.666,0.664c0,0.369,0.297,0.666,0.666,0.666h2.629c1.064,0,1.959,1.342,1.959,2.928v5.783
			c0,2.35,1.912,4.26,4.262,4.26h4.158l-1.408,1.406c-0.26,0.262-0.26,0.684,0,0.943c0.133,0.131,0.301,0.195,0.473,0.195
			c0.174,0,0.342-0.064,0.473-0.195l2.547-2.547c0.061-0.061,0.109-0.137,0.145-0.217
			C462.184,492.973,462.184,492.789,462.119,492.625z"/>
		<path d="M461.973,476.902l-2.547-2.545c-0.26-0.26-0.682-0.26-0.941,0c-0.262,0.26-0.262,0.682,0,0.941l1.41,1.408h-13.014
			c-0.367,0-0.666,0.299-0.666,0.668c0,0.367,0.299,0.666,0.666,0.666h13.012l-1.408,1.408c-0.262,0.262-0.262,0.684,0,0.941
			c0.131,0.131,0.301,0.195,0.473,0.195s0.34-0.064,0.471-0.195l2.547-2.547c0.059-0.061,0.107-0.135,0.143-0.217
			c0.066-0.162,0.066-0.346,0-0.51C462.084,477.039,462.033,476.965,461.973,476.902z"/>
		<path d="M461.973,461.398l-2.547-2.545c-0.26-0.262-0.682-0.262-0.941,0c-0.262,0.26-0.262,0.682,0,0.941l1.41,1.408h-4.16
			c-2.35,0-4.26,1.912-4.26,4.26v5.783c0,1.588-0.898,2.928-1.963,2.928h-2.629c-0.367,0-0.666,0.297-0.666,0.666
			c0,0.367,0.299,0.666,0.666,0.666h2.629c1.818,0,3.297-1.91,3.297-4.26v-5.783c0-1.613,1.311-2.926,2.926-2.926h4.16l-1.41,1.408
			c-0.262,0.26-0.262,0.682,0,0.941c0.133,0.131,0.301,0.195,0.473,0.195s0.34-0.064,0.471-0.195l2.547-2.545
			c0.061-0.061,0.109-0.135,0.145-0.217c0.066-0.162,0.066-0.348,0-0.51C462.084,461.533,462.033,461.459,461.973,461.398z"/>
	</g>
</g>
<text transform="matrix(1 0 0 1 401.9824 527.375)" font-family="'HelveticaNeue-Bold'" font-size="3.7037">Created by Juan Pablo Bravo</text>
<text transform="matrix(1 0 0 1 401.9824 531.0781)" font-family="'HelveticaNeue-Bold'" font-size="3.7037">from the Noun Project</text>
<rect x="-381" y="-74" fill="#008CDC" width="71" height="71"/>
<rect x="-381" y="-3" fill="#74187F" width="71" height="72"/>
<rect x="-293" y="-75" fill="#F1F4F6" width="71" height="71"/>
<rect x="-381" y="68" fill="#3A1940" width="71" height="71"/>
<rect x="-293" y="-5" fill="#E9E9E9" width="71" height="71"/>
<rect x="-293" y="66" fill="#969CA8" width="71" height="71"/>
<rect x="-293" y="137" fill="#4C5464" width="71" height="71"/>
<path fill="#313741" d="M105.548,46.813h-9.811V4.316c0-1.144-0.514-2.167-1.326-2.854c-0.683-0.827-1.72-1.354-2.883-1.354H13.999
	c-2.069,0-3.734,1.672-3.734,3.735v42.505c0,0.16,0.013,0.312,0.032,0.464H0.449v1.866c0,1.007,0.492,1.92,1.289,2.591
	c0.828,0.982,2.214,1.624,3.787,1.624h95.426c2.543,0,4.601-1.671,4.601-3.741v-1.865 M13.531,3.841h78.463v40.173H13.531V3.841z
	 M52.761,1.044c0.522,0,0.937,0.419,0.937,0.93c0,0.516-0.414,0.943-0.937,0.943c-0.51,0-0.931-0.427-0.931-0.943
	C51.83,1.465,52.251,1.044,52.761,1.044z M45.757,48.313v-1.127h14.01v1.127H45.757z"/>
<text transform="matrix(1 0 0 1 -1.8301 65.2637)" font-family="'HelveticaNeue-Bold'" font-size="2.8417">Created by Wilson Joseph</text>
<text transform="matrix(1 0 0 1 -1.8301 68.1055)" font-family="'HelveticaNeue-Bold'" font-size="2.8417">from the Noun Project</text>
<g>
	<path fill="#008CDC" d="M67.429,10.644h-3.982c-0.375,0-0.676,0.301-0.676,0.676v1.391H46.694V11.32c0-0.375-0.3-0.676-0.676-0.676
		h-3.944c-0.376,0-0.676,0.301-0.676,0.676v4.095c0,0.376,0.3,0.676,0.676,0.676h3.982c0.375,0,0.676-0.3,0.676-0.676v-1.39h7.399
		c-0.075,1.652-4.094,9.428-6.649,14.01c-0.15,0.263-0.075,0.601,0.15,0.826c2.292,1.953,2.855,3.87,3.005,4.846h-0.864
		c-0.376,0-0.676,0.3-0.676,0.676v3.305c0,0.375,0.3,0.676,0.676,0.676h9.992c0.375,0,0.676-0.301,0.676-0.676v-3.305
		c0-0.376-0.301-0.676-0.676-0.676h-0.864c0.149-0.977,0.713-2.893,3.004-4.846c0.225-0.187,0.301-0.563,0.15-0.826
		c-2.555-4.583-6.573-12.395-6.649-14.01h7.363v1.39c0,0.376,0.3,0.676,0.676,0.676h3.982c0.375,0,0.676-0.3,0.676-0.676V11.32
		C68.104,10.945,67.804,10.644,67.429,10.644z M45.379,14.738h-2.667v-2.779h2.667V14.738z M54.77,25.744
		c0.489,0,0.864,0.376,0.864,0.864s-0.375,0.864-0.864,0.864c-0.488,0-0.864-0.376-0.864-0.864
		C53.906,26.158,54.319,25.744,54.77,25.744z M59.127,36.975h-8.677v-1.991h0.901h6.874h0.902V36.975z M57.587,33.669h-5.634
		c-0.15-1.09-0.714-3.268-3.081-5.484c0.902-1.653,3.606-6.611,5.222-10.292v6.649c-0.864,0.263-1.502,1.089-1.502,2.066
		c0,1.202,0.977,2.179,2.178,2.179s2.178-0.977,2.178-2.179c0-0.977-0.638-1.765-1.502-2.066v-6.686
		c1.653,3.681,4.321,8.639,5.222,10.33C58.301,30.401,57.738,32.58,57.587,33.669z M66.79,14.738h-2.667v-1.239
		c0-0.038,0-0.076,0-0.113c0-0.038,0-0.076,0-0.112v-1.277h2.667V14.738z"/>
</g>
<g>
	<g>
		<path fill="#313741" d="M224.95,146.924c0.785,2.902-0.547,6.231-3.014,7.219c-15.289,6.133-31.559,6.322-46.986,0.546
			c-2.49-0.931-3.898-4.229-3.18-7.147l0,0c0.72-2.924,3.072-4.467,5.285-3.643c13.963,5.228,28.688,5.057,42.527-0.494
			C221.774,142.529,224.161,144.019,224.95,146.924L224.95,146.924z"/>
		<g>
			<path fill="#313741" d="M172.802,135.872c1.056,0.502,0.936,1.401,0.853,2.009c-0.086,0.639,1.294,0.747,1.708,0.582
				c1.137-0.456,2.408-0.966,3.504-0.712c0.887,0.206,1.253,0.968,1.613,1.719c0.169,0.352,0.658,1.434,2.151,0.529
				c0.979-0.594,2.132-1.161,3.229-1.022c0.998,0.125,1.506,0.927,2.13,1.613c1.052,1.157,1.914,0.542,2.298,0.271
				c0.887-0.629,1.874-1.331,2.993-1.285c1.048,0.041,1.79,0.748,2.521,1.443c1.267,1.206,1.628,0.863,2.656-0.022
				c0.8-0.688,1.612-1.387,2.692-1.431c1.137-0.046,2.154,0.633,3.068,1.242c1.516,1.012,1.861,0.668,2.681-0.289
				c0.628-0.735,1.267-1.48,2.298-1.606c1.126-0.137,2.278,0.458,3.309,0.989c1.136,0.586,1.996,0.378,2.541-0.556
				c0.436-0.745,0.877-1.5,1.805-1.696c1.14-0.24,2.438,0.273,3.596,0.73c0.438,0.172,2.191,0.582,2.098-0.621
				c-0.047-0.604-0.012-1.505,1.17-1.948c0.152-0.058,0.329-0.074,0.51-0.056c-1.094-1.758-2.928-2.521-4.645-1.836
				c-13.84,5.551-28.564,5.722-42.527,0.494c-1.564-0.583-3.197,0.018-4.275,1.451C172.787,135.867,172.794,135.869,172.802,135.872
				z"/>
			<path fill="#008CDC" d="M233.439,139.205c-1.026-2.8-4.171-4.226-7.067-3.373c-0.409,0.121-1.188,0.3-1.076,0.539
				c-0.023-0.002-0.046-0.004-0.066-0.004c-0.416,0.028-0.511,1.235-0.511,1.235c-0.03,0.123-0.03,0.294-0.021,0.551
				c0.027,0.737,0.066,1.878-1.74,2.384c-0.9,0.252-2.027-0.202-3.107-0.638c-1.686-0.68-2.202-0.682-2.802,0.409
				c-0.471,0.85-1.015,1.835-2.235,2.048c-1.082,0.187-2.203-0.408-3.273-0.972c-1.37-0.725-2.021-0.695-2.818,0.271
				c-0.654,0.797-1.413,1.72-2.654,1.827c-1.164,0.098-2.185-0.602-3.156-1.269c-1.501-1.032-1.805-0.882-2.876,0.071
				c-0.827,0.735-1.784,1.585-3.032,1.585c-1.226,0-2.104-0.864-2.863-1.613c-0.318-0.312-1.141-1.088-2.507-0.036
				c-0.915,0.705-1.915,1.396-3.041,1.302c-1.22-0.104-1.901-1.041-2.491-1.85c-0.238-0.328-0.787-1.064-2.463-0.221
				c-1.062,0.535-2.127,1.187-3.175,0.995c-1.194-0.22-1.647-1.225-2.037-2.093c-0.145-0.321-0.812-1.173-2.462-0.375
				c-1.031,0.499-2.168,0.889-3.031,0.61c-1.729-0.558-1.533-1.765-1.42-2.469c0.072-0.446,0.025-0.838-0.072-0.942
				c0.034-0.14-0.565-0.363-0.556-0.467c-0.423-0.108-0.22-0.113-0.643-0.227c-2.916-0.786-6.027,0.711-6.988,3.536
				c-0.961,2.818,0.885,5.994,4.168,6.881c0.963,0.261,1.928,0.509,2.896,0.744c0.035-0.232,0.082-0.465,0.139-0.696
				c0.72-2.926,2.886-4.892,5.391-4.892c0.568,0,1.132,0.103,1.677,0.305c6.582,2.465,13.567,4.399,20.373,4.399
				c0,0,0.001,0,0.002,0c7.241,0,14.237-2.097,21.178-4.881c0.576-0.23,1.174-0.347,1.779-0.347c2.453,0,4.621,1.916,5.395,4.767
				c0.064,0.241,0.118,0.484,0.159,0.728c1.01-0.268,2.017-0.551,3.021-0.849C232.694,145.218,234.466,142.001,233.439,139.205z"/>
		</g>
	</g>
	<g>
		<path fill="#313741" d="M190.922,121.464c0.779-1.753,0.974-3.701,0.39-5.649c-0.39-1.559-2.143-2.728-3.701-1.948
			c0,0-0.194,0.194-0.194,0.389c0.194,1.559,0.974,2.922,0.585,4.48c-0.585,1.948-1.947,3.312-2.532,5.259
			c-0.585,1.753-0.39,3.702,0.389,5.26c0.537,0.895,1.114,1.646,3.015,1.646c0.469,0,0.848-0.38,0.848-0.848
			c0-0.131-1.434-3.417-0.551-5.279C189.753,123.606,190.532,122.633,190.922,121.464z"/>
		<path fill="#313741" d="M210.874,121.464c0.78-1.753,0.974-3.701,0.389-5.649c-0.389-1.559-2.143-2.728-3.7-1.948
			c0,0-0.194,0.194-0.194,0.389c0.194,1.559,0.974,2.922,0.585,4.48c-0.585,1.948-1.949,3.312-2.533,5.259
			c-0.585,1.753-0.39,3.702,0.39,5.26c0.537,0.895,1.115,1.646,3.014,1.646c0.469,0,0.848-0.38,0.848-0.848
			c0-0.131-1.434-3.417-0.551-5.279C209.707,123.606,210.485,122.633,210.874,121.464z"/>
		<path fill="#313741" d="M201.829,120.295c0.391-1.169,0.197-2.338,0.197-3.506c0-0.779-0.197-1.364-0.391-2.143
			c-0.018-0.076-0.069-0.155-0.103-0.226c-0.035-0.075-0.071-0.149-0.107-0.223c-0.075-0.147-0.156-0.292-0.246-0.431
			c-0.185-0.284-0.409-0.54-0.659-0.769c-0.251-0.231-0.527-0.441-0.826-0.604c-0.289-0.156-0.607-0.264-0.936-0.278
			c-0.263-0.011-0.527,0.023-0.784,0.078c-0.252,0.054-0.522,0.104-0.726,0.276c-0.049,0.042-0.095,0.093-0.129,0.149
			c-0.076,0.122-0.055,0.238-0.014,0.368c0.025,0.082,0.035,0.167,0.058,0.249c0.026,0.103,0.053,0.204,0.08,0.306
			c0.055,0.207,0.111,0.412,0.169,0.618c0.116,0.418,0.235,0.835,0.346,1.254c0.108,0.408,0.211,0.819,0.283,1.235
			c0.072,0.41,0.109,0.826,0.069,1.241c-0.041,0.439-0.171,0.861-0.317,1.275c-0.018,0.05-0.032,0.105-0.055,0.154
			c-0.974,2.143-2.338,3.896-2.922,6.233c-0.584,2.338-0.584,5.064,0.975,7.013c0.779,0.778,2.143,1.559,3.312,0.778
			c0.194-0.194,0.39-0.39,0.39-0.584c0-0.39,0-0.584-0.195-0.974c-0.779-1.753-0.974-3.702-0.391-5.454
			C199.882,124.191,201.247,122.438,201.829,120.295z"/>
	</g>
</g>
<text transform="matrix(1 0 0 1 173.4805 192.1113)" font-family="'HelveticaNeue-Bold'" font-size="3.7037">Created by Andrew Cameron</text>
<text transform="matrix(1 0 0 1 178.0391 181.8145)" font-family="'HelveticaNeue-Bold'" font-size="3.7037">from the Noun Project</text>
<g>
	<circle fill="#008CDC" cx="80.637" cy="139.776" r="4.542"/>
	<circle fill="#008CDC" cx="24.024" cy="139.778" r="4.542"/>
</g>
</svg>
